Julee-Regular.otf.ufo
<glyph name="exclam" format="1">
  <advance width="257"/>
  <unicode hex="0021"/>
  <outline>
    <contour>
      <point x="101" y="224" type="curve" smooth="yes" name="hr00"/>
      <point x="101" y="188" smooth="yes"/>
      <point x="106" y="182" smooth="yes"/>
      <point x="116" y="182" type="curve" smooth="yes"/>
      <point x="126" y="182"/>
      <point x="142" y="185"/>
      <point x="153" y="194" type="curve"/>
      <point x="165" y="348"/>
      <point x="210" y="564"/>
      <point x="257" y="659" type="curve"/>
      <point x="176" y="707" type="line"/>
      <point x="149" y="694" type="line"/>
      <point x="116" y="563" smooth="yes"/>
      <point x="101" y="407" smooth="yes"/>
    </contour>
    <contour>
      <point x="60" y="36" type="curve" smooth="yes"/>
      <point x="60" y="79"/>
      <point x="96" y="112"/>
      <point x="163" y="121" type="curve"/>
      <point x="190" y="100" smooth="yes"/>
      <point x="198" y="72" smooth="yes"/>
      <point x="198" y="48" type="curve" smooth="yes"/>
      <point x="198" y="-1" smooth="yes"/>
      <point x="157" y="-28" smooth="yes"/>
      <point x="119" y="-28" type="curve" smooth="yes"/>
      <point x="81" y="-28" smooth="yes"/>
      <point x="60" y="4" smooth="yes"/>
    </contour>
  </outline>
</glyph>
<glyph name="quotedbl" format="1">
  <advance width="313"/>
  <unicode hex="0022"/>
  <outline>
    <contour>
      <point x="120" y="455" type="curve" name="hr00"/>
      <point x="125" y="507"/>
      <point x="140" y="605"/>
      <point x="166" y="670" type="curve"/>
      <point x="96" y="705" type="line"/>
      <point x="77" y="696" type="line"/>
      <point x="64" y="598" smooth="yes"/>
      <point x="60" y="537" smooth="yes"/>
      <point x="60" y="471" type="curve" smooth="yes"/>
      <point x="60" y="452" smooth="yes"/>
      <point x="62" y="447" smooth="yes"/>
      <point x="70" y="447" type="curve" smooth="yes"/>
      <point x="86" y="447"/>
      <point x="108" y="450"/>
    </contour>
    <contour>
      <point x="267" y="455" type="curve"/>
      <point x="272" y="507"/>
      <point x="288" y="605"/>
      <point x="313" y="670" type="curve"/>
      <point x="243" y="705" type="line"/>
      <point x="224" y="696" type="line"/>
      <point x="212" y="598" smooth="yes"/>
      <point x="207" y="537" smooth="yes"/>
      <point x="207" y="471" type="curve" smooth="yes"/>
      <point x="207" y="452" smooth="yes"/>
      <point x="209" y="447" smooth="yes"/>
      <point x="217" y="447" type="curve" smooth="yes"/>
      <point x="234" y="447"/>
      <point x="255" y="450"/>
    </contour>
  </outline>
</glyph>
<glyph name="numbersign" format="1">
  <advance width="500"/>
  <unicode hex="0023"/>
  <outline>
    <contour>
      <point x="34" y="-33" type="curve" smooth="yes"/>
      <point x="53" y="41"/>
      <point x="71" y="115"/>
      <point x="89" y="188" type="curve"/>
      <point x="159" y="192"/>
      <point x="226" y="196"/>
      <point x="293" y="201" type="curve" name="hr01"/>
      <point x="277" y="127"/>
      <point x="262" y="54"/>
      <point x="249" y="-18" type="curve"/>
      <point x="258" y="-30" smooth="yes"/>
      <point x="281" y="-38" smooth="yes"/>
      <point x="290" y="-38" type="curve" smooth="yes"/>
      <point x="297" y="-38" smooth="yes"/>
      <point x="300" y="-35" smooth="yes"/>
      <point x="301" y="-33" type="curve" smooth="yes"/>
      <point x="361" y="206" type="line"/>
      <point x="408" y="210"/>
      <point x="455" y="216"/>
      <point x="502" y="222" type="curve"/>
      <point x="507" y="230" smooth="yes"/>
      <point x="510" y="243" smooth="yes"/>
      <point x="510" y="254" type="curve" smooth="yes"/>
      <point x="510" y="271" smooth="yes"/>
      <point x="505" y="276" smooth="yes"/>
      <point x="501" y="276" type="curve" smooth="yes"/>
      <point x="456" y="271"/>
      <point x="415" y="267"/>
      <point x="376" y="265" type="curve"/>
      <point x="391" y="319"/>
      <point x="406" y="373"/>
      <point x="422" y="427" type="curve"/>
      <point x="465" y="431"/>
      <point x="508" y="436"/>
      <point x="552" y="442" type="curve"/>
      <point x="557" y="450" smooth="yes"/>
      <point x="560" y="463" smooth="yes"/>
      <point x="560" y="474" type="curve" smooth="yes"/>
      <point x="560" y="491" smooth="yes"/>
      <point x="555" y="496" smooth="yes"/>
      <point x="551" y="496" type="curve" smooth="yes"/>
      <point x="512" y="492"/>
      <point x="475" y="488"/>
      <point x="441" y="486" type="curve"/>
      <point x="463" y="555"/>
      <point x="488" y="625"/>
      <point x="518" y="696" type="curve"/>
      <point x="485" y="719" type="line"/>
      <point x="409" y="699" type="line"/>
      <point x="356" y="481" type="line"/>
      <point x="316" y="479" smooth="yes"/>
      <point x="279" y="478" smooth="yes"/>
      <point x="243" y="478" type="curve" smooth="yes"/>
      <point x="219" y="478"/>
      <point x="195" y="478"/>
      <point x="171" y="479" type="curve"/>
      <point x="194" y="551"/>
      <point x="220" y="623"/>
      <point x="251" y="696" type="curve"/>
      <point x="218" y="719" type="line"/>
      <point x="142" y="699" type="line"/>
      <point x="124" y="627"/>
      <point x="106" y="555"/>
      <point x="90" y="484" type="curve"/>
      <point x="54" y="487"/>
      <point x="17" y="491"/>
      <point x="-21" y="497" type="curve"/>
      <point x="-34" y="458" type="line"/>
      <point x="0" y="400" type="line"/>
      <point x="71" y="404" type="line"/>
      <point x="60" y="357"/>
      <point x="49" y="311"/>
      <point x="39" y="264" type="curve"/>
      <point x="4" y="267"/>
      <point x="-32" y="271"/>
      <point x="-71" y="277" type="curve"/>
      <point x="-84" y="238" type="line"/>
      <point x="-50" y="180" type="line"/>
      <point x="22" y="184" type="line"/>
      <point x="8" y="116"/>
      <point x="-5" y="48"/>
      <point x="-18" y="-18" type="curve"/>
      <point x="-9" y="-30" smooth="yes"/>
      <point x="14" y="-38" smooth="yes"/>
      <point x="23" y="-38" type="curve" smooth="yes"/>
      <point x="30" y="-38" smooth="yes"/>
      <point x="33" y="-35" smooth="yes"/>
    </contour>
    <contour>
      <point x="342" y="421" type="curve"/>
      <point x="329" y="367"/>
      <point x="317" y="314"/>
      <point x="306" y="261" type="curve"/>
      <point x="266" y="259" smooth="yes"/>
      <point x="229" y="258" smooth="yes"/>
      <point x="193" y="258" type="curve" smooth="yes"/>
      <point x="164" y="258"/>
      <point x="136" y="258"/>
      <point x="108" y="260" type="curve"/>
      <point x="121" y="309"/>
      <point x="135" y="359"/>
      <point x="149" y="408" type="curve" name="hr02"/>
      <point x="215" y="412"/>
      <point x="279" y="416"/>
    </contour>
  </outline>
</glyph>
<glyph name="dollar" format="1">
  <advance width="500"/>
  <unicode hex="0024"/>
  <outline>
    <contour>
      <point x="446" y="638" type="line" name="hr00"/>
      <point x="429" y="664" type="line"/>
      <point x="385" y="658"/>
      <point x="346" y="650"/>
      <point x="312" y="641" type="curve"/>
      <point x="318" y="734" type="line"/>
      <point x="313" y="745"/>
      <point x="295" y="750"/>
      <point x="284" y="750" type="curve"/>
      <point x="270" y="630" type="line"/>
      <point x="107" y="578" smooth="yes"/>
      <point x="81" y="502" smooth="yes"/>
      <point x="81" y="460" type="curve" smooth="yes"/>
      <point x="81" y="390"/>
      <point x="150" y="337"/>
      <point x="215" y="286" type="curve"/>
      <point x="196" y="191"/>
      <point x="175" y="98"/>
      <point x="152" y="17" type="curve"/>
      <point x="78" y="17" smooth="yes"/>
      <point x="48" y="32" smooth="yes"/>
      <point x="39" y="32" type="curve" smooth="yes"/>
      <point x="38" y="32" smooth="yes"/>
      <point x="38" y="31" smooth="yes"/>
      <point x="38" y="25" type="curve" smooth="yes"/>
      <point x="38" y="18"/>
      <point x="42" y="0"/>
      <point x="49" y="-11" type="curve"/>
      <point x="87" y="-22"/>
      <point x="113" y="-26"/>
      <point x="138" y="-27" type="curve"/>
      <point x="130" y="-54"/>
      <point x="121" y="-79"/>
      <point x="113" y="-102" type="curve"/>
      <point x="131" y="-115"/>
      <point x="156" y="-121"/>
      <point x="183" y="-121" type="curve"/>
      <point x="192" y="-89"/>
      <point x="201" y="-58"/>
      <point x="209" y="-26" type="curve"/>
      <point x="397" y="-12" smooth="yes"/>
      <point x="437" y="94" smooth="yes"/>
      <point x="437" y="155" type="curve" smooth="yes"/>
      <point x="437" y="240"/>
      <point x="355" y="300"/>
      <point x="283" y="355" type="curve"/>
      <point x="293" y="428"/>
      <point x="301" y="503"/>
      <point x="307" y="578" type="curve"/>
      <point x="346" y="577"/>
      <point x="385" y="567"/>
      <point x="413" y="552" type="curve"/>
    </contour>
    <contour>
      <point x="234" y="395" type="curve"/>
      <point x="201" y="425" smooth="yes"/>
      <point x="177" y="456" smooth="yes"/>
      <point x="177" y="491" type="curve" smooth="yes"/>
      <point x="177" y="543"/>
      <point x="216" y="567"/>
      <point x="263" y="575" type="curve"/>
      <point x="255" y="517"/>
      <point x="245" y="456"/>
    </contour>
    <contour>
      <point x="266" y="242" type="curve"/>
      <point x="300" y="210" smooth="yes"/>
      <point x="325" y="176" smooth="yes"/>
      <point x="325" y="138" type="curve" smooth="yes"/>
      <point x="325" y="87"/>
      <point x="286" y="46"/>
      <point x="222" y="28" type="curve"/>
      <point x="239" y="99"/>
      <point x="253" y="170"/>
    </contour>
  </outline>
</glyph>
<glyph name="percent" format="1">
  <advance width="809"/>
  <unicode hex="0025"/>
  <outline>
    <contour>
      <point x="319" y="466" type="curve" smooth="yes" name="hr00"/>
      <point x="319" y="604" smooth="yes"/>
      <point x="267" y="667" smooth="yes"/>
      <point x="205" y="667" type="curve" smooth="yes"/>
      <point x="120" y="667" smooth="yes"/>
      <point x="50" y="570" smooth="yes"/>
      <point x="50" y="440" type="curve" smooth="yes"/>
      <point x="50" y="301" smooth="yes"/>
      <point x="102" y="239" smooth="yes"/>
      <point x="163" y="239" type="curve" smooth="yes"/>
      <point x="248" y="239" smooth="yes"/>
      <point x="319" y="335" smooth="yes"/>
    </contour>
    <contour>
      <point x="99" y="443" type="curve" smooth="yes"/>
      <point x="99" y="529" smooth="yes"/>
      <point x="142" y="593" smooth="yes"/>
      <point x="198" y="593" type="curve" smooth="yes"/>
      <point x="237" y="593" smooth="yes"/>
      <point x="271" y="550" smooth="yes"/>
      <point x="271" y="457" type="curve" smooth="yes"/>
      <point x="271" y="373" smooth="yes"/>
      <point x="228" y="311" smooth="yes"/>
      <point x="172" y="311" type="curve" smooth="yes"/>
      <point x="133" y="311" smooth="yes"/>
      <point x="99" y="352" smooth="yes"/>
    </contour>
    <contour>
      <point x="759" y="207" type="curve" smooth="yes"/>
      <point x="759" y="345" smooth="yes"/>
      <point x="707" y="408" smooth="yes"/>
      <point x="645" y="408" type="curve" smooth="yes"/>
      <point x="560" y="408" smooth="yes"/>
      <point x="490" y="311" smooth="yes"/>
      <point x="490" y="181" type="curve" smooth="yes"/>
      <point x="490" y="42" smooth="yes"/>
      <point x="542" y="-20" smooth="yes"/>
      <point x="603" y="-20" type="curve" smooth="yes"/>
      <point x="688" y="-20" smooth="yes"/>
      <point x="759" y="76" smooth="yes"/>
    </contour>
    <contour>
      <point x="539" y="184" type="curve" smooth="yes"/>
      <point x="539" y="270" smooth="yes"/>
      <point x="582" y="334" smooth="yes"/>
      <point x="638" y="334" type="curve" smooth="yes"/>
      <point x="677" y="334" smooth="yes"/>
      <point x="711" y="291" smooth="yes"/>
      <point x="711" y="198" type="curve" smooth="yes"/>
      <point x="711" y="114" smooth="yes"/>
      <point x="668" y="52" smooth="yes"/>
      <point x="612" y="52" type="curve" smooth="yes"/>
      <point x="573" y="52" smooth="yes"/>
      <point x="539" y="93" smooth="yes"/>
    </contour>
    <component  base="fraction" xOffset="22"/>
  </outline>
</glyph>
<glyph name="ampersand" format="1">
  <advance width="533"/>
  <unicode hex="0026"/>
  <outline>
    <contour>
      <point x="174" y="-22" type="curve" smooth="yes"/>
      <point x="246" y="-22"/>
      <point x="314" y="21"/>
      <point x="368" y="89" type="curve"/>
      <point x="404" y="50" smooth="yes"/>
      <point x="440" y="13" smooth="yes"/>
      <point x="476" y="-20" type="curve" smooth="yes"/>
      <point x="482" y="-25" smooth="yes"/>
      <point x="494" y="-33" smooth="yes"/>
      <point x="524" y="-33" type="curve" smooth="yes" name="hr01"/>
      <point x="528" y="-33"/>
      <point x="533" y="-30"/>
      <point x="533" y="-24" type="curve"/>
      <point x="488" y="32"/>
      <point x="444" y="87"/>
      <point x="404" y="141" type="curve"/>
      <point x="437" y="198"/>
      <point x="460" y="265"/>
      <point x="471" y="335" type="curve"/>
      <point x="459" y="345" smooth="yes"/>
      <point x="447" y="349" smooth="yes"/>
      <point x="440" y="349" type="curve" smooth="yes"/>
      <point x="437" y="349" smooth="yes"/>
      <point x="434" y="346" smooth="yes"/>
      <point x="433" y="341" type="curve" smooth="yes"/>
      <point x="417" y="287"/>
      <point x="395" y="235"/>
      <point x="368" y="191" type="curve"/>
      <point x="294" y="298" smooth="yes"/>
      <point x="243" y="397" smooth="yes"/>
      <point x="243" y="481" type="curve" smooth="yes"/>
      <point x="243" y="555" smooth="yes"/>
      <point x="287" y="588" smooth="yes"/>
      <point x="344" y="588" type="curve" smooth="yes"/>
      <point x="379" y="588"/>
      <point x="420" y="575"/>
      <point x="458" y="552" type="curve"/>
      <point x="490" y="638" type="line"/>
      <point x="474" y="664" type="line"/>
      <point x="178" y="636" smooth="yes"/>
      <point x="140" y="550" smooth="yes"/>
      <point x="140" y="471" type="curve" smooth="yes"/>
      <point x="140" y="442"/>
      <point x="149" y="409"/>
      <point x="164" y="374" type="curve"/>
      <point x="69" y="309" smooth="yes"/>
      <point x="25" y="214" smooth="yes"/>
      <point x="25" y="134" type="curve" smooth="yes"/>
      <point x="25" y="48" smooth="yes"/>
      <point x="76" y="-22" smooth="yes"/>
    </contour>
    <contour>
      <point x="327" y="134" type="curve"/>
      <point x="291" y="92" smooth="yes"/>
      <point x="250" y="67" smooth="yes"/>
      <point x="208" y="67" type="curve" smooth="yes"/>
      <point x="151" y="67" smooth="yes"/>
      <point x="122" y="121" smooth="yes"/>
      <point x="122" y="176" type="curve" smooth="yes"/>
      <point x="122" y="224"/>
      <point x="144" y="281"/>
      <point x="189" y="323" type="curve"/>
      <point x="224" y="262"/>
      <point x="273" y="197"/>
    </contour>
  </outline>
</glyph>
<glyph name="quotesingle" format="1">
  <advance width="166"/>
  <unicode hex="0027"/>
  <outline>
    <contour>
      <point x="120" y="455" type="curve" name="hr00"/>
      <point x="125" y="507"/>
      <point x="140" y="605"/>
      <point x="166" y="670" type="curve"/>
      <point x="96" y="705" type="line"/>
      <point x="77" y="696" type="line"/>
      <point x="64" y="598" smooth="yes"/>
      <point x="60" y="537" smooth="yes"/>
      <point x="60" y="471" type="curve" smooth="yes"/>
      <point x="60" y="452" smooth="yes"/>
      <point x="62" y="447" smooth="yes"/>
      <point x="70" y="447" type="curve" smooth="yes"/>
      <point x="86" y="447"/>
      <point x="108" y="450"/>
    </contour>
  </outline>
</glyph>
<glyph name="parenleft" format="1">
  <advance width="317"/>
  <unicode hex="0028"/>
  <outline>
    <contour>
      <point x="285" y="-58" type="curve" name="hr00"/>
      <point x="279" y="-76"/>
      <point x="246" y="-98"/>
      <point x="237" y="-98" type="curve"/>
      <point x="109" y="6" smooth="yes"/>
      <point x="45" y="140" smooth="yes"/>
      <point x="45" y="289" type="curve" smooth="yes"/>
      <point x="45" y="467"/>
      <point x="127" y="623"/>
      <point x="290" y="743" type="curve"/>
      <point x="299" y="743"/>
      <point x="313" y="730"/>
      <point x="317" y="712" type="curve"/>
      <point x="198" y="602" smooth="yes"/>
      <point x="146" y="451" smooth="yes"/>
      <point x="146" y="293" type="curve" smooth="yes"/>
      <point x="146" y="129"/>
      <point x="204" y="14"/>
    </contour>
  </outline>
</glyph>
<glyph name="parenright" format="1">
  <advance width="317"/>
  <unicode hex="0029"/>
  <outline>
    <contour>
      <point x="32" y="703" type="curve" name="hr00"/>
      <point x="38" y="721"/>
      <point x="71" y="743"/>
      <point x="80" y="743" type="curve"/>
      <point x="208" y="639" smooth="yes"/>
      <point x="272" y="505" smooth="yes"/>
      <point x="272" y="356" type="curve" smooth="yes"/>
      <point x="272" y="178"/>
      <point x="190" y="22"/>
      <point x="27" y="-98" type="curve"/>
      <point x="18" y="-98"/>
      <point x="4" y="-85"/>
      <point x="0" y="-67" type="curve"/>
      <point x="119" y="43" smooth="yes"/>
      <point x="171" y="194" smooth="yes"/>
      <point x="171" y="352" type="curve" smooth="yes"/>
      <point x="171" y="516"/>
      <point x="113" y="631"/>
    </contour>
  </outline>
</glyph>
<glyph name="asterisk" format="1">
  <advance width="465"/>
  <unicode hex="002A"/>
  <outline>
    <contour>
      <point x="222" y="696" type="line" name="hr00"/>
      <point x="211" y="657"/>
      <point x="205" y="623"/>
      <point x="201" y="588" type="curve"/>
      <point x="175" y="611"/>
      <point x="151" y="637"/>
      <point x="128" y="666" type="curve"/>
      <point x="102" y="648" type="line"/>
      <point x="80" y="605" type="line"/>
      <point x="107" y="576"/>
      <point x="136" y="552"/>
      <point x="167" y="529" type="curve"/>
      <point x="140" y="508"/>
      <point x="113" y="485"/>
      <point x="84" y="460" type="curve"/>
      <point x="84" y="452" smooth="yes"/>
      <point x="97" y="417" smooth="yes"/>
      <point x="106" y="417" type="curve" smooth="yes"/>
      <point x="109" y="417"/>
      <point x="140" y="444"/>
      <point x="197" y="480" type="curve"/>
      <point x="198" y="445"/>
      <point x="200" y="407"/>
      <point x="204" y="368" type="curve"/>
      <point x="216" y="361"/>
      <point x="242" y="359"/>
      <point x="242" y="359" type="curve"/>
      <point x="248" y="359"/>
      <point x="250" y="361"/>
      <point x="251" y="363" type="curve"/>
      <point x="251" y="402"/>
      <point x="252" y="437"/>
      <point x="254" y="470" type="curve"/>
      <point x="283" y="453"/>
      <point x="314" y="436"/>
      <point x="348" y="418" type="curve"/>
      <point x="366" y="423"/>
      <point x="381" y="452"/>
      <point x="381" y="452" type="curve"/>
      <point x="381" y="454" smooth="yes"/>
      <point x="380" y="454" smooth="yes"/>
      <point x="379" y="455" type="curve" smooth="yes"/>
      <point x="340" y="479"/>
      <point x="307" y="502"/>
      <point x="276" y="525" type="curve"/>
      <point x="311" y="542"/>
      <point x="350" y="560"/>
      <point x="395" y="577" type="curve"/>
      <point x="388" y="608" type="line"/>
      <point x="355" y="642" type="line"/>
      <point x="327" y="631"/>
      <point x="300" y="618"/>
      <point x="274" y="602" type="curve"/>
      <point x="280" y="630"/>
      <point x="287" y="657"/>
      <point x="297" y="687" type="curve"/>
      <point x="269" y="700" type="line"/>
    </contour>
  </outline>
</glyph>
<glyph name="plus" format="1">
  <advance width="500"/>
  <unicode hex="002B"/>
  <outline>
    <contour>
      <point x="209" y="519" type="line" name="hr00"/>
      <point x="204" y="480" smooth="yes"/>
      <point x="202" y="445" smooth="yes"/>
      <point x="202" y="410" type="curve" smooth="yes"/>
      <point x="202" y="394"/>
      <point x="202" y="378"/>
      <point x="203" y="362" type="curve"/>
      <point x="154" y="352"/>
      <point x="103" y="339"/>
      <point x="48" y="323" type="curve"/>
      <point x="46" y="315" smooth="yes"/>
      <point x="46" y="292" smooth="yes"/>
      <point x="46" y="284" type="curve" smooth="yes"/>
      <point x="46" y="269"/>
      <point x="50" y="265"/>
      <point x="54" y="265" type="curve"/>
      <point x="108" y="276"/>
      <point x="160" y="286"/>
      <point x="210" y="291" type="curve"/>
      <point x="216" y="238"/>
      <point x="227" y="182"/>
      <point x="240" y="123" type="curve"/>
      <point x="248" y="120" smooth="yes"/>
      <point x="271" y="119" smooth="yes"/>
      <point x="279" y="119" type="curve" smooth="yes"/>
      <point x="294" y="119" smooth="yes"/>
      <point x="298" y="121" smooth="yes"/>
      <point x="298" y="124" type="curve" smooth="yes"/>
      <point x="290" y="184"/>
      <point x="285" y="244"/>
      <point x="283" y="297" type="curve"/>
      <point x="299" y="298" smooth="yes"/>
      <point x="317" y="299" smooth="yes"/>
      <point x="334" y="299" type="curve" smooth="yes"/>
      <point x="371" y="299"/>
      <point x="408" y="296"/>
      <point x="449" y="291" type="curve"/>
      <point x="458" y="329" type="line"/>
      <point x="440" y="384" type="line"/>
      <point x="426" y="385" smooth="yes"/>
      <point x="412" y="385" smooth="yes"/>
      <point x="397" y="385" type="curve" smooth="yes"/>
      <point x="360" y="385"/>
      <point x="322" y="382"/>
      <point x="283" y="377" type="curve"/>
      <point x="285" y="423"/>
      <point x="291" y="470"/>
      <point x="301" y="521" type="curve"/>
      <point x="265" y="533" type="line"/>
    </contour>
  </outline>
</glyph>
<glyph name="comma" format="1">
  <advance width="217"/>
  <unicode hex="002C"/>
  <outline>
    <contour>
      <point x="178" y="53" type="curve" smooth="yes" name="hr00"/>
      <point x="178" y="99" smooth="yes"/>
      <point x="153" y="129" smooth="yes"/>
      <point x="116" y="129" type="curve" smooth="yes"/>
      <point x="79" y="129"/>
      <point x="43" y="103"/>
      <point x="43" y="56" type="curve"/>
      <point x="86" y="-6" type="line"/>
      <point x="83" y="-46"/>
      <point x="63" y="-82"/>
      <point x="10" y="-107" type="curve"/>
      <point x="10" y="-117" smooth="yes"/>
      <point x="20" y="-138" smooth="yes"/>
      <point x="26" y="-138" type="curve" smooth="yes"/>
      <point x="39" y="-138" smooth="yes"/>
      <point x="178" y="-82" smooth="yes"/>
    </contour>
  </outline>
</glyph>
<glyph name="hyphen" format="1">
  <advance width="401"/>
  <unicode hex="002D"/>
  <outline>
    <contour>
      <point x="366" y="308" type="line" name="hr00"/>
      <point x="355" y="326" type="line"/>
      <point x="308" y="308" smooth="yes"/>
      <point x="248" y="288" smooth="yes"/>
      <point x="149" y="288" type="curve" smooth="yes"/>
      <point x="110" y="288"/>
      <point x="77" y="290"/>
      <point x="39" y="296" type="curve"/>
      <point x="39" y="296" smooth="yes"/>
      <point x="35" y="296" smooth="yes"/>
      <point x="35" y="290" type="curve" smooth="yes"/>
      <point x="37" y="277"/>
      <point x="48" y="242"/>
      <point x="58" y="236" type="curve"/>
      <point x="106" y="224" smooth="yes"/>
      <point x="157" y="219" smooth="yes"/>
      <point x="205" y="219" type="curve" smooth="yes"/>
      <point x="249" y="219"/>
      <point x="291" y="223"/>
      <point x="333" y="230" type="curve"/>
    </contour>
  </outline>
</glyph>
<glyph name="period" format="1">
  <advance width="212"/>
  <unicode hex="002E"/>
  <outline>
    <contour>
      <point x="39" y="36" type="curve" smooth="yes" name="hr00"/>
      <point x="39" y="79"/>
      <point x="75" y="112"/>
      <point x="142" y="121" type="curve"/>
      <point x="169" y="100" smooth="yes"/>
      <point x="177" y="72" smooth="yes"/>
      <point x="177" y="48" type="curve" smooth="yes"/>
      <point x="177" y="-1" smooth="yes"/>
      <point x="136" y="-28" smooth="yes"/>
      <point x="98" y="-28" type="curve" smooth="yes"/>
      <point x="60" y="-28" smooth="yes"/>
      <point x="39" y="4" smooth="yes"/>
    </contour>
  </outline>
</glyph>
<glyph name="slash" format="1">
  <advance width="460"/>
  <unicode hex="002F"/>
  <outline>
    <contour>
      <point x="48" y="-98" type="curve" smooth="yes" name="hr00"/>
      <point x="176" y="175"/>
      <point x="288" y="438"/>
      <point x="460" y="712" type="curve"/>
      <point x="428" y="738" type="line"/>
      <point x="345" y="716" type="line"/>
      <point x="219" y="441"/>
      <point x="107" y="176"/>
      <point x="0" y="-81" type="curve"/>
      <point x="8" y="-94" smooth="yes"/>
      <point x="26" y="-103" smooth="yes"/>
      <point x="36" y="-103" type="curve" smooth="yes"/>
      <point x="43" y="-103" smooth="yes"/>
      <point x="47" y="-100" smooth="yes"/>
    </contour>
  </outline>
</glyph>
<glyph name="zero" format="1">
  <advance width="500"/>
  <unicode hex="0030"/>
  <outline>
    <contour>
      <point x="469" y="345" type="curve" smooth="yes" name="hr00"/>
      <point x="469" y="573" smooth="yes"/>
      <point x="384" y="677" smooth="yes"/>
      <point x="284" y="677" type="curve" smooth="yes"/>
      <point x="145" y="677" smooth="yes"/>
      <point x="31" y="517" smooth="yes"/>
      <point x="31" y="301" type="curve" smooth="yes"/>
      <point x="31" y="73" smooth="yes"/>
      <point x="116" y="-31" smooth="yes"/>
      <point x="214" y="-31" type="curve" smooth="yes"/>
      <point x="353" y="-31" smooth="yes"/>
      <point x="469" y="129" smooth="yes"/>
    </contour>
    <contour>
      <point x="92" y="304" type="curve" smooth="yes"/>
      <point x="92" y="462" smooth="yes"/>
      <point x="171" y="579" smooth="yes"/>
      <point x="275" y="579" type="curve" smooth="yes"/>
      <point x="347" y="579" smooth="yes"/>
      <point x="410" y="500" smooth="yes"/>
      <point x="410" y="330" type="curve" smooth="yes"/>
      <point x="410" y="177" smooth="yes"/>
      <point x="330" y="65" smooth="yes"/>
      <point x="226" y="65" type="curve" smooth="yes"/>
      <point x="153" y="65" smooth="yes"/>
      <point x="92" y="139" smooth="yes"/>
    </contour>
  </outline>
</glyph>
<glyph name="one" format="1">
  <advance width="500"/>
  <unicode hex="0031"/>
  <outline>
    <contour>
      <point x="308" y="-31" type="curve" smooth="yes" name="hr00"/>
      <point x="305" y="0" smooth="yes"/>
      <point x="304" y="42" smooth="yes"/>
      <point x="304" y="92" type="curve" smooth="yes"/>
      <point x="304" y="284"/>
      <point x="318" y="510"/>
      <point x="374" y="636" type="curve"/>
      <point x="291" y="677" type="line"/>
      <point x="264" y="661" type="line"/>
      <point x="259" y="640"/>
      <point x="255" y="620"/>
      <point x="252" y="600" type="curve"/>
      <point x="202" y="535"/>
      <point x="127" y="459"/>
      <point x="45" y="411" type="curve"/>
      <point x="46" y="392"/>
      <point x="79" y="369"/>
      <point x="90" y="369" type="curve"/>
      <point x="139" y="390"/>
      <point x="189" y="422"/>
      <point x="235" y="460" type="curve"/>
      <point x="232" y="424" smooth="yes"/>
      <point x="231" y="388" smooth="yes"/>
      <point x="231" y="351" type="curve" smooth="yes"/>
      <point x="231" y="231"/>
      <point x="243" y="109"/>
      <point x="262" y="-19" type="curve"/>
      <point x="269" y="-28" smooth="yes"/>
      <point x="290" y="-34" smooth="yes"/>
      <point x="300" y="-34" type="curve" smooth="yes"/>
      <point x="307" y="-34" smooth="yes"/>
      <point x="308" y="-33" smooth="yes"/>
    </contour>
  </outline>
</glyph>
<glyph name="two" format="1">
  <advance width="500"/>
  <unicode hex="0032"/>
  <outline>
    <contour>
      <point x="411" y="486" type="curve" smooth="yes" name="hr00"/>
      <point x="411" y="554" smooth="yes"/>
      <point x="373" y="645" smooth="yes"/>
      <point x="186" y="645" type="curve" smooth="yes"/>
      <point x="155" y="645"/>
      <point x="120" y="642"/>
      <point x="80" y="637" type="curve"/>
      <point x="43" y="565" type="line"/>
      <point x="55" y="537" type="line"/>
      <point x="92" y="556" smooth="yes"/>
      <point x="151" y="575" smooth="yes"/>
      <point x="203" y="575" type="curve" smooth="yes"/>
      <point x="259" y="575" smooth="yes"/>
      <point x="306" y="553" smooth="yes"/>
      <point x="306" y="483" type="curve" smooth="yes"/>
      <point x="306" y="368" smooth="yes"/>
      <point x="158" y="187" smooth="yes"/>
      <point x="7" y="13" type="curve" smooth="yes"/>
      <point x="0" y="6" type="line"/>
      <point x="19" y="-24" type="line"/>
      <point x="91" y="-13" smooth="yes"/>
      <point x="158" y="-8" smooth="yes"/>
      <point x="230" y="-8" type="curve" smooth="yes"/>
      <point x="297" y="-8"/>
      <point x="381" y="-13"/>
      <point x="459" y="-30" type="curve"/>
      <point x="460" y="-30" smooth="yes"/>
      <point x="461" y="-28" smooth="yes"/>
      <point x="461" y="-21" type="curve" smooth="yes"/>
      <point x="461" y="-10"/>
      <point x="456" y="20"/>
      <point x="449" y="29" type="curve"/>
      <point x="369" y="56"/>
      <point x="250" y="67"/>
      <point x="135" y="77" type="curve"/>
      <point x="266" y="212" smooth="yes"/>
      <point x="411" y="380" smooth="yes"/>
    </contour>
  </outline>
</glyph>
<glyph name="three" format="1">
  <advance width="500"/>
  <unicode hex="0033"/>
  <outline>
    <contour>
      <point x="226" y="358" type="line" name="hr00"/>
      <point x="299" y="414"/>
      <point x="372" y="481"/>
      <point x="431" y="566" type="curve"/>
      <point x="431" y="581"/>
      <point x="427" y="597"/>
      <point x="418" y="606" type="curve"/>
      <point x="353" y="635" smooth="yes"/>
      <point x="276" y="645" smooth="yes"/>
      <point x="199" y="645" type="curve" smooth="yes"/>
      <point x="161" y="645"/>
      <point x="122" y="642"/>
      <point x="87" y="637" type="curve"/>
      <point x="50" y="565" type="line"/>
      <point x="62" y="537" type="line"/>
      <point x="121" y="565" smooth="yes"/>
      <point x="211" y="577" smooth="yes"/>
      <point x="294" y="577" type="curve" smooth="yes"/>
      <point x="307" y="577"/>
      <point x="320" y="577"/>
      <point x="332" y="576" type="curve"/>
      <point x="251" y="454"/>
      <point x="175" y="380"/>
      <point x="85" y="304" type="curve"/>
      <point x="106" y="266" type="line"/>
      <point x="140" y="282" smooth="yes"/>
      <point x="172" y="290" smooth="yes"/>
      <point x="200" y="290" type="curve" smooth="yes"/>
      <point x="275" y="290" smooth="yes"/>
      <point x="323" y="238" smooth="yes"/>
      <point x="323" y="167" type="curve" smooth="yes"/>
      <point x="323" y="73" smooth="yes"/>
      <point x="254" y="16" smooth="yes"/>
      <point x="167" y="16" type="curve" smooth="yes"/>
      <point x="130" y="16"/>
      <point x="90" y="27"/>
      <point x="50" y="50" type="curve"/>
      <point x="41" y="50"/>
      <point x="31" y="17"/>
      <point x="31" y="4" type="curve"/>
      <point x="85" y="-26" smooth="yes"/>
      <point x="142" y="-39" smooth="yes"/>
      <point x="193" y="-39" type="curve" smooth="yes"/>
      <point x="316" y="-39" smooth="yes"/>
      <point x="432" y="36" smooth="yes"/>
      <point x="432" y="168" type="curve" smooth="yes"/>
      <point x="432" y="276" smooth="yes"/>
      <point x="352" y="350" smooth="yes"/>
      <point x="242" y="350" type="curve" smooth="yes"/>
      <point x="231" y="350" type="line"/>
    </contour>
  </outline>
</glyph>
<glyph name="four" format="1">
  <advance width="500"/>
  <unicode hex="0034"/>
  <outline>
    <contour>
      <point x="250" y="633" type="curve" name="hr00"/>
      <point x="205" y="543"/>
      <point x="160" y="454"/>
      <point x="-6" y="195" type="curve"/>
      <point x="-6" y="186"/>
      <point x="0" y="156"/>
      <point x="9" y="149" type="curve"/>
      <point x="74" y="127" smooth="yes"/>
      <point x="149" y="119" smooth="yes"/>
      <point x="224" y="119" type="curve" smooth="yes"/>
      <point x="249" y="119"/>
      <point x="275" y="120"/>
      <point x="300" y="121" type="curve"/>
      <point x="305" y="75"/>
      <point x="311" y="28"/>
      <point x="318" y="-19" type="curve"/>
      <point x="325" y="-28" smooth="yes"/>
      <point x="346" y="-34" smooth="yes"/>
      <point x="356" y="-34" type="curve" smooth="yes"/>
      <point x="363" y="-34" smooth="yes"/>
      <point x="364" y="-33" smooth="yes"/>
      <point x="364" y="-31" type="curve" smooth="yes"/>
      <point x="361" y="0"/>
      <point x="360" y="42"/>
      <point x="360" y="92" type="curve"/>
      <point x="360" y="126" type="line"/>
      <point x="375" y="128"/>
      <point x="391" y="130"/>
      <point x="406" y="133" type="curve"/>
      <point x="445" y="217" type="line"/>
      <point x="430" y="244" type="line"/>
      <point x="410" y="235"/>
      <point x="387" y="227"/>
      <point x="362" y="220" type="curve"/>
      <point x="368" y="363"/>
      <point x="387" y="503"/>
      <point x="428" y="604" type="curve"/>
      <point x="298" y="652" type="line"/>
      <point x="286" y="652"/>
      <point x="262" y="646"/>
    </contour>
    <contour>
      <point x="97" y="188" type="curve"/>
      <point x="187" y="362"/>
      <point x="237" y="475"/>
      <point x="288" y="572" type="curve"/>
      <point x="298" y="572" type="line"/>
      <point x="293" y="505" smooth="yes"/>
      <point x="287" y="421" smooth="yes"/>
      <point x="287" y="342" type="curve" smooth="yes"/>
      <point x="287" y="296"/>
      <point x="289" y="250"/>
      <point x="292" y="204" type="curve"/>
      <point x="231" y="193"/>
      <point x="164" y="188"/>
    </contour>
  </outline>
</glyph>
<glyph name="five" format="1">
  <advance width="500"/>
  <unicode hex="0035"/>
  <outline>
    <contour>
      <point x="442" y="168" type="curve" smooth="yes" name="hr00"/>
      <point x="442" y="288" smooth="yes"/>
      <point x="341" y="362" smooth="yes"/>
      <point x="239" y="362" type="curve" smooth="yes"/>
      <point x="202" y="362"/>
      <point x="166" y="352"/>
      <point x="134" y="332" type="curve"/>
      <point x="148" y="401"/>
      <point x="155" y="493"/>
      <point x="162" y="565" type="curve"/>
      <point x="183" y="567" smooth="yes"/>
      <point x="206" y="568" smooth="yes"/>
      <point x="233" y="568" type="curve" smooth="yes"/>
      <point x="306" y="568"/>
      <point x="370" y="560"/>
      <point x="422" y="538" type="curve"/>
      <point x="433" y="566" type="line"/>
      <point x="393" y="637" type="line"/>
      <point x="370" y="639" smooth="yes"/>
      <point x="347" y="640" smooth="yes"/>
      <point x="324" y="640" type="curve" smooth="yes"/>
      <point x="243" y="640"/>
      <point x="163" y="628"/>
      <point x="98" y="599" type="curve"/>
      <point x="86" y="586"/>
      <point x="80" y="567"/>
      <point x="80" y="552" type="curve"/>
      <point x="82" y="527" smooth="yes"/>
      <point x="83" y="502" smooth="yes"/>
      <point x="83" y="476" type="curve" smooth="yes"/>
      <point x="83" y="425"/>
      <point x="78" y="320"/>
      <point x="63" y="259" type="curve"/>
      <point x="63" y="258" smooth="yes"/>
      <point x="64" y="257" smooth="yes"/>
      <point x="71" y="257" type="curve" smooth="yes"/>
      <point x="81" y="257" smooth="yes"/>
      <point x="108" y="262" smooth="yes"/>
      <point x="116" y="268" type="curve" smooth="yes"/>
      <point x="146" y="288" smooth="yes"/>
      <point x="178" y="297" smooth="yes"/>
      <point x="208" y="297" type="curve" smooth="yes"/>
      <point x="276" y="297" smooth="yes"/>
      <point x="333" y="249" smooth="yes"/>
      <point x="333" y="167" type="curve" smooth="yes"/>
      <point x="333" y="73" smooth="yes"/>
      <point x="264" y="16" smooth="yes"/>
      <point x="177" y="16" type="curve" smooth="yes"/>
      <point x="140" y="16"/>
      <point x="100" y="27"/>
      <point x="60" y="50" type="curve"/>
      <point x="51" y="50"/>
      <point x="41" y="17"/>
      <point x="41" y="4" type="curve"/>
      <point x="95" y="-26" smooth="yes"/>
      <point x="152" y="-39" smooth="yes"/>
      <point x="203" y="-39" type="curve" smooth="yes"/>
      <point x="326" y="-39" smooth="yes"/>
      <point x="442" y="36" smooth="yes"/>
    </contour>
  </outline>
</glyph>
<glyph name="six" format="1">
  <advance width="500"/>
  <unicode hex="0036"/>
  <outline>
    <contour>
      <point x="171" y="348" type="line" name="hr00"/>
      <point x="206" y="446"/>
      <point x="265" y="546"/>
      <point x="346" y="657" type="curve"/>
      <point x="346" y="662" smooth="yes"/>
      <point x="329" y="669" smooth="yes"/>
      <point x="305" y="669" type="curve" smooth="yes"/>
      <point x="300" y="669"/>
      <point x="295" y="668"/>
      <point x="292" y="667" type="curve"/>
      <point x="184" y="547" smooth="yes"/>
      <point x="40" y="337" smooth="yes"/>
      <point x="40" y="190" type="curve" smooth="yes"/>
      <point x="40" y="79" smooth="yes"/>
      <point x="96" y="-41" smooth="yes"/>
      <point x="256" y="-41" type="curve" smooth="yes"/>
      <point x="398" y="-41" smooth="yes"/>
      <point x="467" y="71" smooth="yes"/>
      <point x="467" y="177" type="curve" smooth="yes"/>
      <point x="467" y="300" smooth="yes"/>
      <point x="376" y="374" smooth="yes"/>
      <point x="282" y="374" type="curve" smooth="yes"/>
      <point x="247" y="374"/>
      <point x="212" y="363"/>
      <point x="180" y="342" type="curve"/>
    </contour>
    <contour>
      <point x="235" y="13" type="curve"/>
      <point x="175" y="38" smooth="yes"/>
      <point x="136" y="115" smooth="yes"/>
      <point x="136" y="185" type="curve" smooth="yes"/>
      <point x="136" y="253" smooth="yes"/>
      <point x="172" y="314" smooth="yes"/>
      <point x="260" y="314" type="curve" smooth="yes"/>
      <point x="332" y="314" smooth="yes"/>
      <point x="367" y="245" smooth="yes"/>
      <point x="367" y="182" type="curve" smooth="yes"/>
      <point x="367" y="85"/>
      <point x="295" y="13"/>
    </contour>
  </outline>
</glyph>
<glyph name="seven" format="1">
  <advance width="500"/>
  <unicode hex="0037"/>
  <outline>
    <contour>
      <point x="180" y="-47" type="curve" smooth="yes" name="hr00"/>
      <point x="261" y="164"/>
      <point x="336" y="348"/>
      <point x="465" y="558" type="curve"/>
      <point x="465" y="562" type="line" smooth="yes"/>
      <point x="465" y="572"/>
      <point x="460" y="598"/>
      <point x="452" y="605" type="curve"/>
      <point x="377" y="636" smooth="yes"/>
      <point x="287" y="645" smooth="yes"/>
      <point x="198" y="645" type="curve" smooth="yes"/>
      <point x="157" y="645"/>
      <point x="117" y="643"/>
      <point x="79" y="638" type="curve"/>
      <point x="39" y="556" type="line"/>
      <point x="51" y="528" type="line"/>
      <point x="119" y="558" smooth="yes"/>
      <point x="222" y="571" smooth="yes"/>
      <point x="315" y="571" type="curve" smooth="yes"/>
      <point x="330" y="571"/>
      <point x="345" y="570"/>
      <point x="360" y="570" type="curve"/>
      <point x="252" y="338"/>
      <point x="203" y="177"/>
      <point x="140" y="-30" type="curve"/>
      <point x="148" y="-43" smooth="yes"/>
      <point x="158" y="-52" smooth="yes"/>
      <point x="168" y="-52" type="curve" smooth="yes"/>
      <point x="175" y="-52" smooth="yes"/>
      <point x="179" y="-49" smooth="yes"/>
    </contour>
  </outline>
</glyph>
<glyph name="eight" format="1">
  <advance width="550"/>
  <unicode hex="0038"/>
  <outline>
    <contour>
      <point x="367" y="315" type="curve" name="hr00"/>
      <point x="460" y="274" smooth="yes"/>
      <point x="500" y="203" smooth="yes"/>
      <point x="500" y="134" type="curve" smooth="yes"/>
      <point x="500" y="39" smooth="yes"/>
      <point x="416" y="-38" smooth="yes"/>
      <point x="280" y="-38" type="curve" smooth="yes"/>
      <point x="138" y="-38" smooth="yes"/>
      <point x="54" y="47" smooth="yes"/>
      <point x="54" y="134" type="curve" smooth="yes"/>
      <point x="54" y="206"/>
      <point x="95" y="278"/>
      <point x="187" y="318" type="curve"/>
      <point x="94" y="359" smooth="yes"/>
      <point x="65" y="428" smooth="yes"/>
      <point x="65" y="496" type="curve" smooth="yes"/>
      <point x="65" y="592" smooth="yes"/>
      <point x="146" y="671" smooth="yes"/>
      <point x="274" y="671" type="curve" smooth="yes"/>
      <point x="408" y="671" smooth="yes"/>
      <point x="489" y="585" smooth="yes"/>
      <point x="489" y="496" type="curve" smooth="yes"/>
      <point x="489" y="425"/>
      <point x="459" y="354"/>
    </contour>
    <contour>
      <point x="151" y="141" type="curve" smooth="yes"/>
      <point x="151" y="57" smooth="yes"/>
      <point x="216" y="17" smooth="yes"/>
      <point x="280" y="17" type="curve" smooth="yes"/>
      <point x="343" y="17" smooth="yes"/>
      <point x="404" y="55" smooth="yes"/>
      <point x="404" y="132" type="curve" smooth="yes"/>
      <point x="404" y="194"/>
      <point x="367" y="257"/>
      <point x="279" y="290" type="curve"/>
      <point x="199" y="269" smooth="yes"/>
      <point x="151" y="197" smooth="yes"/>
    </contour>
    <contour>
      <point x="397" y="492" type="curve" smooth="yes"/>
      <point x="397" y="574" smooth="yes"/>
      <point x="333" y="616" smooth="yes"/>
      <point x="274" y="616" type="curve" smooth="yes"/>
      <point x="214" y="616" smooth="yes"/>
      <point x="156" y="578" smooth="yes"/>
      <point x="156" y="501" type="curve" smooth="yes"/>
      <point x="156" y="439"/>
      <point x="187" y="376"/>
      <point x="275" y="343" type="curve"/>
      <point x="355" y="364" smooth="yes"/>
      <point x="397" y="436" smooth="yes"/>
    </contour>
  </outline>
</glyph>
<glyph name="nine" format="1">
  <advance width="500"/>
  <unicode hex="0039"/>
  <outline>
    <contour>
      <point x="334" y="276" type="line" name="hr00"/>
      <point x="302" y="178"/>
      <point x="249" y="78"/>
      <point x="176" y="-33" type="curve"/>
      <point x="176" y="-38" smooth="yes"/>
      <point x="183" y="-45" smooth="yes"/>
      <point x="207" y="-45" type="curve" smooth="yes"/>
      <point x="212" y="-45"/>
      <point x="227" y="-44"/>
      <point x="230" y="-43" type="curve"/>
      <point x="331" y="77" smooth="yes"/>
      <point x="465" y="287" smooth="yes"/>
      <point x="465" y="434" type="curve" smooth="yes"/>
      <point x="465" y="545" smooth="yes"/>
      <point x="409" y="665" smooth="yes"/>
      <point x="249" y="665" type="curve" smooth="yes"/>
      <point x="107" y="665" smooth="yes"/>
      <point x="38" y="553" smooth="yes"/>
      <point x="38" y="447" type="curve" smooth="yes"/>
      <point x="38" y="324" smooth="yes"/>
      <point x="129" y="250" smooth="yes"/>
      <point x="223" y="250" type="curve" smooth="yes"/>
      <point x="258" y="250"/>
      <point x="293" y="261"/>
      <point x="325" y="282" type="curve"/>
    </contour>
    <contour>
      <point x="270" y="611" type="curve"/>
      <point x="330" y="586" smooth="yes"/>
      <point x="369" y="508" smooth="yes"/>
      <point x="369" y="438" type="curve" smooth="yes"/>
      <point x="369" y="353" smooth="yes"/>
      <point x="310" y="308" smooth="yes"/>
      <point x="251" y="308" type="curve" smooth="yes"/>
      <point x="194" y="308" smooth="yes"/>
      <point x="138" y="351" smooth="yes"/>
      <point x="138" y="442" type="curve" smooth="yes"/>
      <point x="138" y="539"/>
      <point x="210" y="611"/>
    </contour>
  </outline>
</glyph>
<glyph name="less" format="1">
  <advance width="500"/>
  <unicode hex="003C"/>
  <outline>
    <contour>
      <point x="44" y="267" type="line" name="hr00"/>
      <point x="170" y="217"/>
      <point x="279" y="168"/>
      <point x="351" y="96" type="curve"/>
      <point x="382" y="107" type="line"/>
      <point x="416" y="171" type="line"/>
      <point x="344" y="221"/>
      <point x="247" y="260"/>
      <point x="157" y="291" type="curve"/>
      <point x="159" y="304" type="line"/>
      <point x="259" y="334"/>
      <point x="367" y="374"/>
      <point x="455" y="424" type="curve"/>
      <point x="442" y="492" type="line"/>
      <point x="412" y="503" type="line"/>
      <point x="301" y="426"/>
      <point x="190" y="378"/>
      <point x="53" y="328" type="curve"/>
    </contour>
  </outline>
</glyph>
<glyph name="equal" format="1">
  <advance width="500"/>
  <unicode hex="003D"/>
  <outline>
    <contour>
      <point x="449" y="283" type="line"/>
      <point x="410" y="288" smooth="yes"/>
      <point x="375" y="290" smooth="yes"/>
      <point x="340" y="290" type="curve" smooth="yes"/>
      <point x="256" y="290"/>
      <point x="159" y="274"/>
      <point x="53" y="251" type="curve"/>
      <point x="50" y="244" smooth="yes"/>
      <point x="49" y="221" smooth="yes"/>
      <point x="49" y="212" type="curve" smooth="yes"/>
      <point x="49" y="198" smooth="yes"/>
      <point x="51" y="194" smooth="yes"/>
      <point x="54" y="194" type="curve" smooth="yes"/>
      <point x="130" y="204" smooth="yes"/>
      <point x="207" y="208" smooth="yes"/>
      <point x="269" y="208" type="curve" smooth="yes"/>
      <point x="330" y="208"/>
      <point x="386" y="203"/>
      <point x="451" y="190" type="curve" name="hr01"/>
      <point x="463" y="227" type="line"/>
    </contour>
    <contour>
      <point x="440" y="464" type="line"/>
      <point x="426" y="466" smooth="yes"/>
      <point x="411" y="466" smooth="yes"/>
      <point x="397" y="466" type="curve" smooth="yes"/>
      <point x="290" y="466"/>
      <point x="179" y="441"/>
      <point x="48" y="404" type="curve"/>
      <point x="46" y="396" smooth="yes"/>
      <point x="46" y="373" smooth="yes"/>
      <point x="46" y="365" type="curve" smooth="yes"/>
      <point x="46" y="350"/>
      <point x="50" y="346"/>
      <point x="53" y="346" type="curve"/>
      <point x="156" y="368" smooth="yes"/>
      <point x="251" y="379" smooth="yes"/>
      <point x="334" y="379" type="curve" smooth="yes"/>
      <point x="371" y="379"/>
      <point x="408" y="376"/>
      <point x="449" y="372" type="curve"/>
      <point x="458" y="410" type="line"/>
    </contour>
  </outline>
</glyph>
<glyph name="greater" format="1">
  <advance width="500"/>
  <unicode hex="003E"/>
  <outline>
    <contour>
      <point x="456" y="332" type="line" name="hr00"/>
      <point x="330" y="382"/>
      <point x="221" y="431"/>
      <point x="149" y="503" type="curve"/>
      <point x="118" y="492" type="line"/>
      <point x="84" y="428" type="line"/>
      <point x="156" y="378"/>
      <point x="253" y="339"/>
      <point x="343" y="308" type="curve"/>
      <point x="341" y="295" type="line"/>
      <point x="241" y="265"/>
      <point x="133" y="225"/>
      <point x="45" y="175" type="curve"/>
      <point x="58" y="107" type="line"/>
      <point x="88" y="96" type="line"/>
      <point x="199" y="173"/>
      <point x="310" y="221"/>
      <point x="447" y="271" type="curve"/>
    </contour>
  </outline>
</glyph>
<glyph name="question" format="1">
  <advance width="405"/>
  <unicode hex="003F"/>
  <outline>
    <contour>
      <point x="224" y="219" type="curve" name="hr00"/>
      <point x="198" y="232" smooth="yes"/>
      <point x="181" y="253" smooth="yes"/>
      <point x="181" y="281" type="curve" smooth="yes"/>
      <point x="181" y="364" smooth="yes"/>
      <point x="383" y="413" smooth="yes"/>
      <point x="383" y="539" type="curve" smooth="yes"/>
      <point x="383" y="595"/>
      <point x="348" y="688"/>
      <point x="91" y="709" type="curve"/>
      <point x="67" y="689" type="line"/>
      <point x="101" y="592" type="line"/>
      <point x="130" y="610" smooth="yes"/>
      <point x="167" y="624" smooth="yes"/>
      <point x="200" y="624" type="curve" smooth="yes"/>
      <point x="243" y="624" smooth="yes"/>
      <point x="286" y="608" smooth="yes"/>
      <point x="286" y="563" type="curve" smooth="yes"/>
      <point x="286" y="465" smooth="yes"/>
      <point x="81" y="424" smooth="yes"/>
      <point x="81" y="297" type="curve" smooth="yes"/>
      <point x="81" y="265"/>
      <point x="113" y="213"/>
      <point x="198" y="183" type="curve"/>
      <point x="214" y="183"/>
      <point x="224" y="198"/>
    </contour>
    <contour>
      <point x="65" y="36" type="curve" smooth="yes"/>
      <point x="65" y="79"/>
      <point x="101" y="112"/>
      <point x="168" y="121" type="curve"/>
      <point x="195" y="100" smooth="yes"/>
      <point x="203" y="72" smooth="yes"/>
      <point x="203" y="48" type="curve" smooth="yes"/>
      <point x="203" y="-1" smooth="yes"/>
      <point x="162" y="-28" smooth="yes"/>
      <point x="124" y="-28" type="curve" smooth="yes"/>
      <point x="86" y="-28" smooth="yes"/>
      <point x="65" y="4" smooth="yes"/>
    </contour>
  </outline>
</glyph>
<glyph name="at" format="1">
  <advance width="882"/>
  <unicode hex="0040"/>
  <outline>
    <contour>
      <point x="492" y="212" type="line" name="hr00"/>
      <point x="488" y="176" smooth="yes"/>
      <point x="485" y="140" smooth="yes"/>
      <point x="485" y="108" type="curve" smooth="yes"/>
      <point x="485" y="36" smooth="yes"/>
      <point x="500" y="-19" smooth="yes"/>
      <point x="567" y="-19" type="curve" smooth="yes"/>
      <point x="681" y="-19" smooth="yes"/>
      <point x="824" y="131" smooth="yes"/>
      <point x="824" y="321" type="curve" smooth="yes"/>
      <point x="824" y="516" smooth="yes"/>
      <point x="684" y="605" smooth="yes"/>
      <point x="505" y="605" type="curve" smooth="yes"/>
      <point x="261" y="605" smooth="yes"/>
      <point x="66" y="418" smooth="yes"/>
      <point x="66" y="172" type="curve" smooth="yes"/>
      <point x="66" y="-19"/>
      <point x="187" y="-107"/>
      <point x="350" y="-107" type="curve"/>
      <point x="358" y="-97" smooth="yes"/>
      <point x="364" y="-74" smooth="yes"/>
      <point x="365" y="-63" type="curve" smooth="yes"/>
      <point x="365" y="-59" smooth="yes"/>
      <point x="363" y="-57" smooth="yes"/>
      <point x="358" y="-57" type="curve" smooth="yes"/>
      <point x="242" y="-57" smooth="yes"/>
      <point x="152" y="17" smooth="yes"/>
      <point x="152" y="174" type="curve" smooth="yes"/>
      <point x="152" y="391" smooth="yes"/>
      <point x="302" y="555" smooth="yes"/>
      <point x="487" y="555" type="curve" smooth="yes"/>
      <point x="621" y="555" smooth="yes"/>
      <point x="728" y="479" smooth="yes"/>
      <point x="728" y="317" type="curve" smooth="yes"/>
      <point x="728" y="121" smooth="yes"/>
      <point x="642" y="39" smooth="yes"/>
      <point x="593" y="39" type="curve" smooth="yes"/>
      <point x="559" y="39" smooth="yes"/>
      <point x="550" y="83" smooth="yes"/>
      <point x="550" y="143" type="curve" smooth="yes"/>
      <point x="550" y="255"/>
      <point x="582" y="425"/>
      <point x="604" y="475" type="curve"/>
      <point x="584" y="487" type="line"/>
      <point x="514" y="457" type="line" smooth="yes"/>
      <point x="396" y="406" smooth="yes"/>
      <point x="239" y="286" smooth="yes"/>
      <point x="239" y="128" type="curve" smooth="yes"/>
      <point x="239" y="77" smooth="yes"/>
      <point x="260" y="42" smooth="yes"/>
      <point x="308" y="42" type="curve" smooth="yes"/>
      <point x="364" y="42"/>
      <point x="434" y="113"/>
      <point x="486" y="216" type="curve"/>
    </contour>
    <contour>
      <point x="361" y="144" type="curve" smooth="yes"/>
      <point x="334" y="144" smooth="yes"/>
      <point x="322" y="170" smooth="yes"/>
      <point x="322" y="207" type="curve" smooth="yes"/>
      <point x="322" y="302"/>
      <point x="437" y="376"/>
      <point x="516" y="407" type="curve"/>
      <point x="501" y="311" type="line"/>
      <point x="454" y="192" smooth="yes"/>
      <point x="395" y="144" smooth="yes"/>
    </contour>
  </outline>
</glyph>
<glyph name="A" format="1">
  <advance width="502"/>
  <unicode hex="0041"/>
  <outline>
    <contour>
      <point x="381" y="658" type="curve" name="hr00"/>
      <point x="370" y="671"/>
      <point x="348" y="677"/>
      <point x="337" y="677" type="curve"/>
      <point x="227" y="619" type="line"/>
      <point x="201" y="516"/>
      <point x="148" y="370"/>
      <point x="94" y="238" type="curve"/>
      <point x="55" y="242" smooth="yes"/>
      <point x="34" y="251" smooth="yes"/>
      <point x="26" y="251" type="curve" smooth="yes"/>
      <point x="24" y="251" smooth="yes"/>
      <point x="23" y="249" smooth="yes"/>
      <point x="23" y="244" type="curve" smooth="yes"/>
      <point x="23" y="237"/>
      <point x="28" y="211"/>
      <point x="38" y="200" type="curve"/>
      <point x="51" y="197"/>
      <point x="64" y="194"/>
      <point x="76" y="192" type="curve"/>
      <point x="38" y="102"/>
      <point x="2" y="21"/>
      <point x="-24" y="-31" type="curve"/>
      <point x="-24" y="-34" smooth="yes"/>
      <point x="-13" y="-34" smooth="yes"/>
      <point x="-12" y="-34" type="curve" smooth="yes"/>
      <point x="7" y="-34"/>
      <point x="21" y="-28"/>
      <point x="32" y="-19" type="curve"/>
      <point x="72" y="54"/>
      <point x="106" y="120"/>
      <point x="137" y="184" type="curve"/>
      <point x="160" y="182" smooth="yes"/>
      <point x="182" y="182" smooth="yes"/>
      <point x="207" y="182" type="curve" smooth="yes"/>
      <point x="254" y="182"/>
      <point x="302" y="186"/>
      <point x="345" y="193" type="curve"/>
      <point x="370" y="106"/>
      <point x="397" y="28"/>
      <point x="419" y="-19" type="curve"/>
      <point x="427" y="-28" smooth="yes"/>
      <point x="438" y="-34" smooth="yes"/>
      <point x="458" y="-34" type="curve" smooth="yes"/>
      <point x="462" y="-34"/>
      <point x="466" y="-33"/>
      <point x="466" y="-31" type="curve"/>
      <point x="431" y="99" smooth="yes"/>
      <point x="376" y="332" smooth="yes"/>
      <point x="376" y="550" type="curve" smooth="yes"/>
      <point x="376" y="586"/>
      <point x="377" y="623"/>
    </contour>
    <contour>
      <point x="161" y="235" type="curve"/>
      <point x="201" y="325"/>
      <point x="237" y="415"/>
      <point x="276" y="522" type="curve"/>
      <point x="284" y="444"/>
      <point x="304" y="349"/>
      <point x="328" y="258" type="curve"/>
      <point x="273" y="242"/>
      <point x="214" y="236"/>
    </contour>
  </outline>
</glyph>
<glyph name="B" format="1">
  <advance width="509"/>
  <unicode hex="0042"/>
  <outline>
    <contour>
      <point x="183" y="320" type="curve" name="hr00"/>
      <point x="265" y="314" smooth="yes"/>
      <point x="387" y="271" smooth="yes"/>
      <point x="387" y="178" type="curve" smooth="yes"/>
      <point x="387" y="78" smooth="yes"/>
      <point x="289" y="17" smooth="yes"/>
      <point x="152" y="17" type="curve" smooth="yes"/>
      <point x="79" y="17" smooth="yes"/>
      <point x="44" y="32" smooth="yes"/>
      <point x="33" y="32" type="curve" smooth="yes"/>
      <point x="31" y="32" smooth="yes"/>
      <point x="30" y="31" smooth="yes"/>
      <point x="30" y="25" type="curve" smooth="yes"/>
      <point x="30" y="18"/>
      <point x="34" y="0"/>
      <point x="45" y="-11" type="curve"/>
      <point x="118" y="-27" smooth="yes"/>
      <point x="158" y="-28" smooth="yes"/>
      <point x="214" y="-28" type="curve" smooth="yes"/>
      <point x="409" y="-28" smooth="yes"/>
      <point x="499" y="70" smooth="yes"/>
      <point x="499" y="169" type="curve" smooth="yes"/>
      <point x="499" y="258"/>
      <point x="422" y="348"/>
      <point x="247" y="361" type="curve"/>
      <point x="256" y="364" smooth="yes"/>
      <point x="428" y="439" smooth="yes"/>
      <point x="428" y="513" type="curve" smooth="yes"/>
      <point x="428" y="628"/>
      <point x="201" y="577"/>
      <point x="79" y="682" type="curve"/>
      <point x="38" y="615" type="line"/>
      <point x="109" y="544" smooth="yes"/>
      <point x="126" y="383" smooth="yes"/>
      <point x="126" y="235" type="curve" smooth="yes"/>
      <point x="126" y="164" smooth="yes"/>
      <point x="118" y="100" smooth="yes"/>
      <point x="112" y="60" type="curve" smooth="yes"/>
      <point x="112" y="58" smooth="yes"/>
      <point x="113" y="57" smooth="yes"/>
      <point x="119" y="57" type="curve" smooth="yes"/>
      <point x="126" y="57"/>
      <point x="144" y="63"/>
      <point x="151" y="72" type="curve"/>
      <point x="165" y="100"/>
      <point x="180" y="208"/>
    </contour>
    <contour>
      <point x="168" y="566" type="curve"/>
      <point x="209" y="544" smooth="yes"/>
      <point x="315" y="538" smooth="yes"/>
      <point x="315" y="498" type="curve" smooth="yes"/>
      <point x="315" y="476"/>
      <point x="263" y="424"/>
      <point x="184" y="393" type="curve"/>
      <point x="184" y="525"/>
      <point x="168" y="566"/>
    </contour>
  </outline>
</glyph>
<glyph name="C" format="1">
  <advance width="488"/>
  <unicode hex="0043"/>
  <outline>
    <contour>
      <point x="463" y="651" type="line" name="hr00"/>
      <point x="446" y="677" type="line"/>
      <point x="133" y="629" smooth="yes"/>
      <point x="30" y="416" smooth="yes"/>
      <point x="30" y="252" type="curve" smooth="yes"/>
      <point x="30" y="85" smooth="yes"/>
      <point x="104" y="-32" smooth="yes"/>
      <point x="233" y="-32" type="curve" smooth="yes"/>
      <point x="337" y="-32"/>
      <point x="450" y="79"/>
      <point x="478" y="269" type="curve"/>
      <point x="466" y="279" smooth="yes"/>
      <point x="454" y="283" smooth="yes"/>
      <point x="447" y="283" type="curve" smooth="yes"/>
      <point x="444" y="283" smooth="yes"/>
      <point x="441" y="280" smooth="yes"/>
      <point x="440" y="275" type="curve" smooth="yes"/>
      <point x="398" y="129" smooth="yes"/>
      <point x="341" y="55" smooth="yes"/>
      <point x="248" y="55" type="curve" smooth="yes"/>
      <point x="183" y="55" smooth="yes"/>
      <point x="119" y="133" smooth="yes"/>
      <point x="119" y="307" type="curve" smooth="yes"/>
      <point x="119" y="420" smooth="yes"/>
      <point x="174" y="569" smooth="yes"/>
      <point x="371" y="569" type="curve" smooth="yes"/>
      <point x="389" y="569"/>
      <point x="409" y="568"/>
      <point x="430" y="565" type="curve"/>
    </contour>
  </outline>
</glyph>
<glyph name="D" format="1">
  <advance width="541"/>
  <unicode hex="0044"/>
  <outline>
    <contour>
      <point x="181" y="512" type="curve" name="hr00"/>
      <point x="307" y="446" smooth="yes"/>
      <point x="425" y="350" smooth="yes"/>
      <point x="425" y="227" type="curve" smooth="yes"/>
      <point x="425" y="117" smooth="yes"/>
      <point x="319" y="17" smooth="yes"/>
      <point x="158" y="17" type="curve" smooth="yes"/>
      <point x="84" y="17" smooth="yes"/>
      <point x="49" y="32" smooth="yes"/>
      <point x="38" y="32" type="curve" smooth="yes"/>
      <point x="36" y="32" smooth="yes"/>
      <point x="35" y="31" smooth="yes"/>
      <point x="35" y="25" type="curve" smooth="yes"/>
      <point x="35" y="18"/>
      <point x="40" y="0"/>
      <point x="50" y="-11" type="curve"/>
      <point x="123" y="-27" smooth="yes"/>
      <point x="163" y="-28" smooth="yes"/>
      <point x="218" y="-28" type="curve" smooth="yes"/>
      <point x="325" y="-28" smooth="yes"/>
      <point x="534" y="35" smooth="yes"/>
      <point x="534" y="227" type="curve" smooth="yes"/>
      <point x="534" y="429"/>
      <point x="267" y="497"/>
      <point x="79" y="682" type="curve"/>
      <point x="37" y="615" type="line"/>
      <point x="108" y="544" smooth="yes"/>
      <point x="126" y="383" smooth="yes"/>
      <point x="126" y="235" type="curve" smooth="yes"/>
      <point x="126" y="164" smooth="yes"/>
      <point x="118" y="100" smooth="yes"/>
      <point x="112" y="60" type="curve" smooth="yes"/>
      <point x="112" y="58" smooth="yes"/>
      <point x="113" y="57" smooth="yes"/>
      <point x="119" y="57" type="curve" smooth="yes"/>
      <point x="126" y="57"/>
      <point x="143" y="63"/>
      <point x="151" y="72" type="curve"/>
      <point x="167" y="105" smooth="yes"/>
      <point x="184" y="242" smooth="yes"/>
      <point x="184" y="372" type="curve" smooth="yes"/>
      <point x="184" y="420"/>
      <point x="184" y="467"/>
    </contour>
  </outline>
</glyph>
<glyph name="E" format="1">
  <advance width="542"/>
  <unicode hex="0045"/>
  <outline>
    <contour>
      <point x="421" y="367" type="line" name="hr00"/>
      <point x="412" y="384" type="line"/>
      <point x="369" y="367" smooth="yes"/>
      <point x="305" y="349" smooth="yes"/>
      <point x="215" y="349" type="curve" smooth="yes"/>
      <point x="192" y="349" type="line"/>
      <point x="199" y="426"/>
      <point x="212" y="503"/>
      <point x="226" y="563" type="curve"/>
      <point x="263" y="558" smooth="yes"/>
      <point x="300" y="556" smooth="yes"/>
      <point x="337" y="556" type="curve" smooth="yes"/>
      <point x="382" y="556"/>
      <point x="427" y="559"/>
      <point x="474" y="565" type="curve"/>
      <point x="507" y="651" type="line"/>
      <point x="490" y="677" type="line"/>
      <point x="415" y="639"/>
      <point x="328" y="627"/>
      <point x="241" y="626" type="curve"/>
      <point x="253" y="661" type="line"/>
      <point x="227" y="677" type="line"/>
      <point x="154" y="627" type="line"/>
      <point x="83" y="633" type="line"/>
      <point x="82" y="633" smooth="yes"/>
      <point x="81" y="632" smooth="yes"/>
      <point x="81" y="628" type="curve" smooth="yes"/>
      <point x="81" y="621"/>
      <point x="88" y="597"/>
      <point x="101" y="588" type="curve"/>
      <point x="109" y="585"/>
      <point x="117" y="584"/>
      <point x="125" y="582" type="curve"/>
      <point x="115" y="521"/>
      <point x="109" y="408"/>
      <point x="107" y="352" type="curve"/>
      <point x="93" y="353"/>
      <point x="78" y="355"/>
      <point x="64" y="357" type="curve"/>
      <point x="64" y="357" smooth="yes"/>
      <point x="59" y="357" smooth="yes"/>
      <point x="59" y="351" type="curve" smooth="yes"/>
      <point x="60" y="340"/>
      <point x="73" y="307"/>
      <point x="86" y="303" type="curve"/>
      <point x="106" y="299" type="line"/>
      <point x="109" y="126" smooth="yes"/>
      <point x="148" y="-33" smooth="yes"/>
      <point x="285" y="-33" type="curve" smooth="yes"/>
      <point x="409" y="-33"/>
      <point x="468" y="68"/>
      <point x="494" y="199" type="curve"/>
      <point x="482" y="209" smooth="yes"/>
      <point x="470" y="213" smooth="yes"/>
      <point x="463" y="213" type="curve" smooth="yes"/>
      <point x="460" y="213" smooth="yes"/>
      <point x="457" y="210" smooth="yes"/>
      <point x="456" y="205" type="curve" smooth="yes"/>
      <point x="422" y="84" smooth="yes"/>
      <point x="382" y="25" smooth="yes"/>
      <point x="298" y="25" type="curve" smooth="yes"/>
      <point x="222" y="25" smooth="yes"/>
      <point x="187" y="127" smooth="yes"/>
      <point x="187" y="250" type="curve" smooth="yes"/>
      <point x="187" y="263"/>
      <point x="187" y="276"/>
      <point x="188" y="290" type="curve"/>
      <point x="214" y="288" smooth="yes"/>
      <point x="241" y="287" smooth="yes"/>
      <point x="267" y="287" type="curve" smooth="yes"/>
      <point x="306" y="287"/>
      <point x="354" y="291"/>
      <point x="391" y="298" type="curve"/>
    </contour>
  </outline>
</glyph>
<glyph name="F" format="1">
  <advance width="433"/>
  <unicode hex="0046"/>
  <outline>
    <contour>
      <point x="386" y="359" type="line"/>
      <point x="377" y="376" type="line"/>
      <point x="338" y="361"/>
      <point x="283" y="346"/>
      <point x="209" y="342" type="curve"/>
      <point x="211" y="381" smooth="yes"/>
      <point x="213" y="419" smooth="yes"/>
      <point x="213" y="458" type="curve" smooth="yes"/>
      <point x="213" y="492"/>
      <point x="212" y="526"/>
      <point x="210" y="560" type="curve"/>
      <point x="238" y="557" smooth="yes"/>
      <point x="266" y="556" smooth="yes"/>
      <point x="295" y="556" type="curve" smooth="yes"/>
      <point x="338" y="556"/>
      <point x="383" y="559"/>
      <point x="430" y="565" type="curve"/>
      <point x="463" y="651" type="line"/>
      <point x="446" y="677" type="line"/>
      <point x="373" y="640"/>
      <point x="287" y="628"/>
      <point x="203" y="626" type="curve"/>
      <point x="202" y="638"/>
      <point x="200" y="649"/>
      <point x="198" y="661" type="curve"/>
      <point x="172" y="677" type="line"/>
      <point x="102" y="629" type="line"/>
      <point x="83" y="630"/>
      <point x="65" y="631"/>
      <point x="47" y="633" type="curve"/>
      <point x="46" y="633" smooth="yes"/>
      <point x="45" y="632" smooth="yes"/>
      <point x="45" y="628" type="curve" smooth="yes"/>
      <point x="45" y="621"/>
      <point x="52" y="597"/>
      <point x="65" y="588" type="curve"/>
      <point x="79" y="584"/>
      <point x="93" y="580"/>
      <point x="108" y="577" type="curve"/>
      <point x="116" y="526"/>
      <point x="129" y="440"/>
      <point x="134" y="342" type="curve"/>
      <point x="113" y="343"/>
      <point x="93" y="345"/>
      <point x="72" y="349" type="curve"/>
      <point x="72" y="349" smooth="yes"/>
      <point x="69" y="349" smooth="yes"/>
      <point x="69" y="343" type="curve" smooth="yes"/>
      <point x="70" y="332"/>
      <point x="79" y="299"/>
      <point x="89" y="295" type="curve"/>
      <point x="104" y="291"/>
      <point x="119" y="288"/>
      <point x="135" y="285" type="curve"/>
      <point x="135" y="274" smooth="yes"/>
      <point x="136" y="264" smooth="yes"/>
      <point x="136" y="253" type="curve" smooth="yes"/>
      <point x="136" y="70"/>
      <point x="105" y="-28"/>
      <point x="106" y="-28" type="curve"/>
      <point x="106" y="-32" smooth="yes"/>
      <point x="108" y="-33" smooth="yes"/>
      <point x="117" y="-33" type="curve" smooth="yes" name="hr01"/>
      <point x="128" y="-33"/>
      <point x="155" y="-26"/>
      <point x="165" y="-14" type="curve"/>
      <point x="180" y="78"/>
      <point x="195" y="178"/>
      <point x="204" y="279" type="curve"/>
      <point x="214" y="278" smooth="yes"/>
      <point x="224" y="278" smooth="yes"/>
      <point x="234" y="278" type="curve" smooth="yes"/>
      <point x="274" y="278"/>
      <point x="316" y="284"/>
      <point x="355" y="290" type="curve"/>
    </contour>
  </outline>
</glyph>
<glyph name="G" format="1">
  <advance width="538"/>
  <unicode hex="0047"/>
  <outline>
    <contour>
      <point x="496" y="-14" type="curve" smooth="yes" name="hr00"/>
      <point x="485" y="31" smooth="yes"/>
      <point x="471" y="111" smooth="yes"/>
      <point x="471" y="192" type="curve" smooth="yes"/>
      <point x="471" y="261"/>
      <point x="482" y="325"/>
      <point x="503" y="365" type="curve"/>
      <point x="421" y="402" type="line"/>
      <point x="397" y="386" type="line"/>
      <point x="391" y="352" smooth="yes"/>
      <point x="387" y="316" smooth="yes"/>
      <point x="387" y="285" type="curve" smooth="yes"/>
      <point x="387" y="260"/>
      <point x="388" y="236"/>
      <point x="391" y="212" type="curve"/>
      <point x="361" y="108" smooth="yes"/>
      <point x="309" y="55" smooth="yes"/>
      <point x="243" y="55" type="curve" smooth="yes"/>
      <point x="181" y="55" smooth="yes"/>
      <point x="119" y="133" smooth="yes"/>
      <point x="119" y="307" type="curve" smooth="yes"/>
      <point x="119" y="420" smooth="yes"/>
      <point x="174" y="569" smooth="yes"/>
      <point x="371" y="569" type="curve" smooth="yes"/>
      <point x="389" y="569"/>
      <point x="409" y="568"/>
      <point x="430" y="565" type="curve"/>
      <point x="463" y="651" type="line"/>
      <point x="446" y="677" type="line"/>
      <point x="133" y="629" smooth="yes"/>
      <point x="30" y="416" smooth="yes"/>
      <point x="30" y="252" type="curve" smooth="yes"/>
      <point x="30" y="85" smooth="yes"/>
      <point x="99" y="-32" smooth="yes"/>
      <point x="218" y="-32" type="curve" smooth="yes"/>
      <point x="296" y="-32"/>
      <point x="364" y="26"/>
      <point x="406" y="129" type="curve"/>
      <point x="417" y="84"/>
      <point x="433" y="41"/>
      <point x="452" y="-4" type="curve"/>
      <point x="459" y="-13"/>
      <point x="479" y="-18"/>
      <point x="487" y="-19" type="curve"/>
      <point x="495" y="-18" smooth="yes"/>
      <point x="496" y="-16" smooth="yes"/>
    </contour>
  </outline>
</glyph>
<glyph name="H" format="1">
  <advance width="611"/>
  <unicode hex="0048"/>
  <outline>
    <contour>
      <point x="530" y="-31" type="curve" smooth="yes"/>
      <point x="522" y="34" smooth="yes"/>
      <point x="515" y="150" smooth="yes"/>
      <point x="515" y="273" type="curve" smooth="yes"/>
      <point x="515" y="417"/>
      <point x="525" y="544"/>
      <point x="561" y="636" type="curve"/>
      <point x="476" y="677" type="line"/>
      <point x="450" y="661" type="line"/>
      <point x="438" y="584" smooth="yes"/>
      <point x="431" y="509" smooth="yes"/>
      <point x="431" y="432" type="curve" smooth="yes"/>
      <point x="431" y="411"/>
      <point x="431" y="390"/>
      <point x="432" y="369" type="curve"/>
      <point x="364" y="338"/>
      <point x="281" y="326"/>
      <point x="208" y="323" type="curve"/>
      <point x="211" y="368" smooth="yes"/>
      <point x="213" y="413" smooth="yes"/>
      <point x="213" y="458" type="curve" smooth="yes"/>
      <point x="213" y="527"/>
      <point x="209" y="596"/>
      <point x="198" y="661" type="curve"/>
      <point x="172" y="677" type="line"/>
      <point x="85" y="636" type="line"/>
      <point x="85" y="636"/>
      <point x="124" y="495"/>
      <point x="134" y="325" type="curve"/>
      <point x="93" y="329" smooth="yes"/>
      <point x="72" y="338" smooth="yes"/>
      <point x="64" y="338" type="curve" smooth="yes"/>
      <point x="62" y="338" smooth="yes"/>
      <point x="60" y="337" smooth="yes"/>
      <point x="60" y="329" type="curve" smooth="yes"/>
      <point x="60" y="321"/>
      <point x="65" y="297"/>
      <point x="75" y="288" type="curve"/>
      <point x="98" y="282"/>
      <point x="117" y="278"/>
      <point x="135" y="276" type="curve"/>
      <point x="135" y="268" smooth="yes"/>
      <point x="136" y="260" smooth="yes"/>
      <point x="136" y="253" type="curve" smooth="yes"/>
      <point x="136" y="70"/>
      <point x="105" y="-28"/>
      <point x="106" y="-28" type="curve"/>
      <point x="106" y="-32" smooth="yes"/>
      <point x="108" y="-33" smooth="yes"/>
      <point x="117" y="-33" type="curve" smooth="yes" name="hr01"/>
      <point x="128" y="-33"/>
      <point x="155" y="-26"/>
      <point x="165" y="-14" type="curve"/>
      <point x="180" y="75"/>
      <point x="195" y="172"/>
      <point x="204" y="270" type="curve"/>
      <point x="215" y="269" smooth="yes"/>
      <point x="226" y="269" smooth="yes"/>
      <point x="237" y="269" type="curve" smooth="yes"/>
      <point x="304" y="269"/>
      <point x="372" y="279"/>
      <point x="437" y="292" type="curve"/>
      <point x="445" y="191"/>
      <point x="462" y="88"/>
      <point x="483" y="-19" type="curve"/>
      <point x="491" y="-28" smooth="yes"/>
      <point x="512" y="-34" smooth="yes"/>
      <point x="522" y="-34" type="curve" smooth="yes" name="hr02"/>
      <point x="529" y="-34" smooth="yes"/>
      <point x="530" y="-33" smooth="yes"/>
    </contour>
  </outline>
</glyph>
<glyph name="I" format="1">
  <advance width="261"/>
  <unicode hex="0049"/>
  <outline>
    <contour>
      <point x="144" y="-17" type="curve" name="hr00"/>
      <point x="172" y="122"/>
      <point x="191" y="454"/>
      <point x="196" y="631" type="curve"/>
      <point x="106" y="677" type="line"/>
      <point x="80" y="659" type="line"/>
      <point x="100" y="532" smooth="yes"/>
      <point x="109" y="369" smooth="yes"/>
      <point x="109" y="235" type="curve" smooth="yes"/>
      <point x="109" y="153" smooth="yes"/>
      <point x="104" y="66" smooth="yes"/>
      <point x="90" y="-29" type="curve" smooth="yes"/>
      <point x="90" y="-31" smooth="yes"/>
      <point x="91" y="-33" smooth="yes"/>
      <point x="98" y="-33" type="curve" smooth="yes"/>
      <point x="109" y="-33"/>
      <point x="136" y="-26"/>
    </contour>
  </outline>
</glyph>
<glyph name="J" format="1">
  <advance width="397"/>
  <unicode hex="004A"/>
  <outline>
    <contour>
      <point x="-59" y="-74" type="line" name="hr00"/>
      <point x="-52" y="-171" smooth="yes"/>
      <point x="-6" y="-216" smooth="yes"/>
      <point x="48" y="-216" type="curve" smooth="yes"/>
      <point x="117" y="-216" smooth="yes"/>
      <point x="199" y="-145" smooth="yes"/>
      <point x="234" y="-19" type="curve" smooth="yes"/>
      <point x="271" y="115"/>
      <point x="286" y="411"/>
      <point x="293" y="573" type="curve"/>
      <point x="314" y="582"/>
      <point x="335" y="594"/>
      <point x="357" y="607" type="curve"/>
      <point x="366" y="615" smooth="yes"/>
      <point x="372" y="636" smooth="yes"/>
      <point x="372" y="645" type="curve" smooth="yes"/>
      <point x="372" y="653" smooth="yes"/>
      <point x="370" y="654" smooth="yes"/>
      <point x="368" y="654" type="curve" smooth="yes"/>
      <point x="331" y="642" smooth="yes"/>
      <point x="272" y="627" smooth="yes"/>
      <point x="213" y="627" type="curve" smooth="yes"/>
      <point x="163" y="627"/>
      <point x="120" y="635"/>
      <point x="86" y="661" type="curve"/>
      <point x="60" y="575" type="line"/>
      <point x="71" y="549" type="line"/>
      <point x="96" y="543" smooth="yes"/>
      <point x="122" y="540" smooth="yes"/>
      <point x="146" y="540" type="curve" smooth="yes"/>
      <point x="158" y="540"/>
      <point x="171" y="540"/>
      <point x="183" y="542" type="curve"/>
      <point x="191" y="451" smooth="yes"/>
      <point x="195" y="317" smooth="yes"/>
      <point x="195" y="257" type="curve" smooth="yes"/>
      <point x="195" y="-38" smooth="yes"/>
      <point x="133" y="-137" smooth="yes"/>
      <point x="87" y="-137" type="curve" smooth="yes"/>
      <point x="60" y="-137"/>
      <point x="38" y="-102"/>
      <point x="38" y="-52" type="curve"/>
      <point x="15" y="-38" type="line"/>
    </contour>
  </outline>
</glyph>
<glyph name="K" format="1">
  <advance width="491"/>
  <unicode hex="004B"/>
  <outline>
    <contour>
      <point x="139" y="-12" type="curve"/>
      <point x="150" y="42"/>
      <point x="159" y="124"/>
      <point x="167" y="214" type="curve"/>
      <point x="184" y="240"/>
      <point x="202" y="265"/>
      <point x="219" y="289" type="curve"/>
      <point x="288" y="167"/>
      <point x="373" y="30"/>
      <point x="435" y="-30" type="curve"/>
      <point x="439" y="-31" smooth="yes"/>
      <point x="443" y="-31" smooth="yes"/>
      <point x="447" y="-31" type="curve" smooth="yes"/>
      <point x="463" y="-31"/>
      <point x="480" y="-26"/>
      <point x="480" y="-19" type="curve"/>
      <point x="414" y="68"/>
      <point x="311" y="268"/>
      <point x="278" y="369" type="curve"/>
      <point x="341" y="454"/>
      <point x="409" y="539"/>
      <point x="491" y="640" type="curve"/>
      <point x="462" y="663" type="line"/>
      <point x="375" y="643" type="line"/>
      <point x="302" y="539"/>
      <point x="236" y="422"/>
      <point x="174" y="309" type="curve"/>
      <point x="183" y="426"/>
      <point x="188" y="546"/>
      <point x="191" y="631" type="curve" name="hr01"/>
      <point x="101" y="677" type="line"/>
      <point x="75" y="659" type="line"/>
      <point x="95" y="532" smooth="yes"/>
      <point x="104" y="369" smooth="yes"/>
      <point x="104" y="235" type="curve" smooth="yes"/>
      <point x="104" y="153" smooth="yes"/>
      <point x="99" y="71" smooth="yes"/>
      <point x="85" y="-24" type="curve" smooth="yes"/>
      <point x="85" y="-26" smooth="yes"/>
      <point x="86" y="-28" smooth="yes"/>
      <point x="93" y="-28" type="curve" smooth="yes"/>
      <point x="104" y="-28"/>
      <point x="131" y="-21"/>
    </contour>
  </outline>
</glyph>
<glyph name="L" format="1">
  <advance width="422"/>
  <unicode hex="004C"/>
  <outline>
    <contour>
      <point x="137" y="0" type="line"/>
      <point x="190" y="-14" smooth="yes"/>
      <point x="243" y="-19" smooth="yes"/>
      <point x="298" y="-19" type="curve" smooth="yes"/>
      <point x="332" y="-19"/>
      <point x="367" y="-18"/>
      <point x="404" y="-14" type="curve"/>
      <point x="437" y="72" type="line"/>
      <point x="420" y="98" type="line"/>
      <point x="343" y="57" smooth="yes"/>
      <point x="260" y="46" smooth="yes"/>
      <point x="178" y="46" type="curve" smooth="yes"/>
      <point x="167" y="46"/>
      <point x="156" y="47"/>
      <point x="145" y="47" type="curve"/>
      <point x="171" y="205"/>
      <point x="190" y="476"/>
      <point x="197" y="631" type="curve"/>
      <point x="108" y="677" type="line"/>
      <point x="82" y="659" type="line"/>
      <point x="97" y="552" smooth="yes"/>
      <point x="104" y="421" smooth="yes"/>
      <point x="104" y="302" type="curve" smooth="yes"/>
      <point x="104" y="195" smooth="yes"/>
      <point x="100" y="97" smooth="yes"/>
      <point x="80" y="-24" type="curve" smooth="yes"/>
      <point x="80" y="-26" smooth="yes"/>
      <point x="81" y="-28" smooth="yes"/>
      <point x="88" y="-28" type="curve" smooth="yes" name="hr01"/>
      <point x="99" y="-28"/>
      <point x="126" y="-21"/>
      <point x="134" y="-12" type="curve"/>
    </contour>
  </outline>
</glyph>
<glyph name="M" format="1">
  <advance width="761"/>
  <unicode hex="004D"/>
  <outline>
    <contour>
      <point x="680" y="-31" type="curve" smooth="yes"/>
      <point x="672" y="34" smooth="yes"/>
      <point x="665" y="150" smooth="yes"/>
      <point x="665" y="273" type="curve" smooth="yes"/>
      <point x="665" y="417"/>
      <point x="675" y="544"/>
      <point x="711" y="636" type="curve"/>
      <point x="626" y="677" type="line"/>
      <point x="600" y="661" type="line"/>
      <point x="600" y="660" smooth="yes"/>
      <point x="599" y="659" smooth="yes"/>
      <point x="599" y="658" type="curve" smooth="yes"/>
      <point x="509" y="482"/>
      <point x="438" y="335"/>
      <point x="381" y="182" type="curve"/>
      <point x="331" y="347"/>
      <point x="275" y="507"/>
      <point x="207" y="661" type="curve"/>
      <point x="181" y="677" type="line"/>
      <point x="78" y="636" type="line"/>
      <point x="78" y="636" smooth="yes"/>
      <point x="106" y="479" smooth="yes"/>
      <point x="106" y="297" type="curve" smooth="yes"/>
      <point x="106" y="86"/>
      <point x="74" y="-24"/>
      <point x="76" y="-24" type="curve"/>
      <point x="76" y="-27" smooth="yes"/>
      <point x="77" y="-28" smooth="yes"/>
      <point x="87" y="-28" type="curve" smooth="yes" name="hr01"/>
      <point x="97" y="-28"/>
      <point x="124" y="-21"/>
      <point x="136" y="-9" type="curve"/>
      <point x="163" y="96"/>
      <point x="192" y="350"/>
      <point x="203" y="535" type="curve"/>
      <point x="252" y="378"/>
      <point x="299" y="196"/>
      <point x="320" y="6" type="curve"/>
      <point x="415" y="-35" type="line" name="hr02"/>
      <point x="437" y="-19" type="line"/>
      <point x="425" y="26" type="line"/>
      <point x="457" y="196"/>
      <point x="502" y="338"/>
      <point x="584" y="529" type="curve"/>
      <point x="582" y="497" smooth="yes"/>
      <point x="581" y="464" smooth="yes"/>
      <point x="581" y="432" type="curve" smooth="yes"/>
      <point x="581" y="286"/>
      <point x="602" y="138"/>
      <point x="633" y="-19" type="curve"/>
      <point x="641" y="-28" smooth="yes"/>
      <point x="662" y="-34" smooth="yes"/>
      <point x="672" y="-34" type="curve" smooth="yes" name="hr03"/>
      <point x="679" y="-34" smooth="yes"/>
      <point x="680" y="-33" smooth="yes"/>
    </contour>
  </outline>
</glyph>
<glyph name="N" format="1">
  <advance width="588"/>
  <unicode hex="004E"/>
  <outline>
    <contour>
      <point x="68" y="636" type="line"/>
      <point x="68" y="636" smooth="yes"/>
      <point x="106" y="479" smooth="yes"/>
      <point x="106" y="297" type="curve" smooth="yes"/>
      <point x="106" y="86"/>
      <point x="64" y="-24"/>
      <point x="66" y="-24" type="curve"/>
      <point x="66" y="-27" smooth="yes"/>
      <point x="67" y="-28" smooth="yes"/>
      <point x="77" y="-28" type="curve" smooth="yes" name="hr01"/>
      <point x="87" y="-28"/>
      <point x="114" y="-21"/>
      <point x="126" y="-9" type="curve"/>
      <point x="160" y="123"/>
      <point x="183" y="300"/>
      <point x="183" y="468" type="curve"/>
      <point x="262" y="293" smooth="yes"/>
      <point x="353" y="139" smooth="yes"/>
      <point x="457" y="-14" type="curve" smooth="yes"/>
      <point x="464" y="-25" smooth="yes"/>
      <point x="486" y="-28" smooth="yes"/>
      <point x="495" y="-28" type="curve" smooth="yes"/>
      <point x="503" y="-28" smooth="yes"/>
      <point x="504" y="-27" smooth="yes"/>
      <point x="504" y="-25" type="curve" smooth="yes"/>
      <point x="498" y="33" smooth="yes"/>
      <point x="494" y="103" smooth="yes"/>
      <point x="494" y="178" type="curve" smooth="yes"/>
      <point x="494" y="339"/>
      <point x="511" y="520"/>
      <point x="558" y="636" type="curve"/>
      <point x="482" y="677" type="line"/>
      <point x="457" y="661" type="line"/>
      <point x="435" y="547" smooth="yes"/>
      <point x="423" y="436" smooth="yes"/>
      <point x="423" y="325" type="curve" smooth="yes"/>
      <point x="423" y="259"/>
      <point x="427" y="194"/>
      <point x="436" y="129" type="curve"/>
      <point x="355" y="257"/>
      <point x="262" y="452"/>
      <point x="202" y="661" type="curve"/>
      <point x="176" y="677" type="line"/>
    </contour>
  </outline>
</glyph>
<glyph name="O" format="1">
  <advance width="581"/>
  <unicode hex="004F"/>
  <outline>
    <contour>
      <point x="448" y="676" type="line" name="hr00"/>
      <point x="128" y="642" smooth="yes"/>
      <point x="30" y="431" smooth="yes"/>
      <point x="30" y="263" type="curve" smooth="yes"/>
      <point x="30" y="71" smooth="yes"/>
      <point x="142" y="-34" smooth="yes"/>
      <point x="274" y="-34" type="curve" smooth="yes"/>
      <point x="477" y="-34" smooth="yes"/>
      <point x="551" y="140" smooth="yes"/>
      <point x="551" y="301" type="curve" smooth="yes"/>
      <point x="551" y="423"/>
      <point x="500" y="538"/>
      <point x="436" y="593" type="curve"/>
      <point x="465" y="651" type="line"/>
    </contour>
    <contour>
      <point x="299" y="49" type="curve"/>
      <point x="208" y="49" smooth="yes"/>
      <point x="126" y="138" smooth="yes"/>
      <point x="126" y="291" type="curve" smooth="yes"/>
      <point x="126" y="447"/>
      <point x="202" y="558"/>
      <point x="377" y="583" type="curve"/>
      <point x="451" y="509" smooth="yes"/>
      <point x="487" y="373" smooth="yes"/>
      <point x="487" y="281" type="curve" smooth="yes"/>
      <point x="487" y="156" smooth="yes"/>
      <point x="425" y="53" smooth="yes"/>
    </contour>
  </outline>
</glyph>
<glyph name="P" format="1">
  <advance width="480"/>
  <unicode hex="0050"/>
  <outline>
    <contour>
      <point x="72" y="210" type="curve" name="hr00"/>
      <point x="92" y="209"/>
      <point x="116" y="209"/>
      <point x="139" y="209" type="curve"/>
      <point x="138" y="111" smooth="yes"/>
      <point x="130" y="22" smooth="yes"/>
      <point x="125" y="-31" type="curve" smooth="yes"/>
      <point x="125" y="-33" smooth="yes"/>
      <point x="126" y="-34" smooth="yes"/>
      <point x="134" y="-34" type="curve" smooth="yes"/>
      <point x="143" y="-34"/>
      <point x="164" y="-28"/>
      <point x="173" y="-19" type="curve"/>
      <point x="182" y="54"/>
      <point x="192" y="132"/>
      <point x="199" y="211" type="curve"/>
      <point x="423" y="228" smooth="yes"/>
      <point x="485" y="329" smooth="yes"/>
      <point x="485" y="409" type="curve" smooth="yes"/>
      <point x="485" y="553"/>
      <point x="290" y="563"/>
      <point x="106" y="689" type="curve"/>
      <point x="59" y="622" type="line"/>
      <point x="119" y="552"/>
      <point x="137" y="397"/>
      <point x="139" y="254" type="curve"/>
      <point x="100" y="254" smooth="yes"/>
      <point x="79" y="254" smooth="yes"/>
      <point x="58" y="258" type="curve" smooth="yes"/>
      <point x="56" y="258" smooth="yes"/>
      <point x="55" y="257" smooth="yes"/>
      <point x="55" y="250" type="curve" smooth="yes"/>
      <point x="55" y="242"/>
      <point x="59" y="222"/>
    </contour>
    <contour>
      <point x="206" y="369" type="curve" smooth="yes"/>
      <point x="206" y="439"/>
      <point x="202" y="504"/>
      <point x="189" y="577" type="curve"/>
      <point x="298" y="528" smooth="yes"/>
      <point x="384" y="491" smooth="yes"/>
      <point x="384" y="403" type="curve" smooth="yes"/>
      <point x="384" y="339"/>
      <point x="328" y="278"/>
      <point x="202" y="259" type="curve"/>
      <point x="205" y="296" smooth="yes"/>
      <point x="206" y="333" smooth="yes"/>
    </contour>
  </outline>
</glyph>
<glyph name="Q" format="1">
  <advance width="581"/>
  <unicode hex="0051"/>
  <outline>
    <contour>
      <point x="448" y="676" type="line" name="hr00"/>
      <point x="128" y="642" smooth="yes"/>
      <point x="30" y="431" smooth="yes"/>
      <point x="30" y="263" type="curve" smooth="yes"/>
      <point x="30" y="96"/>
      <point x="114" y="-4"/>
      <point x="223" y="-28" type="curve"/>
      <point x="193" y="-62"/>
      <point x="159" y="-94"/>
      <point x="119" y="-124" type="curve"/>
      <point x="94" y="-131"/>
      <point x="69" y="-138"/>
      <point x="44" y="-147" type="curve"/>
      <point x="35" y="-157"/>
      <point x="28" y="-173"/>
      <point x="27" y="-181" type="curve"/>
      <point x="37" y="-196"/>
      <point x="55" y="-206"/>
      <point x="65" y="-206" type="curve"/>
      <point x="83" y="-199"/>
      <point x="102" y="-190"/>
      <point x="121" y="-179" type="curve"/>
      <point x="139" y="-178" smooth="yes"/>
      <point x="159" y="-178" smooth="yes"/>
      <point x="179" y="-178" type="curve" smooth="yes"/>
      <point x="270" y="-178"/>
      <point x="359" y="-193"/>
      <point x="409" y="-224" type="curve"/>
      <point x="451" y="-145" type="line"/>
      <point x="437" y="-120" type="line"/>
      <point x="386" y="-106" smooth="yes"/>
      <point x="335" y="-101" smooth="yes"/>
      <point x="290" y="-101" type="curve" smooth="yes"/>
      <point x="269" y="-101"/>
      <point x="248" y="-102"/>
      <point x="228" y="-104" type="curve"/>
      <point x="253" y="-82"/>
      <point x="278" y="-58"/>
      <point x="300" y="-33" type="curve"/>
      <point x="483" y="-18" smooth="yes"/>
      <point x="551" y="147" smooth="yes"/>
      <point x="551" y="301" type="curve" smooth="yes"/>
      <point x="551" y="423"/>
      <point x="500" y="538"/>
      <point x="436" y="593" type="curve"/>
      <point x="465" y="651" type="line"/>
    </contour>
    <contour>
      <point x="299" y="49" type="curve" smooth="yes"/>
      <point x="208" y="49" smooth="yes"/>
      <point x="126" y="138" smooth="yes"/>
      <point x="126" y="291" type="curve" smooth="yes"/>
      <point x="126" y="447"/>
      <point x="202" y="558"/>
      <point x="377" y="583" type="curve"/>
      <point x="451" y="509" smooth="yes"/>
      <point x="487" y="373" smooth="yes"/>
      <point x="487" y="281" type="curve" smooth="yes"/>
      <point x="487" y="156" smooth="yes"/>
      <point x="425" y="49" smooth="yes"/>
    </contour>
  </outline>
</glyph>
<glyph name="R" format="1">
  <advance width="528"/>
  <unicode hex="0052"/>
  <outline>
    <contour>
      <point x="72" y="235" type="curve" name="hr00"/>
      <point x="92" y="234"/>
      <point x="116" y="234"/>
      <point x="139" y="234" type="curve"/>
      <point x="139" y="126" smooth="yes"/>
      <point x="131" y="26" smooth="yes"/>
      <point x="125" y="-31" type="curve" smooth="yes"/>
      <point x="125" y="-33" smooth="yes"/>
      <point x="126" y="-34" smooth="yes"/>
      <point x="134" y="-34" type="curve" smooth="yes"/>
      <point x="143" y="-34"/>
      <point x="164" y="-28"/>
      <point x="173" y="-19" type="curve"/>
      <point x="183" y="62"/>
      <point x="195" y="149"/>
      <point x="201" y="236" type="curve"/>
      <point x="234" y="239"/>
      <point x="264" y="243"/>
      <point x="291" y="249" type="curve"/>
      <point x="355" y="139"/>
      <point x="428" y="24"/>
      <point x="483" y="-30" type="curve"/>
      <point x="487" y="-31" smooth="yes"/>
      <point x="491" y="-31" smooth="yes"/>
      <point x="495" y="-31" type="curve" smooth="yes"/>
      <point x="511" y="-31"/>
      <point x="528" y="-26"/>
      <point x="528" y="-19" type="curve"/>
      <point x="479" y="45"/>
      <point x="411" y="170"/>
      <point x="365" y="272" type="curve"/>
      <point x="456" y="311" smooth="yes"/>
      <point x="485" y="373" smooth="yes"/>
      <point x="485" y="425" type="curve" smooth="yes"/>
      <point x="485" y="561"/>
      <point x="290" y="570"/>
      <point x="106" y="689" type="curve"/>
      <point x="59" y="622" type="line"/>
      <point x="115" y="556"/>
      <point x="135" y="415"/>
      <point x="138" y="279" type="curve"/>
      <point x="100" y="279" smooth="yes"/>
      <point x="79" y="279" smooth="yes"/>
      <point x="58" y="283" type="curve" smooth="yes"/>
      <point x="56" y="283" smooth="yes"/>
      <point x="55" y="282" smooth="yes"/>
      <point x="55" y="275" type="curve" smooth="yes"/>
      <point x="55" y="267"/>
      <point x="59" y="247"/>
    </contour>
    <contour>
      <point x="206" y="369" type="curve" smooth="yes"/>
      <point x="206" y="439"/>
      <point x="202" y="504"/>
      <point x="189" y="577" type="curve"/>
      <point x="298" y="532" smooth="yes"/>
      <point x="384" y="498" smooth="yes"/>
      <point x="384" y="416" type="curve" smooth="yes"/>
      <point x="384" y="357"/>
      <point x="328" y="301"/>
      <point x="203" y="284" type="curve"/>
      <point x="205" y="313" smooth="yes"/>
      <point x="206" y="341" smooth="yes"/>
    </contour>
  </outline>
</glyph>
<glyph name="S" format="1">
  <advance width="438"/>
  <unicode hex="0053"/>
  <outline>
    <contour>
      <point x="408" y="638" type="line" name="hr00"/>
      <point x="391" y="664" type="line"/>
      <point x="85" y="621" smooth="yes"/>
      <point x="43" y="513" smooth="yes"/>
      <point x="43" y="460" type="curve" smooth="yes"/>
      <point x="43" y="330" smooth="yes"/>
      <point x="287" y="259" smooth="yes"/>
      <point x="287" y="138" type="curve" smooth="yes"/>
      <point x="287" y="67" smooth="yes"/>
      <point x="211" y="17" smooth="yes"/>
      <point x="98" y="17" type="curve" smooth="yes"/>
      <point x="40" y="17" smooth="yes"/>
      <point x="10" y="32" smooth="yes"/>
      <point x="1" y="32" type="curve" smooth="yes"/>
      <point x="0" y="32" smooth="yes"/>
      <point x="0" y="31" smooth="yes"/>
      <point x="0" y="25" type="curve" smooth="yes"/>
      <point x="0" y="18"/>
      <point x="4" y="0"/>
      <point x="11" y="-11" type="curve"/>
      <point x="63" y="-27" smooth="yes"/>
      <point x="92" y="-28" smooth="yes"/>
      <point x="129" y="-28" type="curve" smooth="yes"/>
      <point x="353" y="-28" smooth="yes"/>
      <point x="399" y="90" smooth="yes"/>
      <point x="399" y="155" type="curve" smooth="yes"/>
      <point x="399" y="307" smooth="yes"/>
      <point x="139" y="376" smooth="yes"/>
      <point x="139" y="491" type="curve" smooth="yes"/>
      <point x="139" y="556" smooth="yes"/>
      <point x="200" y="578" smooth="yes"/>
      <point x="262" y="578" type="curve" smooth="yes"/>
      <point x="303" y="578"/>
      <point x="345" y="568"/>
      <point x="375" y="552" type="curve"/>
    </contour>
  </outline>
</glyph>
<glyph name="T" format="1">
  <advance width="457"/>
  <unicode hex="0054"/>
  <outline>
    <contour>
      <point x="234" y="-19" type="curve" name="hr00"/>
      <point x="269" y="117"/>
      <point x="287" y="396"/>
      <point x="294" y="556" type="curve"/>
      <point x="345" y="568"/>
      <point x="395" y="585"/>
      <point x="447" y="607" type="curve"/>
      <point x="456" y="615" smooth="yes"/>
      <point x="462" y="636" smooth="yes"/>
      <point x="462" y="645" type="curve" smooth="yes"/>
      <point x="462" y="653" smooth="yes"/>
      <point x="460" y="654" smooth="yes"/>
      <point x="458" y="654" type="curve" smooth="yes"/>
      <point x="410" y="642" smooth="yes"/>
      <point x="325" y="627" smooth="yes"/>
      <point x="240" y="627" type="curve" smooth="yes"/>
      <point x="168" y="627"/>
      <point x="106" y="635"/>
      <point x="58" y="661" type="curve"/>
      <point x="20" y="575" type="line"/>
      <point x="36" y="549" type="line"/>
      <point x="72" y="543" smooth="yes"/>
      <point x="109" y="540" smooth="yes"/>
      <point x="143" y="540" type="curve" smooth="yes"/>
      <point x="160" y="540"/>
      <point x="177" y="540"/>
      <point x="194" y="541" type="curve"/>
      <point x="202" y="451" smooth="yes"/>
      <point x="206" y="317" smooth="yes"/>
      <point x="206" y="257" type="curve" smooth="yes"/>
      <point x="206" y="169" smooth="yes"/>
      <point x="201" y="73" smooth="yes"/>
      <point x="184" y="-30" type="curve" smooth="yes"/>
      <point x="184" y="-32" smooth="yes"/>
      <point x="185" y="-33" smooth="yes"/>
      <point x="191" y="-33" type="curve" smooth="yes"/>
      <point x="201" y="-33"/>
      <point x="225" y="-28"/>
    </contour>
  </outline>
</glyph>
<glyph name="U" format="1">
  <advance width="611"/>
  <unicode hex="0055"/>
  <outline>
    <contour>
      <point x="218" y="636" type="curve"/>
      <point x="133" y="677" type="line"/>
      <point x="107" y="661" type="line"/>
      <point x="95" y="589" smooth="yes"/>
      <point x="80" y="469" smooth="yes"/>
      <point x="80" y="349" type="curve" smooth="yes"/>
      <point x="80" y="158" smooth="yes"/>
      <point x="118" y="-33" smooth="yes"/>
      <point x="267" y="-33" type="curve" smooth="yes"/>
      <point x="373" y="-33"/>
      <point x="429" y="52"/>
      <point x="457" y="159" type="curve"/>
      <point x="465" y="101"/>
      <point x="476" y="41"/>
      <point x="488" y="-19" type="curve"/>
      <point x="496" y="-28" smooth="yes"/>
      <point x="517" y="-34" smooth="yes"/>
      <point x="527" y="-34" type="curve" smooth="yes" name="hr01"/>
      <point x="534" y="-34" smooth="yes"/>
      <point x="535" y="-33" smooth="yes"/>
      <point x="535" y="-31" type="curve" smooth="yes"/>
      <point x="527" y="34" smooth="yes"/>
      <point x="520" y="150" smooth="yes"/>
      <point x="520" y="273" type="curve" smooth="yes"/>
      <point x="520" y="417"/>
      <point x="530" y="544"/>
      <point x="566" y="636" type="curve"/>
      <point x="481" y="677" type="line"/>
      <point x="455" y="661" type="line"/>
      <point x="443" y="584" smooth="yes"/>
      <point x="436" y="509" smooth="yes"/>
      <point x="436" y="432" type="curve" smooth="yes"/>
      <point x="436" y="375"/>
      <point x="439" y="318"/>
      <point x="445" y="260" type="curve"/>
      <point x="431" y="157" smooth="yes"/>
      <point x="384" y="51" smooth="yes"/>
      <point x="300" y="51" type="curve" smooth="yes" name="hr02"/>
      <point x="200" y="51" smooth="yes"/>
      <point x="170" y="170" smooth="yes"/>
      <point x="170" y="305" type="curve" smooth="yes"/>
      <point x="170" y="431"/>
      <point x="197" y="570"/>
    </contour>
  </outline>
</glyph>
<glyph name="V" format="1">
  <advance width="478"/>
  <unicode hex="0056"/>
  <outline>
    <contour>
      <point x="242" y="-28" type="curve" name="hr00"/>
      <point x="321" y="20" type="line"/>
      <point x="378" y="440" smooth="yes"/>
      <point x="493" y="648" smooth="yes"/>
      <point x="493" y="672" type="curve" smooth="yes"/>
      <point x="493" y="675" smooth="yes"/>
      <point x="492" y="677" smooth="yes"/>
      <point x="489" y="677" type="curve" smooth="yes"/>
      <point x="477" y="677"/>
      <point x="452" y="669"/>
      <point x="440" y="658" type="curve"/>
      <point x="352" y="506"/>
      <point x="259" y="210"/>
      <point x="231" y="40" type="curve"/>
      <point x="173" y="211" smooth="yes"/>
      <point x="134" y="377" smooth="yes"/>
      <point x="134" y="560" type="curve" smooth="yes"/>
      <point x="134" y="593"/>
      <point x="135" y="627"/>
      <point x="138" y="661" type="curve"/>
      <point x="112" y="677" type="line"/>
      <point x="25" y="636" type="line"/>
      <point x="43" y="411"/>
      <point x="127" y="137"/>
      <point x="198" y="-9" type="curve"/>
      <point x="209" y="-22"/>
      <point x="231" y="-28"/>
    </contour>
  </outline>
</glyph>
<glyph name="W" format="1">
  <advance width="804"/>
  <unicode hex="0057"/>
  <outline>
    <contour>
      <point x="242" y="-28" type="curve" name="hr00"/>
      <point x="321" y="20" type="line"/>
      <point x="340" y="196"/>
      <point x="369" y="333"/>
      <point x="396" y="435" type="curve"/>
      <point x="431" y="264"/>
      <point x="488" y="95"/>
      <point x="539" y="-9" type="curve"/>
      <point x="550" y="-22"/>
      <point x="572" y="-28"/>
      <point x="583" y="-28" type="curve"/>
      <point x="662" y="20" type="line"/>
      <point x="707" y="440" smooth="yes"/>
      <point x="809" y="648" smooth="yes"/>
      <point x="809" y="672" type="curve" smooth="yes"/>
      <point x="809" y="675" smooth="yes"/>
      <point x="808" y="677" smooth="yes"/>
      <point x="805" y="677" type="curve" smooth="yes"/>
      <point x="793" y="677"/>
      <point x="768" y="669"/>
      <point x="756" y="658" type="curve"/>
      <point x="678" y="507"/>
      <point x="596" y="211"/>
      <point x="572" y="41" type="curve"/>
      <point x="514" y="212" smooth="yes"/>
      <point x="475" y="377" smooth="yes"/>
      <point x="475" y="560" type="curve" smooth="yes"/>
      <point x="475" y="593"/>
      <point x="476" y="627"/>
      <point x="479" y="661" type="curve"/>
      <point x="453" y="677" type="line"/>
      <point x="366" y="636" type="line"/>
      <point x="367" y="611"/>
      <point x="370" y="585"/>
      <point x="374" y="559" type="curve"/>
      <point x="310" y="401"/>
      <point x="251" y="181"/>
      <point x="231" y="41" type="curve"/>
      <point x="173" y="212" smooth="yes"/>
      <point x="134" y="377" smooth="yes"/>
      <point x="134" y="560" type="curve" smooth="yes"/>
      <point x="134" y="593"/>
      <point x="135" y="627"/>
      <point x="138" y="661" type="curve"/>
      <point x="112" y="677" type="line"/>
      <point x="25" y="636" type="line"/>
      <point x="43" y="411"/>
      <point x="127" y="137"/>
      <point x="198" y="-9" type="curve"/>
      <point x="209" y="-22"/>
      <point x="231" y="-28"/>
    </contour>
  </outline>
</glyph>
<glyph name="X" format="1">
  <advance width="509"/>
  <unicode hex="0058"/>
  <outline>
    <contour>
      <point x="59" y="-24" type="curve" smooth="yes"/>
      <point x="112" y="62"/>
      <point x="170" y="150"/>
      <point x="232" y="241" type="curve"/>
      <point x="292" y="139" smooth="yes"/>
      <point x="360" y="48" smooth="yes"/>
      <point x="424" y="-20" type="curve" smooth="yes"/>
      <point x="429" y="-26" smooth="yes"/>
      <point x="441" y="-33" smooth="yes"/>
      <point x="471" y="-33" type="curve" smooth="yes"/>
      <point x="475" y="-33"/>
      <point x="481" y="-30"/>
      <point x="481" y="-24" type="curve"/>
      <point x="413" y="84"/>
      <point x="342" y="201"/>
      <point x="286" y="318" type="curve"/>
      <point x="360" y="423"/>
      <point x="440" y="530"/>
      <point x="529" y="640" type="curve"/>
      <point x="500" y="663" type="line"/>
      <point x="413" y="643" type="line"/>
      <point x="358" y="565"/>
      <point x="304" y="484"/>
      <point x="250" y="399" type="curve"/>
      <point x="218" y="476"/>
      <point x="195" y="553"/>
      <point x="186" y="625" type="curve"/>
      <point x="101" y="668" type="line"/>
      <point x="75" y="650" type="line"/>
      <point x="94" y="536"/>
      <point x="138" y="418"/>
      <point x="195" y="310" type="curve"/>
      <point x="132" y="208"/>
      <point x="72" y="101"/>
      <point x="15" y="-8" type="curve"/>
      <point x="22" y="-20" smooth="yes"/>
      <point x="39" y="-28" smooth="yes"/>
      <point x="48" y="-28" type="curve" smooth="yes" name="hr01"/>
      <point x="54" y="-28" smooth="yes"/>
      <point x="58" y="-26" smooth="yes"/>
    </contour>
  </outline>
</glyph>
<glyph name="Y" format="1">
  <advance width="441"/>
  <unicode hex="0059"/>
  <outline>
    <contour>
      <point x="142" y="677" type="line" name="hr00"/>
      <point x="55" y="636" type="line"/>
      <point x="68" y="528"/>
      <point x="130" y="343"/>
      <point x="190" y="216" type="curve"/>
      <point x="191" y="137"/>
      <point x="199" y="54"/>
      <point x="213" y="-19" type="curve"/>
      <point x="220" y="-28" smooth="yes"/>
      <point x="248" y="-34" smooth="yes"/>
      <point x="258" y="-34" type="curve" smooth="yes"/>
      <point x="265" y="-34" smooth="yes"/>
      <point x="266" y="-33" smooth="yes"/>
      <point x="266" y="-31" type="curve" smooth="yes"/>
      <point x="266" y="-25" smooth="yes"/>
      <point x="262" y="-3" smooth="yes"/>
      <point x="262" y="87" type="curve" smooth="yes"/>
      <point x="262" y="135"/>
      <point x="264" y="179"/>
      <point x="268" y="218" type="curve"/>
      <point x="318" y="415" smooth="yes"/>
      <point x="491" y="658" smooth="yes"/>
      <point x="491" y="674" type="curve" smooth="yes"/>
      <point x="491" y="676" smooth="yes"/>
      <point x="488" y="679" smooth="yes"/>
      <point x="485" y="679" type="curve" smooth="yes"/>
      <point x="473" y="679" smooth="yes"/>
      <point x="449" y="673" smooth="yes"/>
      <point x="442" y="665" type="curve" smooth="yes"/>
      <point x="360" y="563"/>
      <point x="235" y="347"/>
      <point x="219" y="312" type="curve"/>
      <point x="186" y="419"/>
      <point x="168" y="540"/>
      <point x="168" y="661" type="curve"/>
    </contour>
  </outline>
</glyph>
<glyph name="Z" format="1">
  <advance width="480"/>
  <unicode hex="005A"/>
  <outline>
    <contour>
      <point x="434" y="668" type="line" name="hr00"/>
      <point x="357" y="629" type="line"/>
      <point x="333" y="627" smooth="yes"/>
      <point x="308" y="626" smooth="yes"/>
      <point x="282" y="626" type="curve" smooth="yes"/>
      <point x="200" y="626"/>
      <point x="111" y="631"/>
      <point x="46" y="660" type="curve"/>
      <point x="31" y="633" type="line"/>
      <point x="72" y="550" type="line"/>
      <point x="106" y="545" smooth="yes"/>
      <point x="141" y="543" smooth="yes"/>
      <point x="174" y="543" type="curve" smooth="yes"/>
      <point x="229" y="543"/>
      <point x="283" y="549"/>
      <point x="337" y="561" type="curve"/>
      <point x="290" y="372" smooth="yes"/>
      <point x="142" y="169" smooth="yes"/>
      <point x="7" y="13" type="curve" smooth="yes"/>
      <point x="0" y="6" type="line"/>
      <point x="19" y="-24" type="line"/>
      <point x="91" y="-13" smooth="yes"/>
      <point x="158" y="-8" smooth="yes"/>
      <point x="230" y="-8" type="curve" smooth="yes"/>
      <point x="297" y="-8"/>
      <point x="381" y="-13"/>
      <point x="459" y="-30" type="curve"/>
      <point x="460" y="-30" smooth="yes"/>
      <point x="461" y="-28" smooth="yes"/>
      <point x="461" y="-21" type="curve" smooth="yes"/>
      <point x="461" y="-10"/>
      <point x="456" y="20"/>
      <point x="449" y="29" type="curve"/>
      <point x="368" y="56"/>
      <point x="247" y="67"/>
      <point x="131" y="78" type="curve"/>
      <point x="265" y="227"/>
      <point x="423" y="431"/>
      <point x="460" y="650" type="curve"/>
    </contour>
  </outline>
</glyph>
<glyph name="bracketleft" format="1">
  <advance width="347"/>
  <unicode hex="005B"/>
  <outline>
    <contour>
      <point x="123" y="750" type="curve" name="hr00"/>
      <point x="100" y="646" smooth="yes"/>
      <point x="85" y="464" smooth="yes"/>
      <point x="85" y="355" type="curve" smooth="yes"/>
      <point x="85" y="217"/>
      <point x="95" y="77"/>
      <point x="114" y="-70" type="curve"/>
      <point x="134" y="-87" type="line"/>
      <point x="182" y="-87"/>
      <point x="241" y="-83"/>
      <point x="282" y="-76" type="curve"/>
      <point x="315" y="2" type="line"/>
      <point x="304" y="20" type="line"/>
      <point x="267" y="6"/>
      <point x="223" y="-9"/>
      <point x="158" y="-15" type="curve"/>
      <point x="158" y="58" type="line" smooth="yes"/>
      <point x="158" y="272"/>
      <point x="171" y="523"/>
      <point x="223" y="670" type="curve"/>
      <point x="263" y="667"/>
      <point x="302" y="660"/>
      <point x="341" y="650" type="curve"/>
      <point x="346" y="655" smooth="yes"/>
      <point x="347" y="665" smooth="yes"/>
      <point x="347" y="674" type="curve" smooth="yes"/>
      <point x="347" y="689"/>
      <point x="343" y="707"/>
      <point x="338" y="712" type="curve"/>
      <point x="285" y="737"/>
      <point x="204" y="750"/>
    </contour>
  </outline>
</glyph>
<glyph name="backslash" format="1">
  <advance width="460"/>
  <unicode hex="005C"/>
  <outline>
    <contour>
      <point x="412" y="-98" type="curve" smooth="yes" name="hr00"/>
      <point x="284" y="175"/>
      <point x="172" y="438"/>
      <point x="0" y="712" type="curve"/>
      <point x="32" y="738" type="line"/>
      <point x="115" y="716" type="line"/>
      <point x="241" y="441"/>
      <point x="353" y="176"/>
      <point x="460" y="-81" type="curve"/>
      <point x="452" y="-94" smooth="yes"/>
      <point x="434" y="-103" smooth="yes"/>
      <point x="424" y="-103" type="curve" smooth="yes"/>
      <point x="417" y="-103" smooth="yes"/>
      <point x="413" y="-100" smooth="yes"/>
    </contour>
  </outline>
</glyph>
<glyph name="bracketright" format="1">
  <advance width="347"/>
  <unicode hex="005D"/>
  <outline>
    <contour>
      <point x="224" y="-87" type="curve" name="hr00"/>
      <point x="247" y="17" smooth="yes"/>
      <point x="262" y="199" smooth="yes"/>
      <point x="262" y="308" type="curve" smooth="yes"/>
      <point x="262" y="446"/>
      <point x="252" y="586"/>
      <point x="233" y="733" type="curve"/>
      <point x="213" y="750" type="line"/>
      <point x="165" y="750"/>
      <point x="106" y="746"/>
      <point x="65" y="739" type="curve"/>
      <point x="32" y="661" type="line"/>
      <point x="43" y="643" type="line"/>
      <point x="80" y="657"/>
      <point x="124" y="672"/>
      <point x="189" y="678" type="curve"/>
      <point x="189" y="605" type="line" smooth="yes"/>
      <point x="189" y="391"/>
      <point x="176" y="140"/>
      <point x="124" y="-7" type="curve"/>
      <point x="84" y="-4"/>
      <point x="45" y="3"/>
      <point x="6" y="13" type="curve"/>
      <point x="1" y="8" smooth="yes"/>
      <point x="0" y="-2" smooth="yes"/>
      <point x="0" y="-11" type="curve" smooth="yes"/>
      <point x="0" y="-26"/>
      <point x="4" y="-44"/>
      <point x="9" y="-49" type="curve"/>
      <point x="62" y="-74"/>
      <point x="143" y="-87"/>
    </contour>
  </outline>
</glyph>
<glyph name="asciicircum" format="1">
  <advance width="500"/>
  <unicode hex="005E"/>
  <outline>
    <contour>
      <point x="278" y="564" type="line" name="hr00"/>
      <point x="301" y="474"/>
      <point x="340" y="377"/>
      <point x="382" y="305" type="curve"/>
      <point x="439" y="333" type="line"/>
      <point x="454" y="364" type="line"/>
      <point x="400" y="449"/>
      <point x="352" y="551"/>
      <point x="314" y="677" type="curve"/>
      <point x="254" y="677" type="line"/>
      <point x="192" y="551"/>
      <point x="120" y="449"/>
      <point x="50" y="364" type="curve"/>
      <point x="57" y="333" type="line"/>
      <point x="110" y="305" type="line"/>
      <point x="168" y="377"/>
      <point x="227" y="474"/>
      <point x="266" y="564" type="curve"/>
    </contour>
  </outline>
</glyph>
<glyph name="underscore" format="1">
  <advance width="445"/>
  <unicode hex="005F"/>
  <outline>
    <contour>
      <point x="445" y="-25" type="line" name="hr00"/>
      <point x="434" y="-7" type="line"/>
      <point x="377" y="-25" smooth="yes"/>
      <point x="294" y="-45" smooth="yes"/>
      <point x="158" y="-45" type="curve" smooth="yes"/>
      <point x="104" y="-45"/>
      <point x="58" y="-43"/>
      <point x="6" y="-37" type="curve"/>
      <point x="6" y="-37"/>
      <point x="0" y="-37"/>
      <point x="0" y="-43" type="curve"/>
      <point x="3" y="-56"/>
      <point x="18" y="-91"/>
      <point x="32" y="-97" type="curve"/>
      <point x="98" y="-109" smooth="yes"/>
      <point x="169" y="-114" smooth="yes"/>
      <point x="235" y="-114" type="curve" smooth="yes"/>
      <point x="296" y="-114"/>
      <point x="354" y="-110"/>
      <point x="412" y="-103" type="curve"/>
    </contour>
  </outline>
</glyph>
<glyph name="grave" format="1">
  <advance width="319"/>
  <unicode hex="0060"/>
  <outline>
    <contour>
      <point x="62" y="707" type="line" name="hr00"/>
      <point x="78" y="717" type="line"/>
      <point x="117" y="664"/>
      <point x="179" y="601"/>
      <point x="269" y="560" type="curve"/>
      <point x="269" y="545"/>
      <point x="245" y="523"/>
      <point x="236" y="522" type="curve"/>
      <point x="162" y="545"/>
      <point x="110" y="569"/>
      <point x="50" y="620" type="curve"/>
    </contour>
  </outline>
</glyph>
<glyph name="a" format="1">
  <advance width="470"/>
  <unicode hex="0061"/>
  <outline>
    <contour>
      <point x="317" y="458" type="line" smooth="yes"/>
      <point x="182" y="398" smooth="yes"/>
      <point x="24" y="273" smooth="yes"/>
      <point x="24" y="91" type="curve" smooth="yes"/>
      <point x="24" y="25" smooth="yes"/>
      <point x="50" y="-22" smooth="yes"/>
      <point x="110" y="-22" type="curve" smooth="yes"/>
      <point x="179" y="-22"/>
      <point x="264" y="71"/>
      <point x="320" y="204" type="curve"/>
      <point x="330" y="127"/>
      <point x="347" y="41"/>
      <point x="371" y="-14" type="curve"/>
      <point x="379" y="-22" smooth="yes"/>
      <point x="399" y="-28" smooth="yes"/>
      <point x="408" y="-28" type="curve" smooth="yes" name="hr01"/>
      <point x="414" y="-28" smooth="yes"/>
      <point x="415" y="-27" smooth="yes"/>
      <point x="415" y="-25" type="curve" smooth="yes"/>
      <point x="404" y="20" smooth="yes"/>
      <point x="389" y="184" smooth="yes"/>
      <point x="389" y="255" type="curve" smooth="yes"/>
      <point x="389" y="330"/>
      <point x="402" y="420"/>
      <point x="422" y="479" type="curve"/>
      <point x="398" y="493" type="line"/>
    </contour>
    <contour>
      <point x="168" y="98" type="curve" smooth="yes" name="hr02"/>
      <point x="129" y="98" smooth="yes"/>
      <point x="118" y="129" smooth="yes"/>
      <point x="118" y="172" type="curve" smooth="yes"/>
      <point x="118" y="284"/>
      <point x="218" y="356"/>
      <point x="310" y="408" type="curve"/>
      <point x="309" y="389" smooth="yes"/>
      <point x="309" y="366" smooth="yes"/>
      <point x="309" y="333" type="curve" smooth="yes"/>
      <point x="309" y="322"/>
      <point x="309" y="309"/>
      <point x="310" y="295" type="curve"/>
      <point x="267" y="163" smooth="yes"/>
      <point x="208" y="98" smooth="yes"/>
    </contour>
  </outline>
</glyph>
<glyph name="b" format="1">
  <advance width="473"/>
  <unicode hex="0062"/>
  <outline>
    <contour>
      <point x="163" y="308" type="line" name="hr00"/>
      <point x="171" y="378" smooth="yes"/>
      <point x="178" y="450" smooth="yes"/>
      <point x="178" y="518" type="curve" smooth="yes"/>
      <point x="178" y="573"/>
      <point x="175" y="626"/>
      <point x="168" y="674" type="curve"/>
      <point x="87" y="712" type="line"/>
      <point x="63" y="696" type="line"/>
      <point x="80" y="635" smooth="yes"/>
      <point x="101" y="511" smooth="yes"/>
      <point x="101" y="379" type="curve" smooth="yes"/>
      <point x="101" y="265"/>
      <point x="90" y="129"/>
      <point x="54" y="-24" type="curve"/>
      <point x="54" y="-28" smooth="yes"/>
      <point x="55" y="-31" smooth="yes"/>
      <point x="63" y="-31" type="curve" smooth="yes"/>
      <point x="257" y="-31" smooth="yes"/>
      <point x="442" y="194" smooth="yes"/>
      <point x="442" y="378" type="curve" smooth="yes"/>
      <point x="442" y="444" smooth="yes"/>
      <point x="417" y="491" smooth="yes"/>
      <point x="356" y="491" type="curve" smooth="yes"/>
      <point x="296" y="491"/>
      <point x="225" y="416"/>
      <point x="170" y="303" type="curve"/>
    </contour>
    <contour>
      <point x="137" y="109" type="line" smooth="yes"/>
      <point x="175" y="284" smooth="yes"/>
      <point x="251" y="371" smooth="yes"/>
      <point x="299" y="371" type="curve" smooth="yes"/>
      <point x="337" y="371" smooth="yes"/>
      <point x="348" y="340" smooth="yes"/>
      <point x="348" y="296" type="curve" smooth="yes"/>
      <point x="348" y="216"/>
      <point x="283" y="80"/>
      <point x="119" y="25" type="curve"/>
    </contour>
  </outline>
</glyph>
<glyph name="c" format="1">
  <advance width="408"/>
  <unicode hex="0063"/>
  <outline>
    <contour>
      <point x="172" y="-22" type="curve" smooth="yes" name="hr00"/>
      <point x="258" y="-22"/>
      <point x="347" y="84"/>
      <point x="379" y="217" type="curve"/>
      <point x="369" y="224" smooth="yes"/>
      <point x="354" y="231" smooth="yes"/>
      <point x="348" y="231" type="curve" smooth="yes"/>
      <point x="345" y="231" smooth="yes"/>
      <point x="342" y="229" smooth="yes"/>
      <point x="341" y="225" type="curve" smooth="yes"/>
      <point x="304" y="133" smooth="yes"/>
      <point x="257" y="77" smooth="yes"/>
      <point x="206" y="77" type="curve" smooth="yes"/>
      <point x="164" y="77" smooth="yes"/>
      <point x="127" y="117" smooth="yes"/>
      <point x="127" y="195" type="curve" smooth="yes"/>
      <point x="127" y="295" smooth="yes"/>
      <point x="181" y="403" smooth="yes"/>
      <point x="282" y="403" type="curve" smooth="yes"/>
      <point x="301" y="403"/>
      <point x="323" y="399"/>
      <point x="346" y="390" type="curve"/>
      <point x="378" y="479" type="line"/>
      <point x="356" y="498" type="line"/>
      <point x="104" y="437" smooth="yes"/>
      <point x="41" y="272" smooth="yes"/>
      <point x="41" y="144" type="curve" smooth="yes"/>
      <point x="41" y="45" smooth="yes"/>
      <point x="88" y="-22" smooth="yes"/>
    </contour>
  </outline>
</glyph>
<glyph name="d" format="1">
  <advance width="459"/>
  <unicode hex="0064"/>
  <outline>
    <contour>
      <point x="309" y="674" type="line"/>
      <point x="302" y="626" smooth="yes"/>
      <point x="299" y="574" smooth="yes"/>
      <point x="299" y="521" type="curve" smooth="yes"/>
      <point x="299" y="505"/>
      <point x="299" y="488"/>
      <point x="300" y="472" type="curve"/>
      <point x="98" y="382" smooth="yes"/>
      <point x="24" y="209" smooth="yes"/>
      <point x="24" y="91" type="curve" smooth="yes"/>
      <point x="24" y="25" smooth="yes"/>
      <point x="50" y="-22" smooth="yes"/>
      <point x="110" y="-22" type="curve" smooth="yes"/>
      <point x="182" y="-22"/>
      <point x="271" y="77"/>
      <point x="325" y="217" type="curve"/>
      <point x="339" y="129"/>
      <point x="355" y="48"/>
      <point x="371" y="-14" type="curve"/>
      <point x="380" y="-24" smooth="yes"/>
      <point x="402" y="-31" smooth="yes"/>
      <point x="412" y="-31" type="curve" smooth="yes" name="hr01"/>
      <point x="419" y="-31"/>
      <point x="420" y="-30"/>
      <point x="420" y="-26" type="curve"/>
      <point x="387" y="127" smooth="yes"/>
      <point x="375" y="265" smooth="yes"/>
      <point x="375" y="379" type="curve" smooth="yes"/>
      <point x="375" y="511"/>
      <point x="396" y="635"/>
      <point x="414" y="696" type="curve"/>
      <point x="389" y="712" type="line"/>
    </contour>
    <contour>
      <point x="313" y="304" type="curve"/>
      <point x="270" y="166" smooth="yes"/>
      <point x="209" y="98" smooth="yes"/>
      <point x="168" y="98" type="curve" smooth="yes" name="hr02"/>
      <point x="129" y="98" smooth="yes"/>
      <point x="118" y="129" smooth="yes"/>
      <point x="118" y="172" type="curve" smooth="yes"/>
      <point x="118" y="245"/>
      <point x="170" y="358"/>
      <point x="303" y="418" type="curve"/>
      <point x="305" y="380"/>
      <point x="309" y="342"/>
    </contour>
  </outline>
</glyph>
<glyph name="e" format="1">
  <advance width="426"/>
  <unicode hex="0065"/>
  <outline>
    <contour>
      <point x="381" y="368" type="curve" name="hr00"/>
      <point x="381" y="412"/>
      <point x="366" y="461"/>
      <point x="320" y="477" type="curve"/>
      <point x="103" y="427" smooth="yes"/>
      <point x="41" y="270" smooth="yes"/>
      <point x="41" y="144" type="curve" smooth="yes"/>
      <point x="41" y="45" smooth="yes"/>
      <point x="88" y="-22" smooth="yes"/>
      <point x="172" y="-22" type="curve" smooth="yes"/>
      <point x="258" y="-22"/>
      <point x="347" y="84"/>
      <point x="402" y="217" type="curve"/>
      <point x="393" y="224" smooth="yes"/>
      <point x="378" y="231" smooth="yes"/>
      <point x="372" y="231" type="curve" smooth="yes"/>
      <point x="368" y="231"/>
      <point x="366" y="229"/>
      <point x="365" y="225" type="curve"/>
      <point x="321" y="133" smooth="yes"/>
      <point x="267" y="77" smooth="yes"/>
      <point x="206" y="77" type="curve" smooth="yes"/>
      <point x="167" y="77"/>
      <point x="133" y="105"/>
      <point x="127" y="175" type="curve"/>
      <point x="183" y="186"/>
      <point x="349" y="237"/>
    </contour>
    <contour>
      <point x="264" y="398" type="curve" smooth="yes"/>
      <point x="287" y="398" smooth="yes"/>
      <point x="299" y="382" smooth="yes"/>
      <point x="299" y="363" type="curve" smooth="yes"/>
      <point x="299" y="315"/>
      <point x="247" y="246"/>
      <point x="127" y="215" type="curve"/>
      <point x="135" y="342" smooth="yes"/>
      <point x="218" y="398" smooth="yes"/>
    </contour>
  </outline>
</glyph>
<glyph name="f" format="1">
  <advance width="288"/>
  <unicode hex="0066"/>
  <outline>
    <contour>
      <point x="308" y="442" type="line" name="hr00"/>
      <point x="299" y="459" type="line"/>
      <point x="267" y="446"/>
      <point x="230" y="433"/>
      <point x="178" y="427" type="curve"/>
      <point x="178" y="451" smooth="yes"/>
      <point x="179" y="474" smooth="yes"/>
      <point x="179" y="497" type="curve" smooth="yes"/>
      <point x="179" y="566" smooth="yes"/>
      <point x="190" y="627" smooth="yes"/>
      <point x="243" y="627" type="curve" smooth="yes"/>
      <point x="270" y="627"/>
      <point x="285" y="621"/>
      <point x="315" y="608" type="curve"/>
      <point x="338" y="694" type="line"/>
      <point x="314" y="712" type="line"/>
      <point x="148" y="671"/>
      <point x="99" y="586"/>
      <point x="91" y="543" type="curve"/>
      <point x="93" y="523"/>
      <point x="99" y="491"/>
      <point x="102" y="424" type="curve"/>
      <point x="72" y="424"/>
      <point x="44" y="426"/>
      <point x="14" y="432" type="curve"/>
      <point x="14" y="432" smooth="yes"/>
      <point x="11" y="432" smooth="yes"/>
      <point x="11" y="426" type="curve" smooth="yes"/>
      <point x="12" y="415"/>
      <point x="21" y="382"/>
      <point x="31" y="378" type="curve"/>
      <point x="55" y="372"/>
      <point x="79" y="367"/>
      <point x="104" y="365" type="curve"/>
      <point x="105" y="347" smooth="yes"/>
      <point x="105" y="329" smooth="yes"/>
      <point x="105" y="308" type="curve" smooth="yes"/>
      <point x="105" y="151" smooth="yes"/>
      <point x="91" y="-19" smooth="yes"/>
      <point x="80" y="-105" type="curve" smooth="yes"/>
      <point x="80" y="-109" smooth="yes"/>
      <point x="81" y="-110" smooth="yes"/>
      <point x="88" y="-110" type="curve" smooth="yes"/>
      <point x="100" y="-110"/>
      <point x="120" y="-103"/>
      <point x="130" y="-93" type="curve"/>
      <point x="155" y="71"/>
      <point x="170" y="220"/>
      <point x="176" y="362" type="curve"/>
      <point x="211" y="362"/>
      <point x="245" y="366"/>
      <point x="278" y="373" type="curve"/>
    </contour>
  </outline>
</glyph>
<glyph name="g" format="1">
  <advance width="447"/>
  <unicode hex="0067"/>
  <outline>
    <contour>
      <point x="316" y="201" type="line" name="hr00"/>
      <point x="314" y="48" smooth="yes"/>
      <point x="291" y="-182" smooth="yes"/>
      <point x="125" y="-182" type="curve" smooth="yes"/>
      <point x="100" y="-182"/>
      <point x="73" y="-178"/>
      <point x="41" y="-169" type="curve"/>
      <point x="18" y="-266" type="line"/>
      <point x="42" y="-284" type="line"/>
      <point x="216" y="-284" smooth="yes"/>
      <point x="318" y="-130" smooth="yes"/>
      <point x="349" y="7" type="curve" smooth="yes"/>
      <point x="377" y="131" smooth="yes"/>
      <point x="399" y="268" smooth="yes"/>
      <point x="399" y="385" type="curve" smooth="yes"/>
      <point x="399" y="406"/>
      <point x="399" y="448"/>
      <point x="398" y="468" type="curve"/>
      <point x="373" y="485" type="line"/>
      <point x="315" y="458" type="line" smooth="yes"/>
      <point x="189" y="399" smooth="yes"/>
      <point x="32" y="280" smooth="yes"/>
      <point x="32" y="109" type="curve" smooth="yes"/>
      <point x="32" y="32" smooth="yes"/>
      <point x="61" y="-12" smooth="yes"/>
      <point x="113" y="-12" type="curve" smooth="yes"/>
      <point x="181" y="-12"/>
      <point x="252" y="72"/>
      <point x="309" y="204" type="curve"/>
    </contour>
    <contour>
      <point x="312" y="304" type="curve"/>
      <point x="269" y="165" smooth="yes"/>
      <point x="206" y="98" smooth="yes"/>
      <point x="164" y="98" type="curve" smooth="yes"/>
      <point x="130" y="98" smooth="yes"/>
      <point x="112" y="126" smooth="yes"/>
      <point x="112" y="166" type="curve" smooth="yes"/>
      <point x="112" y="238"/>
      <point x="168" y="347"/>
      <point x="300" y="404" type="curve"/>
      <point x="304" y="376"/>
      <point x="309" y="345"/>
    </contour>
  </outline>
</glyph>
<glyph name="h" format="1">
  <advance width="494"/>
  <unicode hex="0068"/>
  <outline>
    <contour>
      <point x="171" y="300" type="line"/>
      <point x="181" y="375" smooth="yes"/>
      <point x="188" y="452" smooth="yes"/>
      <point x="188" y="526" type="curve" smooth="yes"/>
      <point x="188" y="578"/>
      <point x="185" y="628"/>
      <point x="179" y="674" type="curve"/>
      <point x="99" y="712" type="line"/>
      <point x="74" y="696" type="line"/>
      <point x="92" y="635" smooth="yes"/>
      <point x="113" y="511" smooth="yes"/>
      <point x="113" y="379" type="curve" smooth="yes"/>
      <point x="113" y="265"/>
      <point x="101" y="127"/>
      <point x="68" y="-26" type="curve"/>
      <point x="68" y="-30" smooth="yes"/>
      <point x="70" y="-31" smooth="yes"/>
      <point x="77" y="-31" type="curve" smooth="yes"/>
      <point x="86" y="-31"/>
      <point x="109" y="-24"/>
      <point x="118" y="-14" type="curve"/>
      <point x="138" y="73" type="line" smooth="yes"/>
      <point x="181" y="260" smooth="yes"/>
      <point x="253" y="352" smooth="yes"/>
      <point x="308" y="352" type="curve" smooth="yes"/>
      <point x="353" y="352" smooth="yes"/>
      <point x="367" y="288" smooth="yes"/>
      <point x="367" y="195" type="curve" smooth="yes"/>
      <point x="367" y="133" smooth="yes"/>
      <point x="361" y="58" smooth="yes"/>
      <point x="353" y="-19" type="curve" smooth="yes"/>
      <point x="353" y="-21" smooth="yes"/>
      <point x="354" y="-22" smooth="yes"/>
      <point x="360" y="-22" type="curve" smooth="yes" name="hr01"/>
      <point x="369" y="-22"/>
      <point x="395" y="-17"/>
      <point x="404" y="-8" type="curve"/>
      <point x="419" y="120" smooth="yes"/>
      <point x="441" y="241" smooth="yes"/>
      <point x="441" y="359" type="curve" smooth="yes"/>
      <point x="441" y="425" smooth="yes"/>
      <point x="418" y="472" smooth="yes"/>
      <point x="361" y="472" type="curve" smooth="yes"/>
      <point x="302" y="472"/>
      <point x="234" y="403"/>
      <point x="180" y="300" type="curve"/>
    </contour>
  </outline>
</glyph>
<glyph name="i" format="1">
  <advance width="231"/>
  <unicode hex="0069"/>
  <outline>
    <contour>
      <point x="175" y="446" type="curve" name="hr00"/>
      <point x="94" y="485" type="line"/>
      <point x="70" y="470" type="line"/>
      <point x="80" y="431" smooth="yes"/>
      <point x="96" y="364" smooth="yes"/>
      <point x="96" y="255" type="curve" smooth="yes"/>
      <point x="96" y="186"/>
      <point x="89" y="98"/>
      <point x="71" y="-10" type="curve"/>
      <point x="71" y="-12" smooth="yes"/>
      <point x="73" y="-13" smooth="yes"/>
      <point x="78" y="-13" type="curve" smooth="yes"/>
      <point x="87" y="-13"/>
      <point x="108" y="-7"/>
      <point x="116" y="1" type="curve"/>
      <point x="153" y="129" smooth="yes"/>
      <point x="177" y="254" smooth="yes"/>
      <point x="177" y="380" type="curve" smooth="yes"/>
      <point x="177" y="402"/>
      <point x="176" y="424"/>
    </contour>
    <contour>
      <point x="82" y="601" type="curve" smooth="yes"/>
      <point x="82" y="640"/>
      <point x="113" y="668"/>
      <point x="172" y="676" type="curve"/>
      <point x="194" y="658" smooth="yes"/>
      <point x="202" y="633" smooth="yes"/>
      <point x="202" y="612" type="curve" smooth="yes"/>
      <point x="202" y="570" smooth="yes"/>
      <point x="166" y="545" smooth="yes"/>
      <point x="133" y="545" type="curve" smooth="yes"/>
      <point x="99" y="545" smooth="yes"/>
      <point x="82" y="575" smooth="yes"/>
    </contour>
  </outline>
</glyph>
<glyph name="k" format="1">
  <advance width="450"/>
  <unicode hex="006B"/>
  <outline>
    <contour>
      <point x="153" y="247" type="line"/>
      <point x="168" y="339" smooth="yes"/>
      <point x="178" y="437" smooth="yes"/>
      <point x="178" y="529" type="curve" smooth="yes"/>
      <point x="178" y="581"/>
      <point x="174" y="629"/>
      <point x="168" y="674" type="curve"/>
      <point x="88" y="712" type="line"/>
      <point x="63" y="696" type="line"/>
      <point x="81" y="635" smooth="yes"/>
      <point x="102" y="511" smooth="yes"/>
      <point x="102" y="379" type="curve" smooth="yes"/>
      <point x="102" y="269"/>
      <point x="92" y="135"/>
      <point x="60" y="-14" type="curve"/>
      <point x="60" y="-18" smooth="yes"/>
      <point x="61" y="-19" smooth="yes"/>
      <point x="66" y="-19" type="curve" smooth="yes"/>
      <point x="75" y="-19"/>
      <point x="98" y="-12"/>
      <point x="107" y="-2" type="curve"/>
      <point x="123" y="69" type="line" smooth="yes"/>
      <point x="136" y="127"/>
      <point x="156" y="180"/>
      <point x="182" y="225" type="curve"/>
      <point x="183" y="224" type="line" smooth="yes"/>
      <point x="213" y="166"/>
      <point x="303" y="37"/>
      <point x="381" y="-30" type="curve"/>
      <point x="384" y="-31" smooth="yes"/>
      <point x="388" y="-31" smooth="yes"/>
      <point x="393" y="-31" type="curve" smooth="yes" name="hr01"/>
      <point x="408" y="-31"/>
      <point x="426" y="-27"/>
      <point x="426" y="-19" type="curve" name="hr02"/>
      <point x="356" y="58"/>
      <point x="280" y="203"/>
      <point x="244" y="303" type="curve"/>
      <point x="278" y="334" smooth="yes"/>
      <point x="317" y="353" smooth="yes"/>
      <point x="356" y="353" type="curve" smooth="yes"/>
      <point x="367" y="353"/>
      <point x="378" y="352"/>
      <point x="391" y="349" type="curve"/>
      <point x="417" y="455" type="line"/>
      <point x="391" y="474" type="line"/>
      <point x="289" y="441"/>
      <point x="213" y="357"/>
      <point x="158" y="247" type="curve"/>
    </contour>
  </outline>
</glyph>
<glyph name="l" format="1">
  <advance width="242"/>
  <unicode hex="006C"/>
  <outline>
    <contour>
      <point x="93" y="712" type="line" name="hr00"/>
      <point x="68" y="696" type="line"/>
      <point x="86" y="635" smooth="yes"/>
      <point x="107" y="511" smooth="yes"/>
      <point x="107" y="379" type="curve" smooth="yes"/>
      <point x="107" y="265"/>
      <point x="96" y="127"/>
      <point x="60" y="-26" type="curve"/>
      <point x="60" y="-30" smooth="yes"/>
      <point x="61" y="-31" smooth="yes"/>
      <point x="68" y="-31" type="curve" smooth="yes"/>
      <point x="80" y="-31"/>
      <point x="105" y="-24"/>
      <point x="114" y="-14" type="curve"/>
      <point x="160" y="155"/>
      <point x="204" y="461"/>
      <point x="173" y="674" type="curve"/>
    </contour>
  </outline>
</glyph>
<glyph name="m" format="1">
  <advance width="748"/>
  <unicode hex="006D"/>
  <outline>
    <contour>
      <point x="430" y="296" type="line"/>
      <point x="431" y="317" smooth="yes"/>
      <point x="432" y="338" smooth="yes"/>
      <point x="432" y="359" type="curve" smooth="yes"/>
      <point x="432" y="425" smooth="yes"/>
      <point x="408" y="472" smooth="yes"/>
      <point x="352" y="472" type="curve" smooth="yes"/>
      <point x="295" y="472"/>
      <point x="228" y="401"/>
      <point x="177" y="293" type="curve"/>
      <point x="171" y="294" type="line"/>
      <point x="171" y="344"/>
      <point x="170" y="395"/>
      <point x="168" y="446" type="curve"/>
      <point x="87" y="485" type="line" name="hr01"/>
      <point x="63" y="470" type="line"/>
      <point x="80" y="406" smooth="yes"/>
      <point x="126" y="271" smooth="yes"/>
      <point x="72" y="-9" type="curve" smooth="yes"/>
      <point x="72" y="-12" smooth="yes"/>
      <point x="73" y="-13" smooth="yes"/>
      <point x="79" y="-13" type="curve" smooth="yes"/>
      <point x="88" y="-13"/>
      <point x="109" y="-7"/>
      <point x="117" y="1" type="curve"/>
      <point x="158" y="145" type="line" smooth="yes"/>
      <point x="197" y="283" smooth="yes"/>
      <point x="256" y="352" smooth="yes"/>
      <point x="302" y="352" type="curve" smooth="yes" name="hr02"/>
      <point x="345" y="352" smooth="yes"/>
      <point x="358" y="288" smooth="yes"/>
      <point x="358" y="195" type="curve" smooth="yes"/>
      <point x="358" y="133" smooth="yes"/>
      <point x="352" y="58" smooth="yes"/>
      <point x="345" y="-19" type="curve" smooth="yes"/>
      <point x="345" y="-21" smooth="yes"/>
      <point x="345" y="-22" smooth="yes"/>
      <point x="350" y="-22" type="curve" smooth="yes"/>
      <point x="360" y="-22"/>
      <point x="386" y="-17"/>
      <point x="394" y="-8" type="curve"/>
      <point x="404" y="73" type="line" smooth="yes"/>
      <point x="427" y="263" smooth="yes"/>
      <point x="512" y="352" smooth="yes"/>
      <point x="565" y="352" type="curve" smooth="yes"/>
      <point x="608" y="352" smooth="yes"/>
      <point x="621" y="288" smooth="yes"/>
      <point x="621" y="195" type="curve" smooth="yes"/>
      <point x="621" y="133" smooth="yes"/>
      <point x="615" y="58" smooth="yes"/>
      <point x="608" y="-19" type="curve" smooth="yes"/>
      <point x="608" y="-21" smooth="yes"/>
      <point x="608" y="-22" smooth="yes"/>
      <point x="614" y="-22" type="curve" smooth="yes"/>
      <point x="623" y="-22"/>
      <point x="649" y="-17"/>
      <point x="657" y="-8" type="curve"/>
      <point x="678" y="120" smooth="yes"/>
      <point x="695" y="241" smooth="yes"/>
      <point x="695" y="359" type="curve" smooth="yes"/>
      <point x="695" y="425" smooth="yes"/>
      <point x="671" y="472" smooth="yes"/>
      <point x="615" y="472" type="curve" smooth="yes"/>
      <point x="558" y="472"/>
      <point x="487" y="401"/>
      <point x="436" y="295" type="curve"/>
    </contour>
  </outline>
</glyph>
<glyph name="n" format="1">
  <advance width="498"/>
  <unicode hex="006E"/>
  <outline>
    <contour>
      <point x="171" y="288" type="line"/>
      <point x="172" y="340"/>
      <point x="171" y="393"/>
      <point x="168" y="446" type="curve"/>
      <point x="87" y="485" type="line"/>
      <point x="63" y="470" type="line"/>
      <point x="80" y="406" smooth="yes"/>
      <point x="126" y="271" smooth="yes"/>
      <point x="72" y="-9" type="curve" smooth="yes"/>
      <point x="72" y="-12" smooth="yes"/>
      <point x="73" y="-13" smooth="yes"/>
      <point x="79" y="-13" type="curve" smooth="yes"/>
      <point x="88" y="-13"/>
      <point x="109" y="-7"/>
      <point x="117" y="1" type="curve"/>
      <point x="140" y="73" type="line" smooth="yes"/>
      <point x="199" y="256" smooth="yes"/>
      <point x="256" y="352" smooth="yes"/>
      <point x="312" y="352" type="curve" smooth="yes" name="hr01"/>
      <point x="356" y="352" smooth="yes"/>
      <point x="371" y="288" smooth="yes"/>
      <point x="371" y="195" type="curve" smooth="yes"/>
      <point x="371" y="133" smooth="yes"/>
      <point x="365" y="58" smooth="yes"/>
      <point x="356" y="-19" type="curve" smooth="yes"/>
      <point x="356" y="-21" smooth="yes"/>
      <point x="358" y="-22" smooth="yes"/>
      <point x="363" y="-22" type="curve" smooth="yes"/>
      <point x="373" y="-22"/>
      <point x="399" y="-17"/>
      <point x="407" y="-8" type="curve"/>
      <point x="427" y="120" smooth="yes"/>
      <point x="445" y="241" smooth="yes"/>
      <point x="445" y="359" type="curve" smooth="yes"/>
      <point x="445" y="425" smooth="yes"/>
      <point x="421" y="472" smooth="yes"/>
      <point x="365" y="472" type="curve" smooth="yes"/>
      <point x="304" y="472"/>
      <point x="233" y="398"/>
      <point x="178" y="287" type="curve"/>
    </contour>
  </outline>
</glyph>
<glyph name="o" format="1">
  <advance width="477"/>
  <unicode hex="006F"/>
  <outline>
    <contour>
      <point x="420" y="457" type="line" name="hr00"/>
      <point x="409" y="485" type="line"/>
      <point x="131" y="464" smooth="yes"/>
      <point x="42" y="308" smooth="yes"/>
      <point x="42" y="181" type="curve" smooth="yes"/>
      <point x="42" y="42" smooth="yes"/>
      <point x="122" y="-33" smooth="yes"/>
      <point x="218" y="-33" type="curve" smooth="yes"/>
      <point x="361" y="-33" smooth="yes"/>
      <point x="428" y="107" smooth="yes"/>
      <point x="428" y="231" type="curve" smooth="yes"/>
      <point x="428" y="315"/>
      <point x="405" y="362"/>
      <point x="372" y="402" type="curve"/>
    </contour>
    <contour>
      <point x="229" y="58" type="curve" smooth="yes"/>
      <point x="168" y="58" smooth="yes"/>
      <point x="133" y="119" smooth="yes"/>
      <point x="133" y="202" type="curve" smooth="yes"/>
      <point x="133" y="310"/>
      <point x="217" y="388"/>
      <point x="316" y="405" type="curve"/>
      <point x="362" y="350" smooth="yes"/>
      <point x="371" y="282" smooth="yes"/>
      <point x="371" y="218" type="curve" smooth="yes"/>
      <point x="371" y="152" smooth="yes"/>
      <point x="317" y="58" smooth="yes"/>
    </contour>
  </outline>
</glyph>
<glyph name="p" format="1">
  <advance width="496"/>
  <unicode hex="0070"/>
  <outline>
    <contour>
      <point x="166" y="280" type="line" name="hr00"/>
      <point x="167" y="338"/>
      <point x="164" y="394"/>
      <point x="157" y="445" type="curve"/>
      <point x="77" y="485" type="line"/>
      <point x="52" y="468" type="line"/>
      <point x="70" y="405" smooth="yes"/>
      <point x="91" y="274" smooth="yes"/>
      <point x="91" y="135" type="curve" smooth="yes"/>
      <point x="91" y="21"/>
      <point x="79" y="-117"/>
      <point x="46" y="-270" type="curve"/>
      <point x="46" y="-274" smooth="yes"/>
      <point x="47" y="-275" smooth="yes"/>
      <point x="54" y="-275" type="curve" smooth="yes"/>
      <point x="64" y="-275"/>
      <point x="86" y="-268"/>
      <point x="96" y="-258" type="curve"/>
      <point x="111" y="-195"/>
      <point x="128" y="-112"/>
      <point x="141" y="-21" type="curve"/>
      <point x="379" y="60" smooth="yes"/>
      <point x="465" y="250" smooth="yes"/>
      <point x="465" y="378" type="curve" smooth="yes"/>
      <point x="465" y="444" smooth="yes"/>
      <point x="439" y="491" smooth="yes"/>
      <point x="379" y="491" type="curve" smooth="yes"/>
      <point x="311" y="491"/>
      <point x="229" y="404"/>
      <point x="174" y="278" type="curve"/>
    </contour>
    <contour>
      <point x="149" y="35" type="curve" smooth="yes"/>
      <point x="179" y="281" smooth="yes"/>
      <point x="273" y="371" smooth="yes"/>
      <point x="321" y="371" type="curve" smooth="yes"/>
      <point x="360" y="371" smooth="yes"/>
      <point x="371" y="340" smooth="yes"/>
      <point x="371" y="296" type="curve" smooth="yes"/>
      <point x="371" y="217"/>
      <point x="308" y="91"/>
    </contour>
  </outline>
</glyph>
<glyph name="q" format="1">
  <advance width="451"/>
  <unicode hex="0071"/>
  <outline>
    <contour>
      <point x="320" y="196" type="line" name="hr00"/>
      <point x="304" y="101" smooth="yes"/>
      <point x="291" y="-4" smooth="yes"/>
      <point x="291" y="-96" type="curve" smooth="yes"/>
      <point x="291" y="-146"/>
      <point x="294" y="-195"/>
      <point x="299" y="-236" type="curve"/>
      <point x="379" y="-280" type="line"/>
      <point x="404" y="-264" type="line"/>
      <point x="380" y="-142" smooth="yes"/>
      <point x="369" y="-30" smooth="yes"/>
      <point x="369" y="79" type="curve" smooth="yes"/>
      <point x="369" y="215"/>
      <point x="389" y="343"/>
      <point x="421" y="479" type="curve"/>
      <point x="396" y="493" type="line"/>
      <point x="353" y="465" type="line"/>
      <point x="179" y="412" smooth="yes"/>
      <point x="24" y="271" smooth="yes"/>
      <point x="24" y="91" type="curve" smooth="yes"/>
      <point x="24" y="25" smooth="yes"/>
      <point x="50" y="-22" smooth="yes"/>
      <point x="110" y="-22" type="curve" smooth="yes"/>
      <point x="169" y="-22"/>
      <point x="255" y="59"/>
      <point x="314" y="196" type="curve"/>
    </contour>
    <contour>
      <point x="339" y="404" type="curve"/>
      <point x="306" y="212" smooth="yes"/>
      <point x="229" y="98" smooth="yes"/>
      <point x="168" y="98" type="curve" smooth="yes"/>
      <point x="132" y="98" smooth="yes"/>
      <point x="118" y="129" smooth="yes"/>
      <point x="118" y="172" type="curve" smooth="yes"/>
      <point x="118" y="253"/>
      <point x="175" y="348"/>
    </contour>
  </outline>
</glyph>
<glyph name="r" format="1">
  <advance width="329"/>
  <unicode hex="0072"/>
  <outline>
    <contour>
      <point x="175" y="296" type="line" name="hr00"/>
      <point x="175" y="315" type="line" smooth="yes"/>
      <point x="175" y="359"/>
      <point x="172" y="401"/>
      <point x="168" y="442" type="curve"/>
      <point x="87" y="485" type="line"/>
      <point x="63" y="468" type="line"/>
      <point x="74" y="427" smooth="yes"/>
      <point x="94" y="348" smooth="yes"/>
      <point x="94" y="222" type="curve" smooth="yes"/>
      <point x="94" y="155" smooth="yes"/>
      <point x="88" y="72" smooth="yes"/>
      <point x="68" y="-26" type="curve" smooth="yes"/>
      <point x="68" y="-28" smooth="yes"/>
      <point x="70" y="-30" smooth="yes"/>
      <point x="76" y="-30" type="curve" smooth="yes"/>
      <point x="85" y="-30"/>
      <point x="105" y="-24"/>
      <point x="113" y="-15" type="curve"/>
      <point x="147" y="90" type="line" smooth="yes"/>
      <point x="202" y="260" smooth="yes"/>
      <point x="219" y="353" smooth="yes"/>
      <point x="301" y="353" type="curve" smooth="yes"/>
      <point x="309" y="353"/>
      <point x="319" y="352"/>
      <point x="329" y="349" type="curve"/>
      <point x="353" y="464" type="line"/>
      <point x="332" y="483" type="line"/>
      <point x="267" y="458"/>
      <point x="219" y="398"/>
      <point x="183" y="296" type="curve"/>
    </contour>
  </outline>
</glyph>
<glyph name="s" format="1">
  <advance width="368"/>
  <unicode hex="0073"/>
  <outline>
    <contour>
      <point x="345" y="472" type="line" name="hr00"/>
      <point x="323" y="491" type="line"/>
      <point x="85" y="459" smooth="yes"/>
      <point x="54" y="375" smooth="yes"/>
      <point x="54" y="334" type="curve" smooth="yes"/>
      <point x="54" y="227" smooth="yes"/>
      <point x="217" y="173" smooth="yes"/>
      <point x="217" y="92" type="curve" smooth="yes"/>
      <point x="217" y="44" smooth="yes"/>
      <point x="169" y="17" smooth="yes"/>
      <point x="104" y="17" type="curve" smooth="yes"/>
      <point x="55" y="17" smooth="yes"/>
      <point x="25" y="28" smooth="yes"/>
      <point x="18" y="28" type="curve" smooth="yes"/>
      <point x="15" y="28" smooth="yes"/>
      <point x="15" y="26" smooth="yes"/>
      <point x="15" y="24" type="curve" smooth="yes"/>
      <point x="15" y="13"/>
      <point x="26" y="-12"/>
      <point x="33" y="-17" type="curve"/>
      <point x="74" y="-30" smooth="yes"/>
      <point x="96" y="-31" smooth="yes"/>
      <point x="126" y="-31" type="curve" smooth="yes"/>
      <point x="299" y="-31" smooth="yes"/>
      <point x="325" y="54" smooth="yes"/>
      <point x="325" y="104" type="curve" smooth="yes"/>
      <point x="325" y="215" smooth="yes"/>
      <point x="148" y="278" smooth="yes"/>
      <point x="148" y="356" type="curve" smooth="yes"/>
      <point x="148" y="398" smooth="yes"/>
      <point x="183" y="413" smooth="yes"/>
      <point x="222" y="413" type="curve" smooth="yes"/>
      <point x="253" y="413"/>
      <point x="287" y="400"/>
      <point x="313" y="383" type="curve"/>
    </contour>
  </outline>
</glyph>
<glyph name="t" format="1">
  <advance width="313"/>
  <unicode hex="0074"/>
  <outline>
    <contour>
      <point x="327" y="457" type="line" name="hr00"/>
      <point x="317" y="473" type="line"/>
      <point x="288" y="462"/>
      <point x="251" y="449"/>
      <point x="202" y="443" type="curve"/>
      <point x="208" y="560" type="line"/>
      <point x="127" y="603" type="line"/>
      <point x="103" y="586" type="line"/>
      <point x="108" y="549"/>
      <point x="111" y="494"/>
      <point x="114" y="438" type="curve"/>
      <point x="83" y="438"/>
      <point x="47" y="440"/>
      <point x="18" y="446" type="curve"/>
      <point x="18" y="446" smooth="yes"/>
      <point x="14" y="446" smooth="yes"/>
      <point x="14" y="440" type="curve" smooth="yes"/>
      <point x="15" y="430"/>
      <point x="25" y="396"/>
      <point x="34" y="392" type="curve"/>
      <point x="59" y="385"/>
      <point x="89" y="381"/>
      <point x="117" y="378" type="curve"/>
      <point x="119" y="330" smooth="yes"/>
      <point x="120" y="285" smooth="yes"/>
      <point x="120" y="257" type="curve" smooth="yes"/>
      <point x="120" y="169" smooth="yes"/>
      <point x="114" y="84" smooth="yes"/>
      <point x="98" y="-19" type="curve" smooth="yes"/>
      <point x="98" y="-21" smooth="yes"/>
      <point x="99" y="-22" smooth="yes"/>
      <point x="105" y="-22" type="curve" smooth="yes"/>
      <point x="114" y="-22"/>
      <point x="139" y="-17"/>
      <point x="147" y="-8" type="curve"/>
      <point x="171" y="84"/>
      <point x="187" y="237"/>
      <point x="197" y="376" type="curve"/>
      <point x="231" y="377"/>
      <point x="266" y="381"/>
      <point x="297" y="387" type="curve"/>
    </contour>
  </outline>
</glyph>
<glyph name="u" format="1">
  <advance width="511"/>
  <unicode hex="0075"/>
  <outline>
    <contour>
      <point x="159" y="468" type="curve" smooth="yes"/>
      <point x="159" y="471" smooth="yes"/>
      <point x="158" y="472" smooth="yes"/>
      <point x="152" y="472" type="curve" smooth="yes"/>
      <point x="143" y="472"/>
      <point x="117" y="466"/>
      <point x="109" y="458" type="curve"/>
      <point x="93" y="329" smooth="yes"/>
      <point x="71" y="209" smooth="yes"/>
      <point x="71" y="91" type="curve" smooth="yes"/>
      <point x="71" y="25" smooth="yes"/>
      <point x="94" y="-22" smooth="yes"/>
      <point x="151" y="-22" type="curve" smooth="yes"/>
      <point x="220" y="-22"/>
      <point x="306" y="71"/>
      <point x="361" y="203" type="curve"/>
      <point x="372" y="127"/>
      <point x="389" y="41"/>
      <point x="412" y="-14" type="curve"/>
      <point x="420" y="-22" smooth="yes"/>
      <point x="440" y="-28" smooth="yes"/>
      <point x="450" y="-28" type="curve" smooth="yes" name="hr01"/>
      <point x="455" y="-28" smooth="yes"/>
      <point x="457" y="-27" smooth="yes"/>
      <point x="457" y="-25" type="curve" smooth="yes"/>
      <point x="445" y="20" smooth="yes"/>
      <point x="431" y="184" smooth="yes"/>
      <point x="431" y="255" type="curve" smooth="yes"/>
      <point x="431" y="330"/>
      <point x="444" y="420"/>
      <point x="464" y="479" type="curve"/>
      <point x="439" y="493" type="line"/>
      <point x="359" y="458" type="line"/>
      <point x="353" y="424" smooth="yes"/>
      <point x="350" y="398" smooth="yes"/>
      <point x="350" y="333" type="curve" smooth="yes"/>
      <point x="350" y="322"/>
      <point x="350" y="309"/>
      <point x="351" y="293" type="curve"/>
      <point x="309" y="163" smooth="yes"/>
      <point x="251" y="98" smooth="yes"/>
      <point x="204" y="98" type="curve" smooth="yes" name="hr02"/>
      <point x="159" y="98" smooth="yes"/>
      <point x="145" y="162" smooth="yes"/>
      <point x="145" y="255" type="curve" smooth="yes"/>
      <point x="145" y="316" smooth="yes"/>
      <point x="151" y="392" smooth="yes"/>
    </contour>
  </outline>
</glyph>
<glyph name="v" format="1">
  <advance width="406"/>
  <unicode hex="0076"/>
  <outline>
    <contour>
      <point x="83" y="485" type="line" name="hr00"/>
      <point x="58" y="468" type="line"/>
      <point x="54" y="447" smooth="yes"/>
      <point x="53" y="424" smooth="yes"/>
      <point x="53" y="400" type="curve" smooth="yes"/>
      <point x="53" y="261"/>
      <point x="101" y="84"/>
      <point x="143" y="-14" type="curve"/>
      <point x="152" y="-24"/>
      <point x="171" y="-28"/>
      <point x="181" y="-28" type="curve"/>
      <point x="267" y="7" type="line"/>
      <point x="287" y="165"/>
      <point x="356" y="343"/>
      <point x="426" y="468" type="curve"/>
      <point x="426" y="470" smooth="yes"/>
      <point x="427" y="472" smooth="yes"/>
      <point x="427" y="474" type="curve" smooth="yes"/>
      <point x="427" y="476" smooth="yes"/>
      <point x="426" y="478" smooth="yes"/>
      <point x="424" y="478" type="curve" smooth="yes"/>
      <point x="414" y="478"/>
      <point x="392" y="472"/>
      <point x="381" y="464" type="curve"/>
      <point x="305" y="363"/>
      <point x="211" y="182"/>
      <point x="171" y="42" type="curve"/>
      <point x="157" y="117" smooth="yes"/>
      <point x="145" y="204" smooth="yes"/>
      <point x="145" y="293" type="curve" smooth="yes"/>
      <point x="145" y="345"/>
      <point x="151" y="395"/>
      <point x="163" y="445" type="curve"/>
    </contour>
  </outline>
</glyph>
<glyph name="w" format="1">
  <advance width="658"/>
  <unicode hex="0077"/>
  <outline>
    <contour>
      <point x="83" y="485" type="line" name="hr00"/>
      <point x="58" y="468" type="line"/>
      <point x="54" y="447" smooth="yes"/>
      <point x="53" y="424" smooth="yes"/>
      <point x="53" y="400" type="curve" smooth="yes"/>
      <point x="53" y="261"/>
      <point x="101" y="84"/>
      <point x="143" y="-14" type="curve"/>
      <point x="152" y="-24"/>
      <point x="171" y="-28"/>
      <point x="181" y="-28" type="curve"/>
      <point x="248" y="7" type="line"/>
      <point x="260" y="103"/>
      <point x="291" y="209"/>
      <point x="329" y="304" type="curve"/>
      <point x="344" y="187"/>
      <point x="381" y="62"/>
      <point x="413" y="-14" type="curve"/>
      <point x="422" y="-24"/>
      <point x="441" y="-28"/>
      <point x="451" y="-28" type="curve"/>
      <point x="518" y="7" type="line"/>
      <point x="539" y="165"/>
      <point x="608" y="343"/>
      <point x="678" y="468" type="curve"/>
      <point x="678" y="470" smooth="yes"/>
      <point x="680" y="472" smooth="yes"/>
      <point x="680" y="474" type="curve" smooth="yes"/>
      <point x="680" y="476" smooth="yes"/>
      <point x="678" y="478" smooth="yes"/>
      <point x="676" y="478" type="curve" smooth="yes"/>
      <point x="667" y="478"/>
      <point x="644" y="472"/>
      <point x="634" y="464" type="curve"/>
      <point x="565" y="364"/>
      <point x="479" y="185"/>
      <point x="441" y="45" type="curve"/>
      <point x="428" y="119" smooth="yes"/>
      <point x="415" y="205" smooth="yes"/>
      <point x="415" y="293" type="curve" smooth="yes"/>
      <point x="415" y="345"/>
      <point x="421" y="395"/>
      <point x="433" y="445" type="curve"/>
      <point x="353" y="485" type="line"/>
      <point x="328" y="468" type="line"/>
      <point x="324" y="447"/>
      <point x="323" y="424"/>
      <point x="323" y="400" type="curve"/>
      <point x="263" y="298"/>
      <point x="201" y="158"/>
      <point x="171" y="44" type="curve"/>
      <point x="157" y="119" smooth="yes"/>
      <point x="145" y="205" smooth="yes"/>
      <point x="145" y="293" type="curve" smooth="yes"/>
      <point x="145" y="345"/>
      <point x="151" y="395"/>
      <point x="163" y="445" type="curve"/>
    </contour>
  </outline>
</glyph>
<glyph name="x" format="1">
  <advance width="427"/>
  <unicode hex="0078"/>
  <outline>
    <contour>
      <point x="63" y="-17" type="curve" smooth="yes"/>
      <point x="100" y="39"/>
      <point x="142" y="98"/>
      <point x="186" y="158" type="curve"/>
      <point x="234" y="91" smooth="yes"/>
      <point x="288" y="31" smooth="yes"/>
      <point x="335" y="-14" type="curve" smooth="yes"/>
      <point x="341" y="-19" smooth="yes"/>
      <point x="352" y="-24" smooth="yes"/>
      <point x="379" y="-24" type="curve" smooth="yes"/>
      <point x="383" y="-24"/>
      <point x="389" y="-21"/>
      <point x="389" y="-17" type="curve"/>
      <point x="331" y="58"/>
      <point x="276" y="140"/>
      <point x="234" y="221" type="curve"/>
      <point x="294" y="301"/>
      <point x="361" y="382"/>
      <point x="433" y="464" type="curve"/>
      <point x="411" y="480" type="line"/>
      <point x="330" y="466" type="line"/>
      <point x="286" y="411"/>
      <point x="244" y="351"/>
      <point x="202" y="289" type="curve"/>
      <point x="179" y="342"/>
      <point x="163" y="395"/>
      <point x="156" y="445" type="curve"/>
      <point x="76" y="485" type="line"/>
      <point x="51" y="468" type="line"/>
      <point x="61" y="382"/>
      <point x="100" y="293"/>
      <point x="151" y="212" type="curve"/>
      <point x="105" y="141"/>
      <point x="61" y="68"/>
      <point x="18" y="-6" type="curve"/>
      <point x="26" y="-14" smooth="yes"/>
      <point x="42" y="-20" smooth="yes"/>
      <point x="52" y="-20" type="curve" smooth="yes" name="hr01"/>
      <point x="58" y="-20" smooth="yes"/>
      <point x="61" y="-19" smooth="yes"/>
    </contour>
  </outline>
</glyph>
<glyph name="y" format="1">
  <advance width="406"/>
  <unicode hex="0079"/>
  <outline>
    <contour>
      <point x="205" y="-18" type="curve" name="hr00"/>
      <point x="177" y="-113" smooth="yes"/>
      <point x="135" y="-172" smooth="yes"/>
      <point x="66" y="-172" type="curve" smooth="yes"/>
      <point x="55" y="-172"/>
      <point x="45" y="-171"/>
      <point x="32" y="-169" type="curve"/>
      <point x="8" y="-266" type="line"/>
      <point x="33" y="-284" type="line"/>
      <point x="155" y="-248" smooth="yes"/>
      <point x="223" y="-132" smooth="yes"/>
      <point x="255" y="5" type="curve" smooth="yes"/>
      <point x="294" y="170"/>
      <point x="349" y="341"/>
      <point x="426" y="468" type="curve"/>
      <point x="426" y="470" smooth="yes"/>
      <point x="427" y="472" smooth="yes"/>
      <point x="427" y="474" type="curve" smooth="yes"/>
      <point x="427" y="476" smooth="yes"/>
      <point x="426" y="478" smooth="yes"/>
      <point x="424" y="478" type="curve" smooth="yes"/>
      <point x="414" y="478"/>
      <point x="392" y="472"/>
      <point x="381" y="464" type="curve"/>
      <point x="306" y="363"/>
      <point x="211" y="183"/>
      <point x="171" y="42" type="curve"/>
      <point x="157" y="118" smooth="yes"/>
      <point x="145" y="204" smooth="yes"/>
      <point x="145" y="293" type="curve" smooth="yes"/>
      <point x="145" y="345"/>
      <point x="151" y="395"/>
      <point x="163" y="445" type="curve"/>
      <point x="83" y="485" type="line"/>
      <point x="58" y="468" type="line"/>
      <point x="54" y="447" smooth="yes"/>
      <point x="53" y="424" smooth="yes"/>
      <point x="53" y="400" type="curve" smooth="yes"/>
      <point x="53" y="261"/>
      <point x="101" y="72"/>
      <point x="149" y="-28" type="curve"/>
      <point x="155" y="-31" smooth="yes"/>
      <point x="160" y="-32" smooth="yes"/>
      <point x="166" y="-32" type="curve" smooth="yes"/>
      <point x="179" y="-32"/>
      <point x="191" y="-27"/>
    </contour>
  </outline>
</glyph>
<glyph name="z" format="1">
  <advance width="407"/>
  <unicode hex="007A"/>
  <outline>
    <contour>
      <point x="385" y="33" type="curve" name="hr00"/>
      <point x="315" y="56"/>
      <point x="224" y="65"/>
      <point x="127" y="74" type="curve"/>
      <point x="213" y="153"/>
      <point x="351" y="291"/>
      <point x="382" y="395" type="curve"/>
      <point x="348" y="465" type="line"/>
      <point x="348" y="465" smooth="yes"/>
      <point x="312" y="444" smooth="yes"/>
      <point x="244" y="444" type="curve" smooth="yes"/>
      <point x="150" y="444"/>
      <point x="59" y="485"/>
      <point x="59" y="485" type="curve"/>
      <point x="42" y="459" type="line"/>
      <point x="76" y="371" type="line"/>
      <point x="105" y="363" smooth="yes"/>
      <point x="143" y="359" smooth="yes"/>
      <point x="179" y="359" type="curve" smooth="yes"/>
      <point x="214" y="359"/>
      <point x="248" y="362"/>
      <point x="274" y="373" type="curve"/>
      <point x="214" y="227"/>
      <point x="24" y="13"/>
      <point x="24" y="13" type="curve"/>
      <point x="40" y="-12" type="line"/>
      <point x="100" y="-2" smooth="yes"/>
      <point x="157" y="2" smooth="yes"/>
      <point x="218" y="2" type="curve" smooth="yes"/>
      <point x="274" y="2"/>
      <point x="328" y="-2"/>
      <point x="393" y="-17" type="curve"/>
      <point x="394" y="-17" smooth="yes"/>
      <point x="395" y="-15" smooth="yes"/>
      <point x="395" y="-9" type="curve" smooth="yes"/>
      <point x="395" y="0"/>
      <point x="391" y="25"/>
    </contour>
  </outline>
</glyph>
<glyph name="braceleft" format="1">
  <advance width="347"/>
  <unicode hex="007B"/>
  <outline>
    <contour>
      <point x="36" y="321" type="line" name="hr00"/>
      <point x="58" y="315"/>
      <point x="77" y="307"/>
      <point x="95" y="291" type="curve"/>
      <point x="84" y="246" smooth="yes"/>
      <point x="74" y="165" smooth="yes"/>
      <point x="74" y="107" type="curve" smooth="yes"/>
      <point x="74" y="0" smooth="yes"/>
      <point x="98" y="-83" smooth="yes"/>
      <point x="216" y="-83" type="curve" smooth="yes"/>
      <point x="236" y="-83"/>
      <point x="257" y="-81"/>
      <point x="282" y="-76" type="curve"/>
      <point x="315" y="2" type="line"/>
      <point x="304" y="20" type="line"/>
      <point x="267" y="6"/>
      <point x="223" y="-9"/>
      <point x="158" y="-15" type="curve"/>
      <point x="158" y="141" smooth="yes"/>
      <point x="168" y="180" smooth="yes"/>
      <point x="168" y="242" type="curve" smooth="yes"/>
      <point x="168" y="286"/>
      <point x="157" y="315"/>
      <point x="117" y="343" type="curve"/>
      <point x="154" y="367" smooth="yes"/>
      <point x="172" y="408" smooth="yes"/>
      <point x="176" y="440" type="curve" smooth="yes"/>
      <point x="186" y="528"/>
      <point x="201" y="608"/>
      <point x="223" y="670" type="curve"/>
      <point x="263" y="667"/>
      <point x="302" y="660"/>
      <point x="341" y="650" type="curve"/>
      <point x="346" y="655" smooth="yes"/>
      <point x="347" y="665" smooth="yes"/>
      <point x="347" y="674" type="curve" smooth="yes"/>
      <point x="347" y="689"/>
      <point x="343" y="707"/>
      <point x="338" y="712" type="curve"/>
      <point x="282" y="733" smooth="yes"/>
      <point x="239" y="744" smooth="yes"/>
      <point x="205" y="744" type="curve" smooth="yes"/>
      <point x="117" y="744" smooth="yes"/>
      <point x="96" y="592" smooth="yes"/>
      <point x="96" y="465" type="curve" smooth="yes"/>
      <point x="96" y="439"/>
      <point x="97" y="406"/>
      <point x="98" y="387" type="curve"/>
      <point x="88" y="381"/>
      <point x="60" y="372"/>
      <point x="39" y="372" type="curve"/>
    </contour>
  </outline>
</glyph>
<glyph name="bar" format="1">
  <advance width="316"/>
  <unicode hex="007C"/>
  <outline>
    <contour>
      <point x="118" y="-44" type="curve" smooth="yes" name="hr00"/>
      <point x="122" y="-104" smooth="yes"/>
      <point x="127" y="-114" smooth="yes"/>
      <point x="137" y="-114" type="curve" smooth="yes"/>
      <point x="147" y="-114"/>
      <point x="163" y="-110"/>
      <point x="173" y="-94" type="curve"/>
      <point x="173" y="164"/>
      <point x="197" y="534"/>
      <point x="236" y="695" type="curve"/>
      <point x="152" y="750" type="line"/>
      <point x="126" y="735" type="line"/>
      <point x="114" y="613" smooth="yes"/>
      <point x="108" y="479" smooth="yes"/>
      <point x="108" y="330" type="curve" smooth="yes"/>
      <point x="108" y="214" smooth="yes"/>
      <point x="111" y="89" smooth="yes"/>
    </contour>
  </outline>
</glyph>
<glyph name="braceright" format="1">
  <advance width="347"/>
  <unicode hex="007D"/>
  <outline>
    <contour>
      <point x="311" y="340" type="line" name="hr00"/>
      <point x="289" y="346"/>
      <point x="270" y="354"/>
      <point x="252" y="370" type="curve"/>
      <point x="263" y="415" smooth="yes"/>
      <point x="273" y="496" smooth="yes"/>
      <point x="273" y="554" type="curve" smooth="yes"/>
      <point x="273" y="661" smooth="yes"/>
      <point x="249" y="744" smooth="yes"/>
      <point x="131" y="744" type="curve" smooth="yes"/>
      <point x="111" y="744"/>
      <point x="90" y="742"/>
      <point x="65" y="737" type="curve"/>
      <point x="32" y="659" type="line"/>
      <point x="43" y="641" type="line"/>
      <point x="80" y="655"/>
      <point x="124" y="670"/>
      <point x="189" y="676" type="curve"/>
      <point x="189" y="520" smooth="yes"/>
      <point x="179" y="481" smooth="yes"/>
      <point x="179" y="419" type="curve" smooth="yes"/>
      <point x="179" y="375"/>
      <point x="190" y="346"/>
      <point x="230" y="318" type="curve"/>
      <point x="193" y="294" smooth="yes"/>
      <point x="175" y="253" smooth="yes"/>
      <point x="171" y="221" type="curve" smooth="yes"/>
      <point x="161" y="133"/>
      <point x="146" y="53"/>
      <point x="124" y="-9" type="curve"/>
      <point x="84" y="-6"/>
      <point x="45" y="1"/>
      <point x="6" y="11" type="curve"/>
      <point x="1" y="6" smooth="yes"/>
      <point x="0" y="-4" smooth="yes"/>
      <point x="0" y="-13" type="curve" smooth="yes"/>
      <point x="0" y="-28"/>
      <point x="4" y="-46"/>
      <point x="9" y="-51" type="curve"/>
      <point x="65" y="-72" smooth="yes"/>
      <point x="108" y="-83" smooth="yes"/>
      <point x="142" y="-83" type="curve" smooth="yes"/>
      <point x="230" y="-83" smooth="yes"/>
      <point x="251" y="69" smooth="yes"/>
      <point x="251" y="196" type="curve" smooth="yes"/>
      <point x="251" y="222"/>
      <point x="250" y="255"/>
      <point x="249" y="274" type="curve"/>
      <point x="259" y="280"/>
      <point x="287" y="289"/>
      <point x="308" y="289" type="curve"/>
    </contour>
  </outline>
</glyph>
<glyph name="asciitilde" format="1">
  <advance width="500"/>
  <unicode hex="007E"/>
  <outline>
    <contour>
      <point x="424" y="378" type="line"/>
      <point x="399" y="364" smooth="yes"/>
      <point x="375" y="356" smooth="yes"/>
      <point x="347" y="356" type="curve" smooth="yes"/>
      <point x="289" y="356" smooth="yes"/>
      <point x="238" y="383" smooth="yes"/>
      <point x="182" y="383" type="curve" smooth="yes" name="hr01"/>
      <point x="130" y="383"/>
      <point x="89" y="362"/>
      <point x="52" y="314" type="curve"/>
      <point x="51" y="308" smooth="yes"/>
      <point x="51" y="303" smooth="yes"/>
      <point x="51" y="296" type="curve" smooth="yes"/>
      <point x="51" y="278" smooth="yes"/>
      <point x="52" y="257" smooth="yes"/>
      <point x="57" y="257" type="curve" smooth="yes"/>
      <point x="58" y="257" smooth="yes"/>
      <point x="59" y="258" smooth="yes"/>
      <point x="60" y="259" type="curve" smooth="yes"/>
      <point x="90" y="293" smooth="yes"/>
      <point x="125" y="312" smooth="yes"/>
      <point x="167" y="312" type="curve" smooth="yes"/>
      <point x="237" y="312" smooth="yes"/>
      <point x="297" y="268" smooth="yes"/>
      <point x="365" y="268" type="curve" smooth="yes" name="hr02"/>
      <point x="390" y="268"/>
      <point x="414" y="275"/>
      <point x="438" y="291" type="curve"/>
      <point x="440" y="306"/>
      <point x="442" y="322"/>
      <point x="443" y="337" type="curve"/>
    </contour>
  </outline>
</glyph>
<glyph name="exclamdown" format="1">
  <advance width="212"/>
  <unicode hex="00A1"/>
  <outline>
    <contour>
      <point x="151" y="248" type="curve" smooth="yes" name="hr00"/>
      <point x="151" y="284" smooth="yes"/>
      <point x="146" y="290" smooth="yes"/>
      <point x="136" y="290" type="curve" smooth="yes"/>
      <point x="126" y="290"/>
      <point x="110" y="287"/>
      <point x="99" y="278" type="curve"/>
      <point x="87" y="124"/>
      <point x="42" y="-92"/>
      <point x="-5" y="-187" type="curve"/>
      <point x="76" y="-235" type="line"/>
      <point x="103" y="-222" type="line"/>
      <point x="136" y="-91" smooth="yes"/>
      <point x="151" y="65" smooth="yes"/>
    </contour>
    <contour>
      <point x="192" y="436" type="curve" smooth="yes"/>
      <point x="192" y="393"/>
      <point x="156" y="360"/>
      <point x="89" y="351" type="curve"/>
      <point x="62" y="372" smooth="yes"/>
      <point x="54" y="400" smooth="yes"/>
      <point x="54" y="424" type="curve" smooth="yes"/>
      <point x="54" y="473" smooth="yes"/>
      <point x="95" y="500" smooth="yes"/>
      <point x="133" y="500" type="curve" smooth="yes"/>
      <point x="171" y="500" smooth="yes"/>
      <point x="192" y="468" smooth="yes"/>
    </contour>
  </outline>
</glyph>
<glyph name="cent" format="1">
  <advance width="500"/>
  <unicode hex="00A2"/>
  <outline>
    <contour>
      <point x="391" y="546" type="line" name="hr00"/>
      <point x="375" y="570" type="line"/>
      <point x="352" y="566"/>
      <point x="330" y="561"/>
      <point x="310" y="555" type="curve"/>
      <point x="315" y="604"/>
      <point x="318" y="653"/>
      <point x="321" y="703" type="curve"/>
      <point x="316" y="713"/>
      <point x="298" y="717"/>
      <point x="287" y="717" type="curve"/>
      <point x="281" y="663"/>
      <point x="272" y="602"/>
      <point x="262" y="537" type="curve"/>
      <point x="140" y="482" smooth="yes"/>
      <point x="97" y="377" smooth="yes"/>
      <point x="97" y="294" type="curve" smooth="yes"/>
      <point x="97" y="191"/>
      <point x="141" y="119"/>
      <point x="215" y="108" type="curve"/>
      <point x="208" y="48"/>
      <point x="197" y="-28"/>
      <point x="190" y="-61" type="curve"/>
      <point x="203" y="-67" smooth="yes"/>
      <point x="219" y="-69" smooth="yes"/>
      <point x="236" y="-69" type="curve" smooth="yes"/>
      <point x="245" y="-69"/>
      <point x="253" y="-69"/>
      <point x="262" y="-66" type="curve"/>
      <point x="266" y="-33"/>
      <point x="275" y="59"/>
      <point x="279" y="116" type="curve"/>
      <point x="335" y="140"/>
      <point x="385" y="206"/>
      <point x="401" y="307" type="curve"/>
      <point x="388" y="316" smooth="yes"/>
      <point x="376" y="321" smooth="yes"/>
      <point x="371" y="321" type="curve" smooth="yes"/>
      <point x="364" y="321" smooth="yes"/>
      <point x="358" y="316" smooth="yes"/>
      <point x="356" y="310" type="curve" smooth="yes"/>
      <point x="331" y="222" smooth="yes"/>
      <point x="298" y="177" smooth="yes"/>
      <point x="245" y="177" type="curve" smooth="yes"/>
      <point x="209" y="177" smooth="yes"/>
      <point x="173" y="224" smooth="yes"/>
      <point x="173" y="329" type="curve" smooth="yes"/>
      <point x="173" y="396" smooth="yes"/>
      <point x="206" y="486" smooth="yes"/>
      <point x="322" y="486" type="curve" smooth="yes"/>
      <point x="335" y="486"/>
      <point x="349" y="485"/>
      <point x="366" y="482" type="curve"/>
    </contour>
  </outline>
</glyph>
<glyph name="sterling" format="1">
  <advance width="500"/>
  <unicode hex="00A3"/>
  <outline>
    <contour>
      <point x="395" y="339" type="line" name="hr00"/>
      <point x="386" y="356" type="line"/>
      <point x="344" y="339"/>
      <point x="283" y="322"/>
      <point x="198" y="321" type="curve"/>
      <point x="203" y="388" smooth="yes"/>
      <point x="205" y="441" smooth="yes"/>
      <point x="210" y="481" type="curve" smooth="yes"/>
      <point x="220" y="559" smooth="yes"/>
      <point x="242" y="588" smooth="yes"/>
      <point x="312" y="588" type="curve" smooth="yes"/>
      <point x="359" y="588"/>
      <point x="403" y="570"/>
      <point x="430" y="552" type="curve"/>
      <point x="462" y="638" type="line"/>
      <point x="446" y="664" type="line"/>
      <point x="150" y="636" smooth="yes"/>
      <point x="112" y="550" smooth="yes"/>
      <point x="112" y="471" type="curve" smooth="yes"/>
      <point x="112" y="410"/>
      <point x="115" y="369"/>
      <point x="117" y="322" type="curve"/>
      <point x="91" y="323"/>
      <point x="65" y="326"/>
      <point x="38" y="329" type="curve"/>
      <point x="38" y="329" smooth="yes"/>
      <point x="33" y="329" smooth="yes"/>
      <point x="33" y="323" type="curve" smooth="yes"/>
      <point x="34" y="312"/>
      <point x="47" y="279"/>
      <point x="60" y="275" type="curve"/>
      <point x="79" y="271"/>
      <point x="98" y="268"/>
      <point x="118" y="266" type="curve"/>
      <point x="118" y="215"/>
      <point x="115" y="158"/>
      <point x="107" y="83" type="curve"/>
      <point x="31" y="6" type="line"/>
      <point x="50" y="-24" type="line"/>
      <point x="118" y="-13" smooth="yes"/>
      <point x="181" y="-8" smooth="yes"/>
      <point x="249" y="-8" type="curve" smooth="yes"/>
      <point x="312" y="-8"/>
      <point x="392" y="-13"/>
      <point x="465" y="-30" type="curve"/>
      <point x="466" y="-30" smooth="yes"/>
      <point x="467" y="-28" smooth="yes"/>
      <point x="467" y="-21" type="curve" smooth="yes"/>
      <point x="467" y="-10"/>
      <point x="462" y="20"/>
      <point x="456" y="29" type="curve"/>
      <point x="382" y="56"/>
      <point x="273" y="66"/>
      <point x="168" y="77" type="curve"/>
      <point x="180" y="146"/>
      <point x="188" y="207"/>
      <point x="193" y="260" type="curve"/>
      <point x="209" y="259" smooth="yes"/>
      <point x="225" y="259" smooth="yes"/>
      <point x="241" y="259" type="curve" smooth="yes"/>
      <point x="280" y="259"/>
      <point x="328" y="263"/>
      <point x="365" y="270" type="curve"/>
    </contour>
  </outline>
</glyph>
<glyph name="currency" format="1">
  <advance width="500"/>
  <unicode hex="00A4"/>
  <outline>
    <contour>
      <point x="276" y="502" type="curve" smooth="yes" name="hr00"/>
      <point x="227" y="502"/>
      <point x="185" y="486"/>
      <point x="153" y="458" type="curve"/>
      <point x="127" y="484"/>
      <point x="105" y="509"/>
      <point x="88" y="531" type="curve"/>
      <point x="57" y="512" type="line"/>
      <point x="30" y="462" type="line"/>
      <point x="49" y="438"/>
      <point x="74" y="411"/>
      <point x="104" y="385" type="curve"/>
      <point x="95" y="362" smooth="yes"/>
      <point x="91" y="336" smooth="yes"/>
      <point x="91" y="309" type="curve" smooth="yes"/>
      <point x="91" y="267"/>
      <point x="100" y="234"/>
      <point x="117" y="210" type="curve"/>
      <point x="96" y="181"/>
      <point x="76" y="155"/>
      <point x="61" y="131" type="curve"/>
      <point x="69" y="112" smooth="yes"/>
      <point x="93" y="90" smooth="yes"/>
      <point x="97" y="89" type="curve" smooth="yes"/>
      <point x="99" y="89" smooth="yes"/>
      <point x="100" y="90" smooth="yes"/>
      <point x="101" y="91" type="curve" smooth="yes"/>
      <point x="119" y="116"/>
      <point x="141" y="142"/>
      <point x="164" y="169" type="curve"/>
      <point x="185" y="159" smooth="yes"/>
      <point x="209" y="154" smooth="yes"/>
      <point x="235" y="154" type="curve" smooth="yes"/>
      <point x="272" y="154"/>
      <point x="306" y="164"/>
      <point x="335" y="183" type="curve"/>
      <point x="368" y="154"/>
      <point x="401" y="128"/>
      <point x="429" y="106" type="curve"/>
      <point x="449" y="114" smooth="yes"/>
      <point x="472" y="135" smooth="yes"/>
      <point x="472" y="139" type="curve" smooth="yes"/>
      <point x="472" y="141" smooth="yes"/>
      <point x="472" y="142" smooth="yes"/>
      <point x="471" y="143" type="curve" smooth="yes"/>
      <point x="442" y="167"/>
      <point x="411" y="196"/>
      <point x="381" y="226" type="curve"/>
      <point x="405" y="259" smooth="yes"/>
      <point x="420" y="300" smooth="yes"/>
      <point x="420" y="347" type="curve" smooth="yes"/>
      <point x="420" y="385"/>
      <point x="411" y="416"/>
      <point x="397" y="440" type="curve"/>
      <point x="424" y="468"/>
      <point x="450" y="492"/>
      <point x="473" y="511" type="curve"/>
      <point x="452" y="543" type="line"/>
      <point x="401" y="567" type="line"/>
      <point x="377" y="548"/>
      <point x="353" y="523"/>
      <point x="328" y="493" type="curve"/>
      <point x="312" y="499" smooth="yes"/>
      <point x="294" y="502" smooth="yes"/>
    </contour>
    <contour>
      <point x="272" y="429" type="curve" smooth="yes"/>
      <point x="326" y="429" smooth="yes"/>
      <point x="370" y="401" smooth="yes"/>
      <point x="370" y="342" type="curve" smooth="yes"/>
      <point x="370" y="274" smooth="yes"/>
      <point x="310" y="227" smooth="yes"/>
      <point x="234" y="227" type="curve" smooth="yes"/>
      <point x="185" y="227" smooth="yes"/>
      <point x="140" y="255" smooth="yes"/>
      <point x="140" y="314" type="curve" smooth="yes"/>
      <point x="140" y="382" smooth="yes"/>
      <point x="196" y="429" smooth="yes"/>
    </contour>
  </outline>
</glyph>
<glyph name="yen" format="1">
  <advance width="500"/>
  <unicode hex="00A5"/>
  <outline>
    <contour>
      <point x="277" y="-31" type="curve" smooth="yes"/>
      <point x="272" y="28" smooth="yes"/>
      <point x="269" y="81" smooth="yes"/>
      <point x="269" y="129" type="curve" smooth="yes"/>
      <point x="269" y="146" type="line"/>
      <point x="279" y="146" type="line" smooth="yes"/>
      <point x="318" y="146"/>
      <point x="366" y="150"/>
      <point x="403" y="157" type="curve"/>
      <point x="433" y="226" type="line"/>
      <point x="424" y="243" type="line"/>
      <point x="388" y="229"/>
      <point x="338" y="214"/>
      <point x="271" y="209" type="curve"/>
      <point x="276" y="273" type="line" name="hr01"/>
      <point x="315" y="273"/>
      <point x="362" y="277"/>
      <point x="398" y="284" type="curve"/>
      <point x="428" y="353" type="line"/>
      <point x="419" y="370" type="line"/>
      <point x="391" y="359"/>
      <point x="355" y="347"/>
      <point x="308" y="341" type="curve"/>
      <point x="372" y="449"/>
      <point x="440" y="562"/>
      <point x="514" y="654" type="curve"/>
      <point x="485" y="677" type="line"/>
      <point x="398" y="657" type="line"/>
      <point x="344" y="580"/>
      <point x="290" y="452"/>
      <point x="246" y="344" type="curve"/>
      <point x="214" y="437"/>
      <point x="180" y="561"/>
      <point x="171" y="634" type="curve"/>
      <point x="86" y="677" type="line"/>
      <point x="60" y="659" type="line"/>
      <point x="74" y="571"/>
      <point x="116" y="447"/>
      <point x="163" y="336" type="curve"/>
      <point x="132" y="337"/>
      <point x="102" y="339"/>
      <point x="71" y="343" type="curve"/>
      <point x="71" y="343" smooth="yes"/>
      <point x="66" y="343" smooth="yes"/>
      <point x="66" y="337" type="curve" smooth="yes"/>
      <point x="67" y="326"/>
      <point x="80" y="293"/>
      <point x="93" y="289" type="curve"/>
      <point x="125" y="283"/>
      <point x="157" y="278"/>
      <point x="190" y="276" type="curve"/>
      <point x="193" y="269"/>
      <point x="196" y="261"/>
      <point x="200" y="254" type="curve"/>
      <point x="200" y="239"/>
      <point x="200" y="224"/>
      <point x="201" y="208" type="curve"/>
      <point x="158" y="208"/>
      <point x="118" y="211"/>
      <point x="76" y="216" type="curve"/>
      <point x="76" y="216" smooth="yes"/>
      <point x="71" y="216" smooth="yes"/>
      <point x="71" y="210" type="curve" smooth="yes"/>
      <point x="72" y="199"/>
      <point x="85" y="166"/>
      <point x="98" y="162" type="curve"/>
      <point x="133" y="155"/>
      <point x="169" y="151"/>
      <point x="205" y="148" type="curve"/>
      <point x="210" y="91"/>
      <point x="219" y="34"/>
      <point x="230" y="-19" type="curve"/>
      <point x="238" y="-28" smooth="yes"/>
      <point x="259" y="-34" smooth="yes"/>
      <point x="269" y="-34" type="curve" smooth="yes"/>
      <point x="276" y="-34" smooth="yes"/>
      <point x="277" y="-33" smooth="yes"/>
    </contour>
  </outline>
</glyph>
<glyph name="brokenbar" format="1">
  <advance width="316"/>
  <unicode hex="00A6"/>
  <outline>
    <contour>
      <point x="184" y="234" type="curve" smooth="yes" name="hr00"/>
      <point x="184" y="253" smooth="yes"/>
      <point x="181" y="260" smooth="yes"/>
      <point x="167" y="260" type="curve" smooth="yes"/>
      <point x="154" y="260"/>
      <point x="125" y="254"/>
      <point x="108" y="241" type="curve"/>
      <point x="109" y="150" smooth="yes"/>
      <point x="112" y="53" smooth="yes"/>
      <point x="118" y="-49" type="curve" smooth="yes"/>
      <point x="122" y="-105" smooth="yes"/>
      <point x="127" y="-114" smooth="yes"/>
      <point x="137" y="-114" type="curve" smooth="yes"/>
      <point x="147" y="-114"/>
      <point x="163" y="-110"/>
      <point x="173" y="-95" type="curve"/>
      <point x="173" y="131" smooth="yes"/>
      <point x="184" y="218" smooth="yes"/>
    </contour>
    <contour>
      <point x="197" y="427" type="curve"/>
      <point x="208" y="548"/>
      <point x="219" y="626"/>
      <point x="236" y="695" type="curve"/>
      <point x="152" y="750" type="line"/>
      <point x="126" y="735" type="line"/>
      <point x="118" y="654" smooth="yes"/>
      <point x="110" y="567" smooth="yes"/>
      <point x="110" y="458" type="curve" smooth="yes"/>
      <point x="110" y="412" smooth="yes"/>
      <point x="114" y="403" smooth="yes"/>
      <point x="129" y="403" type="curve" smooth="yes"/>
      <point x="144" y="403"/>
      <point x="178" y="410"/>
    </contour>
  </outline>
</glyph>
<glyph name="section" format="1">
  <advance width="503"/>
  <unicode hex="00A7"/>
  <outline>
    <contour>
      <point x="110" y="391" type="curve" name="hr00"/>
      <point x="88" y="363" smooth="yes"/>
      <point x="79" y="336" smooth="yes"/>
      <point x="79" y="312" type="curve" smooth="yes"/>
      <point x="79" y="186" smooth="yes"/>
      <point x="322" y="105" smooth="yes"/>
      <point x="322" y="-10" type="curve" smooth="yes"/>
      <point x="322" y="-81" smooth="yes"/>
      <point x="246" y="-131" smooth="yes"/>
      <point x="133" y="-131" type="curve" smooth="yes"/>
      <point x="75" y="-131" smooth="yes"/>
      <point x="45" y="-116" smooth="yes"/>
      <point x="36" y="-116" type="curve" smooth="yes"/>
      <point x="35" y="-116" smooth="yes"/>
      <point x="35" y="-117" smooth="yes"/>
      <point x="35" y="-123" type="curve" smooth="yes"/>
      <point x="35" y="-130"/>
      <point x="39" y="-148"/>
      <point x="46" y="-159" type="curve"/>
      <point x="98" y="-175" smooth="yes"/>
      <point x="127" y="-176" smooth="yes"/>
      <point x="164" y="-176" type="curve" smooth="yes"/>
      <point x="388" y="-176" smooth="yes"/>
      <point x="434" y="-58" smooth="yes"/>
      <point x="434" y="7" type="curve" smooth="yes"/>
      <point x="434" y="159"/>
      <point x="164" y="243"/>
    </contour>
    <contour>
      <point x="413" y="164" type="curve"/>
      <point x="425" y="187" smooth="yes"/>
      <point x="435" y="216" smooth="yes"/>
      <point x="435" y="237" type="curve" smooth="yes"/>
      <point x="435" y="383" smooth="yes"/>
      <point x="174" y="476" smooth="yes"/>
      <point x="174" y="577" type="curve" smooth="yes"/>
      <point x="174" y="642" smooth="yes"/>
      <point x="235" y="664" smooth="yes"/>
      <point x="297" y="664" type="curve" smooth="yes"/>
      <point x="338" y="664"/>
      <point x="380" y="654"/>
      <point x="410" y="638" type="curve"/>
      <point x="443" y="724" type="line"/>
      <point x="426" y="750" type="line"/>
      <point x="120" y="707" smooth="yes"/>
      <point x="78" y="599" smooth="yes"/>
      <point x="78" y="546" type="curve" smooth="yes"/>
      <point x="78" y="416"/>
      <point x="298" y="360"/>
    </contour>
  </outline>
</glyph>
<glyph name="dieresis" format="1">
  <advance width="401"/>
  <unicode hex="00A8"/>
  <outline>
    <contour>
      <point x="50" y="602" type="curve" smooth="yes" name="hr00"/>
      <point x="50" y="640"/>
      <point x="79" y="666"/>
      <point x="135" y="674" type="curve"/>
      <point x="156" y="657" smooth="yes"/>
      <point x="164" y="633" smooth="yes"/>
      <point x="164" y="613" type="curve" smooth="yes"/>
      <point x="164" y="573" smooth="yes"/>
      <point x="130" y="549" smooth="yes"/>
      <point x="98" y="549" type="curve" smooth="yes"/>
      <point x="66" y="549" smooth="yes"/>
      <point x="50" y="578" smooth="yes"/>
    </contour>
    <contour>
      <point x="237" y="602" type="curve" smooth="yes"/>
      <point x="237" y="640"/>
      <point x="266" y="666"/>
      <point x="322" y="674" type="curve"/>
      <point x="343" y="657" smooth="yes"/>
      <point x="351" y="633" smooth="yes"/>
      <point x="351" y="613" type="curve" smooth="yes"/>
      <point x="351" y="573" smooth="yes"/>
      <point x="317" y="549" smooth="yes"/>
      <point x="285" y="549" type="curve" smooth="yes"/>
      <point x="253" y="549" smooth="yes"/>
      <point x="237" y="578" smooth="yes"/>
    </contour>
  </outline>
</glyph>
<glyph name="copyright" format="1">
  <advance width="742"/>
  <unicode hex="00A9"/>
  <outline>
    <contour>
      <point x="498" y="619" type="line" name="hr00"/>
      <point x="482" y="643" type="line"/>
      <point x="273" y="611" smooth="yes"/>
      <point x="204" y="472" smooth="yes"/>
      <point x="204" y="367" type="curve" smooth="yes"/>
      <point x="204" y="256" smooth="yes"/>
      <point x="256" y="180" smooth="yes"/>
      <point x="342" y="180" type="curve" smooth="yes"/>
      <point x="413" y="180"/>
      <point x="488" y="253"/>
      <point x="508" y="380" type="curve"/>
      <point x="495" y="389" smooth="yes"/>
      <point x="483" y="394" smooth="yes"/>
      <point x="478" y="394" type="curve" smooth="yes"/>
      <point x="471" y="394" smooth="yes"/>
      <point x="465" y="389" smooth="yes"/>
      <point x="463" y="383" type="curve" smooth="yes"/>
      <point x="438" y="295" smooth="yes"/>
      <point x="405" y="250" smooth="yes"/>
      <point x="352" y="250" type="curve" smooth="yes"/>
      <point x="316" y="250" smooth="yes"/>
      <point x="280" y="297" smooth="yes"/>
      <point x="280" y="402" type="curve" smooth="yes"/>
      <point x="280" y="469" smooth="yes"/>
      <point x="313" y="559" smooth="yes"/>
      <point x="429" y="559" type="curve" smooth="yes"/>
      <point x="442" y="559"/>
      <point x="456" y="558"/>
      <point x="473" y="555" type="curve"/>
    </contour>
    <contour>
      <point x="415" y="744" type="curve" smooth="yes"/>
      <point x="206" y="744" smooth="yes"/>
      <point x="50" y="585" smooth="yes"/>
      <point x="50" y="370" type="curve" smooth="yes"/>
      <point x="50" y="161" smooth="yes"/>
      <point x="174" y="66" smooth="yes"/>
      <point x="326" y="66" type="curve" smooth="yes"/>
      <point x="535" y="66" smooth="yes"/>
      <point x="692" y="225" smooth="yes"/>
      <point x="692" y="440" type="curve" smooth="yes"/>
      <point x="692" y="649" smooth="yes"/>
      <point x="566" y="744" smooth="yes"/>
    </contour>
    <contour>
      <point x="415" y="699" type="curve" smooth="yes"/>
      <point x="533" y="699" smooth="yes"/>
      <point x="632" y="618" smooth="yes"/>
      <point x="632" y="440" type="curve" smooth="yes"/>
      <point x="632" y="251" smooth="yes"/>
      <point x="501" y="111" smooth="yes"/>
      <point x="326" y="111" type="curve" smooth="yes"/>
      <point x="207" y="111" smooth="yes"/>
      <point x="110" y="192" smooth="yes"/>
      <point x="110" y="370" type="curve" smooth="yes"/>
      <point x="110" y="559" smooth="yes"/>
      <point x="240" y="699" smooth="yes"/>
    </contour>
  </outline>
</glyph>
<glyph name="ordfeminine" format="1">
  <advance width="302"/>
  <unicode hex="00AA"/>
  <outline>
    <contour>
      <point x="194" y="720" type="line" smooth="yes"/>
      <point x="113" y="684" smooth="yes"/>
      <point x="18" y="609" smooth="yes"/>
      <point x="18" y="500" type="curve" smooth="yes"/>
      <point x="18" y="458" smooth="yes"/>
      <point x="35" y="427" smooth="yes"/>
      <point x="76" y="427" type="curve" smooth="yes"/>
      <point x="113" y="427"/>
      <point x="162" y="475"/>
      <point x="195" y="538" type="curve"/>
      <point x="202" y="492" smooth="yes"/>
      <point x="212" y="423" smooth="yes"/>
      <point x="250" y="423" type="curve" smooth="yes" name="hr01"/>
      <point x="259" y="423"/>
      <point x="262" y="428"/>
      <point x="262" y="434" type="curve"/>
      <point x="255" y="460" smooth="yes"/>
      <point x="246" y="555" smooth="yes"/>
      <point x="246" y="596" type="curve" smooth="yes"/>
      <point x="246" y="637"/>
      <point x="255" y="691"/>
      <point x="268" y="729" type="curve"/>
      <point x="246" y="743" type="line"/>
    </contour>
    <contour>
      <point x="184" y="672" type="curve"/>
      <point x="184" y="650"/>
      <point x="185" y="613"/>
      <point x="187" y="598" type="curve"/>
      <point x="172" y="546" smooth="yes"/>
      <point x="131" y="504" smooth="yes"/>
      <point x="105" y="504" type="curve" smooth="yes" name="hr02"/>
      <point x="92" y="504" smooth="yes"/>
      <point x="83" y="514" smooth="yes"/>
      <point x="83" y="538" type="curve" smooth="yes"/>
      <point x="83" y="577"/>
      <point x="120" y="641"/>
    </contour>
  </outline>
</glyph>
<glyph name="guillemotleft" format="1">
  <advance width="544"/>
  <unicode hex="00AB"/>
  <outline>
    <contour>
      <point x="40" y="234" type="line" name="hr00"/>
      <point x="111" y="184"/>
      <point x="157" y="124"/>
      <point x="202" y="44" type="curve"/>
      <point x="222" y="56" type="line"/>
      <point x="248" y="143" type="line"/>
      <point x="204" y="198"/>
      <point x="168" y="223"/>
      <point x="118" y="258" type="curve"/>
      <point x="119" y="271" type="line"/>
      <point x="175" y="306"/>
      <point x="215" y="331"/>
      <point x="269" y="386" type="curve"/>
      <point x="259" y="473" type="line"/>
      <point x="241" y="485" type="line"/>
      <point x="171" y="399"/>
      <point x="122" y="345"/>
      <point x="45" y="295" type="curve"/>
    </contour>
    <contour>
      <point x="255" y="234" type="line"/>
      <point x="326" y="184"/>
      <point x="372" y="124"/>
      <point x="417" y="44" type="curve"/>
      <point x="437" y="56" type="line"/>
      <point x="463" y="143" type="line"/>
      <point x="419" y="198"/>
      <point x="383" y="223"/>
      <point x="333" y="258" type="curve"/>
      <point x="334" y="271" type="line"/>
      <point x="390" y="306"/>
      <point x="430" y="331"/>
      <point x="484" y="386" type="curve"/>
      <point x="474" y="473" type="line"/>
      <point x="456" y="485" type="line"/>
      <point x="386" y="399"/>
      <point x="337" y="345"/>
      <point x="260" y="295" type="curve"/>
    </contour>
  </outline>
</glyph>
<glyph name="logicalnot" format="1">
  <advance width="500"/>
  <unicode hex="00AC"/>
  <outline>
    <contour>
      <point x="445" y="375" type="line" name="hr00"/>
      <point x="434" y="393" type="line"/>
      <point x="387" y="375" smooth="yes"/>
      <point x="251" y="351" smooth="yes"/>
      <point x="152" y="351" type="curve" smooth="yes"/>
      <point x="113" y="351"/>
      <point x="80" y="353"/>
      <point x="42" y="359" type="curve"/>
      <point x="42" y="359"/>
      <point x="38" y="359"/>
      <point x="38" y="353" type="curve"/>
      <point x="40" y="340"/>
      <point x="51" y="305"/>
      <point x="61" y="299" type="curve"/>
      <point x="115" y="286" smooth="yes"/>
      <point x="171" y="281" smooth="yes"/>
      <point x="227" y="281" type="curve" smooth="yes"/>
      <point x="262" y="281"/>
      <point x="298" y="283"/>
      <point x="333" y="286" type="curve"/>
      <point x="335" y="220"/>
      <point x="353" y="164"/>
      <point x="382" y="107" type="curve"/>
      <point x="389" y="102" smooth="yes"/>
      <point x="408" y="99" smooth="yes"/>
      <point x="418" y="99" type="curve" smooth="yes"/>
      <point x="423" y="99" smooth="yes"/>
      <point x="426" y="99" smooth="yes"/>
      <point x="426" y="101" type="curve" smooth="yes"/>
      <point x="417" y="130" smooth="yes"/>
      <point x="407" y="168" smooth="yes"/>
      <point x="407" y="219" type="curve" smooth="yes"/>
      <point x="407" y="231"/>
      <point x="408" y="265"/>
      <point x="413" y="299" type="curve"/>
    </contour>
  </outline>
</glyph>
<glyph name="registered" format="1">
  <advance width="742"/>
  <unicode hex="00AE"/>
  <outline>
    <contour>
      <point x="268" y="362" type="curve" smooth="yes" name="hr00"/>
      <point x="268" y="299" smooth="yes"/>
      <point x="263" y="221" smooth="yes"/>
      <point x="259" y="189" type="curve" smooth="yes"/>
      <point x="259" y="184" smooth="yes"/>
      <point x="262" y="179" smooth="yes"/>
      <point x="274" y="179" type="curve" smooth="yes"/>
      <point x="282" y="179"/>
      <point x="300" y="184"/>
      <point x="309" y="193" type="curve"/>
      <point x="316" y="248"/>
      <point x="324" y="311"/>
      <point x="327" y="372" type="curve"/>
      <point x="360" y="375" type="line"/>
      <point x="396" y="304"/>
      <point x="438" y="237"/>
      <point x="474" y="187" type="curve"/>
      <point x="502" y="187"/>
      <point x="511" y="193"/>
      <point x="517" y="203" type="curve"/>
      <point x="486" y="250"/>
      <point x="456" y="328"/>
      <point x="428" y="394" type="curve"/>
      <point x="472" y="417" smooth="yes"/>
      <point x="500" y="439" smooth="yes"/>
      <point x="500" y="485" type="curve" smooth="yes"/>
      <point x="500" y="569"/>
      <point x="380" y="575"/>
      <point x="265" y="644" type="curve"/>
      <point x="233" y="596" type="line"/>
      <point x="264" y="537" smooth="yes"/>
      <point x="268" y="435" smooth="yes"/>
    </contour>
    <contour>
      <point x="415" y="744" type="curve" smooth="yes"/>
      <point x="206" y="744" smooth="yes"/>
      <point x="50" y="585" smooth="yes"/>
      <point x="50" y="370" type="curve" smooth="yes"/>
      <point x="50" y="161" smooth="yes"/>
      <point x="174" y="66" smooth="yes"/>
      <point x="326" y="66" type="curve" smooth="yes"/>
      <point x="535" y="66" smooth="yes"/>
      <point x="692" y="225" smooth="yes"/>
      <point x="692" y="440" type="curve" smooth="yes"/>
      <point x="692" y="649" smooth="yes"/>
      <point x="566" y="744" smooth="yes"/>
    </contour>
    <contour>
      <point x="415" y="699" type="curve" smooth="yes"/>
      <point x="533" y="699" smooth="yes"/>
      <point x="632" y="618" smooth="yes"/>
      <point x="632" y="440" type="curve" smooth="yes"/>
      <point x="632" y="251" smooth="yes"/>
      <point x="501" y="111" smooth="yes"/>
      <point x="326" y="111" type="curve" smooth="yes"/>
      <point x="207" y="111" smooth="yes"/>
      <point x="110" y="192" smooth="yes"/>
      <point x="110" y="370" type="curve" smooth="yes"/>
      <point x="110" y="559" smooth="yes"/>
      <point x="240" y="699" smooth="yes"/>
    </contour>
    <contour>
      <point x="322" y="559" type="curve"/>
      <point x="372" y="544" smooth="yes"/>
      <point x="422" y="522" smooth="yes"/>
      <point x="422" y="488" type="curve" smooth="yes"/>
      <point x="422" y="451"/>
      <point x="384" y="428"/>
      <point x="329" y="420" type="curve"/>
      <point x="329" y="471"/>
      <point x="328" y="515"/>
    </contour>
  </outline>
</glyph>
<glyph name="macron" format="1">
  <advance width="313"/>
  <unicode hex="00AF"/>
  <outline>
    <contour>
      <point x="287" y="648" type="line" name="hr00"/>
      <point x="274" y="667" type="line"/>
      <point x="242" y="646" smooth="yes"/>
      <point x="199" y="628" smooth="yes"/>
      <point x="125" y="628" type="curve" smooth="yes"/>
      <point x="73" y="628" smooth="yes"/>
      <point x="49" y="636" smooth="yes"/>
      <point x="45" y="636" type="curve" smooth="yes"/>
      <point x="42" y="636" smooth="yes"/>
      <point x="40" y="633" smooth="yes"/>
      <point x="40" y="630" type="curve" smooth="yes"/>
      <point x="40" y="619"/>
      <point x="49" y="588"/>
      <point x="57" y="582" type="curve"/>
      <point x="93" y="570" smooth="yes"/>
      <point x="131" y="565" smooth="yes"/>
      <point x="168" y="565" type="curve" smooth="yes"/>
      <point x="200" y="565"/>
      <point x="231" y="569"/>
      <point x="263" y="576" type="curve"/>
    </contour>
  </outline>
</glyph>
<glyph name="degree" format="1">
  <advance width="303"/>
  <unicode hex="00B0"/>
  <outline>
    <contour>
      <point x="167" y="705" type="curve" smooth="yes" name="hr00"/>
      <point x="87" y="705" smooth="yes"/>
      <point x="30" y="645" smooth="yes"/>
      <point x="30" y="562" type="curve" smooth="yes"/>
      <point x="30" y="482" smooth="yes"/>
      <point x="77" y="447" smooth="yes"/>
      <point x="136" y="447" type="curve" smooth="yes"/>
      <point x="212" y="447" smooth="yes"/>
      <point x="273" y="507" smooth="yes"/>
      <point x="273" y="590" type="curve" smooth="yes"/>
      <point x="273" y="670" smooth="yes"/>
      <point x="224" y="705" smooth="yes"/>
    </contour>
    <contour>
      <point x="162" y="638" type="curve" smooth="yes"/>
      <point x="197" y="638" smooth="yes"/>
      <point x="225" y="621" smooth="yes"/>
      <point x="225" y="585" type="curve" smooth="yes"/>
      <point x="225" y="543" smooth="yes"/>
      <point x="187" y="514" smooth="yes"/>
      <point x="138" y="514" type="curve" smooth="yes"/>
      <point x="106" y="514" smooth="yes"/>
      <point x="77" y="531" smooth="yes"/>
      <point x="77" y="567" type="curve" smooth="yes"/>
      <point x="77" y="609" smooth="yes"/>
      <point x="113" y="638" smooth="yes"/>
    </contour>
  </outline>
</glyph>
<glyph name="twosuperior" format="1">
  <advance width="300"/>
  <unicode hex="00B2"/>
  <outline>
    <contour>
      <point x="250" y="731" type="curve" smooth="yes" name="hr00"/>
      <point x="250" y="773" smooth="yes"/>
      <point x="227" y="830" smooth="yes"/>
      <point x="111" y="830" type="curve" smooth="yes"/>
      <point x="94" y="830"/>
      <point x="72" y="828"/>
      <point x="44" y="824" type="curve"/>
      <point x="19" y="777" type="line"/>
      <point x="30" y="750" type="line"/>
      <point x="54" y="764" smooth="yes"/>
      <point x="91" y="776" smooth="yes"/>
      <point x="121" y="776" type="curve" smooth="yes"/>
      <point x="149" y="776" smooth="yes"/>
      <point x="173" y="765" smooth="yes"/>
      <point x="173" y="729" type="curve" smooth="yes"/>
      <point x="173" y="665"/>
      <point x="87" y="559"/>
      <point x="-5" y="452" type="curve"/>
      <point x="8" y="425" type="line"/>
      <point x="55" y="432" smooth="yes"/>
      <point x="95" y="435" smooth="yes"/>
      <point x="136" y="435" type="curve" smooth="yes"/>
      <point x="174" y="435"/>
      <point x="223" y="432"/>
      <point x="267" y="422" type="curve"/>
      <point x="273" y="422" smooth="yes"/>
      <point x="279" y="424" smooth="yes"/>
      <point x="279" y="434" type="curve" smooth="yes"/>
      <point x="279" y="442"/>
      <point x="275" y="462"/>
      <point x="268" y="469" type="curve"/>
      <point x="224" y="485"/>
      <point x="159" y="492"/>
      <point x="97" y="497" type="curve"/>
      <point x="173" y="576" smooth="yes"/>
      <point x="250" y="668" smooth="yes"/>
    </contour>
  </outline>
</glyph>
<glyph name="threesuperior" format="1">
  <advance width="300"/>
  <unicode hex="00B3"/>
  <outline>
    <contour>
      <point x="144" y="659" type="line" name="hr00"/>
      <point x="183" y="689"/>
      <point x="231" y="729"/>
      <point x="262" y="775" type="curve"/>
      <point x="262" y="786"/>
      <point x="258" y="798"/>
      <point x="251" y="806" type="curve"/>
      <point x="210" y="823" smooth="yes"/>
      <point x="164" y="830" smooth="yes"/>
      <point x="118" y="830" type="curve" smooth="yes"/>
      <point x="97" y="830"/>
      <point x="72" y="828"/>
      <point x="48" y="824" type="curve"/>
      <point x="23" y="777" type="line"/>
      <point x="34" y="751" type="line"/>
      <point x="72" y="769"/>
      <point x="125" y="777"/>
      <point x="182" y="777" type="curve"/>
      <point x="134" y="706"/>
      <point x="94" y="669"/>
      <point x="43" y="625" type="curve"/>
      <point x="58" y="598" type="line"/>
      <point x="76" y="607" smooth="yes"/>
      <point x="96" y="611" smooth="yes"/>
      <point x="114" y="611" type="curve" smooth="yes"/>
      <point x="151" y="611" smooth="yes"/>
      <point x="183" y="591" smooth="yes"/>
      <point x="183" y="544" type="curve" smooth="yes"/>
      <point x="183" y="494" smooth="yes"/>
      <point x="146" y="463" smooth="yes"/>
      <point x="99" y="463" type="curve" smooth="yes"/>
      <point x="79" y="463"/>
      <point x="56" y="469"/>
      <point x="33" y="483" type="curve"/>
      <point x="23" y="483"/>
      <point x="13" y="456"/>
      <point x="13" y="445" type="curve"/>
      <point x="48" y="425" smooth="yes"/>
      <point x="84" y="418" smooth="yes"/>
      <point x="115" y="418" type="curve" smooth="yes"/>
      <point x="191" y="418" smooth="yes"/>
      <point x="262" y="464" smooth="yes"/>
      <point x="262" y="545" type="curve" smooth="yes"/>
      <point x="262" y="607"/>
      <point x="215" y="649"/>
      <point x="146" y="653" type="curve"/>
    </contour>
  </outline>
</glyph>
